<?xml version="1.0" encoding="UTF-8"?>
<!DOCTYPE svg PUBLIC "-//W3C//DTD SVG 1.1//EN" "http://www.w3.org/Graphics/SVG/1.1/DTD/svg11.dtd">
<svg xmlns="http://www.w3.org/2000/svg" version="1.1" width="512px" height="512px" style="shape-rendering:geometricPrecision; text-rendering:geometricPrecision; image-rendering:optimizeQuality; fill-rule:evenodd; clip-rule:evenodd" xmlns:xlink="http://www.w3.org/1999/xlink">
<g><path fill="#414042" d="M 237.5,-0.5 C 247.833,-0.5 258.167,-0.5 268.5,-0.5C 318.376,8.19956 352.543,36.1996 371,83.5C 385.784,135.206 373.95,179.706 335.5,217C 299.661,246.302 259.328,254.635 214.5,242C 155.603,219.069 127.103,175.902 129,112.5C 134.996,61.8424 161.496,26.6757 208.5,7C 218.095,3.68558 227.762,1.18558 237.5,-0.5 Z"/></g>
<g><path fill="#414042" d="M 296.5,511.5 C 270.5,511.5 244.5,511.5 218.5,511.5C 184.08,509.747 149.747,505.913 115.5,500C 79.8996,488.399 58.3996,464.232 51,427.5C 49.1861,410.338 48.3528,393.171 48.5,376C 48.4726,310.028 81.4726,277.695 147.5,279C 225.52,275.394 303.52,275.728 381.5,280C 415.934,281.289 440.434,297.456 455,328.5C 457.294,335.01 458.961,341.677 460,348.5C 462.946,375.863 462.612,403.196 459,430.5C 450.174,467.681 427.341,491.181 390.5,501C 359.202,506.161 327.869,509.661 296.5,511.5 Z"/></g>
</svg>
