<?xml version="1.0" encoding="UTF-8"?>
<!DOCTYPE svg PUBLIC "-//W3C//DTD SVG 1.1//EN" "http://www.w3.org/Graphics/SVG/1.1/DTD/svg11.dtd">
<svg xmlns="http://www.w3.org/2000/svg" version="1.1" width="800px" height="800px" style="shape-rendering:geometricPrecision; text-rendering:geometricPrecision; image-rendering:optimizeQuality; fill-rule:evenodd; clip-rule:evenodd" xmlns:xlink="http://www.w3.org/1999/xlink">
<g><path fill="#ffffff" d="M 553.5,72.5 C 562.754,71.203 568.921,74.8696 572,83.5C 572.667,90.5 572.667,97.5 572,104.5C 567.757,115.952 559.757,120.286 548,117.5C 545.684,117.934 543.684,118.934 542,120.5C 539.32,126.231 538.32,132.231 539,138.5C 541.688,140.385 544.522,140.718 547.5,139.5C 555.118,140.301 562.784,140.801 570.5,141C 576.1,141.541 579.934,144.374 582,149.5C 582.717,159.682 582.551,169.849 581.5,180C 581.599,184.455 582.599,188.621 584.5,192.5C 587.612,193.125 590.779,193.459 594,193.5C 608.489,191.333 622.989,191.167 637.5,193C 640.288,193.726 641.788,195.56 642,198.5C 642.315,201.372 642.815,204.205 643.5,207C 643.265,207.873 642.931,208.707 642.5,209.5C 638.198,210.364 633.864,211.03 629.5,211.5C 609.911,210.733 590.245,210.567 570.5,211C 555.338,212.25 540.172,213.416 525,214.5C 481.956,214.625 438.956,212.958 396,209.5C 374.036,210.401 352.036,211.735 330,213.5C 326.447,213.463 322.947,213.13 319.5,212.5C 318.336,205.858 318.169,199.192 319,192.5C 319.465,191.069 320.299,189.903 321.5,189C 326.851,188.39 332.184,188.557 337.5,189.5C 343.189,188.437 348.856,187.27 354.5,186C 366.37,185.747 378.203,185.58 390,185.5C 398.803,187.6 407.636,189.6 416.5,191.5C 418.299,191.423 419.966,190.923 421.5,190C 423.505,186.984 424.505,183.651 424.5,180C 422.317,170.558 422.15,161.058 424,151.5C 424.5,150.333 425.333,149.5 426.5,149C 449.956,144.747 473.623,142.747 497.5,143C 505.791,141.312 514.124,139.979 522.5,139C 523.333,138.167 524.167,137.333 525,136.5C 527.139,131.084 529.472,125.751 532,120.5C 532.667,119.167 532.667,117.833 532,116.5C 525,111.833 518,107.167 511,102.5C 507.295,96.5779 507.795,91.0779 512.5,86C 517.167,83 521.833,80 526.5,77C 530.152,76.1029 533.819,75.2696 537.5,74.5C 540.697,75.3991 543.864,76.3991 547,77.5C 549.912,76.7488 552.079,75.0821 553.5,72.5 Z"/></g>
<g><path fill="#ffffff" d="M 386.5,219.5 C 419.853,221.855 453.186,223.855 486.5,225.5C 521.013,225.122 555.513,223.456 590,220.5C 597.007,221.723 604.007,221.723 611,220.5C 621.109,221.981 631.276,222.814 641.5,223C 642,223.5 642.5,224 643,224.5C 644.02,234.167 645.186,243.834 646.5,253.5C 645.063,260.097 644.063,266.764 643.5,273.5C 644.165,296.182 644.165,318.849 643.5,341.5C 645.7,356.941 646.033,372.441 644.5,388C 645.943,396.206 646.276,404.372 645.5,412.5C 646.184,431.353 648.351,450.019 652,468.5C 654.045,483.534 653.878,498.534 651.5,513.5C 653.011,522.433 654.011,531.433 654.5,540.5C 653.934,551.278 654.267,562.111 655.5,573C 653.487,584.635 653.487,596.302 655.5,608C 655.048,627.455 652.715,646.621 648.5,665.5C 648.97,675.145 649.303,684.812 649.5,694.5C 648.229,700.481 647.062,706.481 646,712.5C 645.448,726.587 644.115,740.587 642,754.5C 641.735,756.651 640.735,758.318 639,759.5C 623.19,760.312 607.357,760.479 591.5,760C 585.431,761.468 579.431,763.135 573.5,765C 568.643,765.307 563.81,765.807 559,766.5C 555.65,765.98 553.816,763.98 553.5,760.5C 554.342,753.542 555.009,746.542 555.5,739.5C 554.877,714.516 554.543,689.516 554.5,664.5C 554.837,657.635 555.504,650.801 556.5,644C 556.691,642.027 556.024,640.527 554.5,639.5C 551.736,640.761 549.403,642.595 547.5,645C 531.167,645.667 514.833,645.667 498.5,645C 494.961,644.718 491.461,644.218 488,643.5C 469.54,645.221 451.04,646.721 432.5,648C 428.659,648.876 424.993,650.209 421.5,652C 419.045,657.249 417.212,662.749 416,668.5C 414.535,677.156 413.202,685.822 412,694.5C 410.415,719.828 409.081,745.161 408,770.5C 406.649,772.01 404.982,773.01 403,773.5C 398.7,772.671 394.366,772.004 390,771.5C 385.853,772.406 381.686,772.573 377.5,772C 362.909,770.701 348.575,768.034 334.5,764C 332.667,763.5 331.5,762.333 331,760.5C 330.246,744.821 330.413,729.154 331.5,713.5C 331.079,708.464 330.412,703.464 329.5,698.5C 331.178,678.41 333.511,658.41 336.5,638.5C 336.547,620.195 336.547,601.861 336.5,583.5C 337.25,566.167 338.083,548.833 339,531.5C 340.637,527.708 342.47,524.041 344.5,520.5C 343.639,517.473 342.139,514.806 340,512.5C 335.558,482.345 331.058,452.179 326.5,422C 326.603,420.439 326.937,418.939 327.5,417.5C 324.998,406.22 324.164,394.887 325,383.5C 321.715,373.799 319.715,363.799 319,353.5C 317.027,347.718 315.193,341.884 313.5,336C 314.167,331.667 314.833,327.333 315.5,323C 314.153,316.579 313.487,310.079 313.5,303.5C 314.75,290.998 314.75,278.498 313.5,266C 314.929,253.211 315.762,240.378 316,227.5C 316.5,226.333 317.333,225.5 318.5,225C 341.479,223.705 364.145,221.872 386.5,219.5 Z M 495.5,230.5 C 508.323,230.663 518.49,235.996 526,246.5C 534.555,261.586 536.722,277.419 532.5,294C 529.166,295.212 526.666,294.379 525,291.5C 523.887,284.467 523.721,277.467 524.5,270.5C 521.979,255.992 513.979,245.992 500.5,240.5C 495.257,241.046 491.424,243.712 489,248.5C 480.962,262.616 475.295,277.616 472,293.5C 466.497,294.855 463.664,292.522 463.5,286.5C 465.865,268.777 472.365,252.777 483,238.5C 486.671,234.923 490.838,232.256 495.5,230.5 Z M 594.5,235.5 C 606.069,234.869 615.235,239.202 622,248.5C 624.774,255.595 626.607,262.928 627.5,270.5C 626.535,279.488 625.701,288.488 625,297.5C 623.475,300.087 621.308,300.92 618.5,300C 617.144,297.602 615.977,295.102 615,292.5C 615.38,282.515 615.38,272.515 615,262.5C 613.711,249.431 606.545,243.931 593.5,246C 590.438,247.061 587.938,248.894 586,251.5C 579.412,265.265 574.412,279.598 571,294.5C 569.271,297.703 566.604,299.703 563,300.5C 560.118,299.553 558.952,297.553 559.5,294.5C 560.725,285.6 562.892,276.934 566,268.5C 571.19,260.12 575.857,251.454 580,242.5C 584.232,238.712 589.065,236.379 594.5,235.5 Z M 371.5,240.5 C 380.848,240.668 390.181,241.168 399.5,242C 406.667,243.833 411.167,248.333 413,255.5C 414.812,265.78 415.978,276.114 416.5,286.5C 415.349,291.252 412.349,292.752 407.5,291C 405.18,284.516 404.847,277.849 406.5,271C 405.507,260.187 399.841,253.687 389.5,251.5C 383.865,252.55 378.198,253.384 372.5,254C 369.461,254.353 366.795,255.52 364.5,257.5C 360.946,261.942 358.446,266.942 357,272.5C 355.871,278.479 354.871,284.479 354,290.5C 352.492,294.674 350.159,295.341 347,292.5C 343.932,283.162 343.932,273.829 347,264.5C 351.406,257.424 356.572,250.924 362.5,245C 365.437,243.199 368.437,241.699 371.5,240.5 Z M 555.5,344.5 C 572.141,346.486 588.808,347.319 605.5,347C 610.075,352.057 609.242,355.891 603,358.5C 589.308,357.959 575.641,356.959 562,355.5C 552.68,356.266 543.347,356.933 534,357.5C 518.814,356.72 503.647,356.387 488.5,356.5C 465.796,359.875 442.963,361.875 420,362.5C 414.013,362.494 408.013,362.161 402,361.5C 387.667,362.5 373.333,363.5 359,364.5C 354.794,363.407 353.461,360.74 355,356.5C 355.903,355.299 357.069,354.465 358.5,354C 381.278,351.453 404.111,350.619 427,351.5C 447.285,350.599 467.452,348.599 487.5,345.5C 489.659,345.88 491.826,346.213 494,346.5C 514.656,345.873 535.156,345.207 555.5,344.5 Z M 605.5,392.5 C 612.646,390.485 616.146,393.152 616,400.5C 616.784,415.526 616.45,430.526 615,445.5C 614.496,449.02 612.663,451.52 609.5,453C 596.547,455.008 583.88,453.842 571.5,449.5C 570.544,448.135 569.878,446.635 569.5,445C 571.77,436.084 572.104,427.084 570.5,418C 568.682,410.302 571.349,404.969 578.5,402C 587.738,399.09 596.738,395.923 605.5,392.5 Z M 495.5,401.5 C 503.088,401.637 510.421,403.137 517.5,406C 519.667,406.833 521.167,408.333 522,410.5C 522.5,414 523,417.5 523.5,421C 522.318,433.218 521.152,445.385 520,457.5C 511.98,459.224 503.814,460.39 495.5,461C 485.977,461.232 476.477,461.732 467,462.5C 460.215,461.711 457.049,457.878 457.5,451C 457.351,437.146 457.351,423.313 457.5,409.5C 459.795,407.52 462.461,406.353 465.5,406C 475.92,406.312 485.92,404.812 495.5,401.5 Z M 385.5,406.5 C 393.208,406.358 400.875,406.858 408.5,408C 410.888,408.303 413.055,409.137 415,410.5C 418.31,426.36 418.977,442.36 417,458.5C 416.626,459.416 416.126,460.25 415.5,461C 400.279,463.977 384.945,464.311 369.5,462C 367.714,461.215 366.214,460.049 365,458.5C 365.83,446.701 366.663,434.867 367.5,423C 367.481,419.582 367.147,416.249 366.5,413C 367.227,411.601 367.727,410.101 368,408.5C 373.933,407.852 379.766,407.186 385.5,406.5 Z M 565.5,510.5 C 569.764,511.621 574.098,512.621 578.5,513.5C 590.098,511.603 601.765,511.103 613.5,512C 615.223,512.775 616.223,514.108 616.5,516C 615.204,520.071 614.371,524.238 614,528.5C 613.667,541.833 613.333,555.167 613,568.5C 612.564,574.313 609.397,577.313 603.5,577.5C 593.814,576.712 584.147,575.545 574.5,574C 570.025,572.845 565.858,571.012 562,568.5C 560.899,564.448 560.399,560.281 560.5,556C 561.114,541.838 561.614,527.671 562,513.5C 562.985,512.186 564.152,511.186 565.5,510.5 Z M 496.5,519.5 C 500.273,519.263 503.94,519.763 507.5,521C 509.333,521.5 510.5,522.667 511,524.5C 511.976,537.158 512.809,549.824 513.5,562.5C 514.558,569.205 512.891,575.038 508.5,580C 507.5,580.333 506.5,580.667 505.5,581C 493.455,581.272 481.455,580.605 469.5,579C 468.667,578.167 467.833,577.333 467,576.5C 466.833,570.5 466.667,564.5 466.5,558.5C 466.279,547.394 467.113,536.394 469,525.5C 469.5,525 470,524.5 470.5,524C 479.407,523.086 488.074,521.586 496.5,519.5 Z M 419.5,528.5 C 423.881,527.534 426.881,529.034 428.5,533C 428.589,548.217 427.755,563.383 426,578.5C 410.469,586.306 394.302,587.806 377.5,583C 376.809,581.933 376.309,580.766 376,579.5C 375.54,564.427 374.54,549.427 373,534.5C 373.833,533.667 374.667,532.833 375.5,532C 390.378,531.506 405.045,530.339 419.5,528.5 Z"/></g>
<g><path fill="#ffffff" d="M 186.5,353.5 C 195.387,355.173 202.721,359.673 208.5,367C 224.167,378 239.833,389 255.5,400C 264.919,409.533 275.252,417.866 286.5,425C 301.823,439.641 313.99,456.474 323,475.5C 327.24,488.223 328.74,501.223 327.5,514.5C 326.148,515.896 324.481,516.563 322.5,516.5C 293.709,516.187 264.876,516.187 236,516.5C 216.531,514.991 197.031,513.824 177.5,513C 153.016,508.102 128.349,507.102 103.5,510C 94.4926,511.278 85.4926,512.445 76.5,513.5C 63.8406,513.539 51.174,513.205 38.5,512.5C 38.1667,511.833 37.8333,511.167 37.5,510.5C 41.0291,504.461 45.5291,499.127 51,494.5C 60.1631,480.662 70.8298,467.995 83,456.5C 85.3333,453.167 87.6667,449.833 90,446.5C 108.811,429.355 126.644,411.189 143.5,392C 157.756,378.902 172.089,366.069 186.5,353.5 Z M 185.5,405.5 C 187.527,405.338 189.527,405.505 191.5,406C 203.21,411.852 213.876,419.185 223.5,428C 244.271,441.107 264.771,454.607 285,468.5C 286.65,473.068 285.15,475.734 280.5,476.5C 255.123,461.295 230.123,445.462 205.5,429C 198.286,422.785 190.786,416.951 183,411.5C 182.333,410.5 182.333,409.5 183,408.5C 184.045,407.627 184.878,406.627 185.5,405.5 Z M 137.5,433.5 C 158.254,445.045 179.587,455.878 201.5,466C 208.504,470.758 208.171,474.591 200.5,477.5C 194.554,475.194 188.888,472.361 183.5,469C 166.281,462.976 150.448,454.476 136,443.5C 133.857,439.765 134.357,436.432 137.5,433.5 Z M 104.5,461.5 C 111.617,461.308 117.45,463.974 122,469.5C 124.295,472.797 126.962,475.797 130,478.5C 131.982,487.443 128.815,490.276 120.5,487C 114.301,481.136 108.468,474.969 103,468.5C 102.167,465.829 102.667,463.496 104.5,461.5 Z"/></g>
<g><path fill="#ffffff" d="M 127.5,518.5 C 159.758,521.976 192.091,524.976 224.5,527.5C 227.822,527.056 231.155,526.723 234.5,526.5C 251.824,527.36 269.157,528.027 286.5,528.5C 294.9,528.609 303.233,527.942 311.5,526.5C 316.149,527.15 320.816,527.65 325.5,528C 327.099,529.066 328.099,530.566 328.5,532.5C 327.473,538.271 326.806,544.104 326.5,550C 327.357,556.824 327.524,563.657 327,570.5C 326.425,573.797 324.425,575.464 321,575.5C 309.385,573.218 297.719,572.552 286,573.5C 272.561,572.04 259.061,571.207 245.5,571C 230.227,568.806 214.893,567.139 199.5,566C 177.317,565.529 155.151,564.696 133,563.5C 99.4635,566.194 65.9635,566.027 32.5,563C 30.0067,561.675 28.84,559.509 29,556.5C 28.1245,547.294 29.1245,538.294 32,529.5C 32.7845,527.714 33.9512,526.214 35.5,525C 44.3491,524.304 53.1825,524.47 62,525.5C 83.9334,522.788 105.767,520.454 127.5,518.5 Z"/></g>
<g><path fill="#ffffff" d="M 40.5,574.5 C 46.509,575.035 52.509,575.701 58.5,576.5C 70.8271,575.377 83.1604,575.377 95.5,576.5C 103.558,576.49 111.558,575.823 119.5,574.5C 140.523,575.112 161.523,576.112 182.5,577.5C 185.813,576.978 189.146,576.644 192.5,576.5C 209.13,577.532 225.63,579.532 242,582.5C 244.477,582.002 246.977,581.669 249.5,581.5C 265.464,582.967 281.464,583.8 297.5,584C 306.593,584.595 315.593,585.761 324.5,587.5C 325.192,588.025 325.692,588.692 326,589.5C 326.783,600.557 326.283,611.557 324.5,622.5C 325.022,625.813 325.356,629.146 325.5,632.5C 323.306,652.69 320.973,672.856 318.5,693C 319.229,711.345 319.562,729.679 319.5,748C 319.612,752.944 319.112,757.777 318,762.5C 313.942,765.3 309.442,767.134 304.5,768C 288.601,770.433 272.768,773.266 257,776.5C 250.433,775.569 247.933,771.736 249.5,765C 250.058,749.296 250.058,733.629 249.5,718C 250.328,714.535 250.994,711.035 251.5,707.5C 250.699,695.177 250.533,682.844 251,670.5C 249.833,666.667 247.333,664.167 243.5,663C 236.491,663.5 229.491,663.333 222.5,662.5C 199.487,663.931 176.487,665.597 153.5,667.5C 146.824,665.762 140.657,666.762 135,670.5C 133.681,693.174 131.848,715.841 129.5,738.5C 130.113,748.677 130.446,758.843 130.5,769C 130.833,771.667 129.833,773.667 127.5,775C 120.5,775.667 113.5,775.667 106.5,775C 89.6429,772.021 72.6429,770.354 55.5,770C 47.1819,768.338 38.8486,767.004 30.5,766C 25.0484,734.021 22.0484,701.688 21.5,669C 22.112,638.675 24.2787,608.508 28,578.5C 28.8333,577.667 29.6667,576.833 30.5,576C 34.0252,575.821 37.3586,575.321 40.5,574.5 Z"/></g>
<g><path fill="#ffffff" d="M 470.5,655.5 C 473.187,655.336 475.854,655.503 478.5,656C 480.286,656.196 481.619,657.029 482.5,658.5C 481.78,672.469 481.113,686.469 480.5,700.5C 481.027,705.021 481.694,709.521 482.5,714C 481.698,732.813 481.198,751.646 481,770.5C 479.448,771.966 477.614,772.966 475.5,773.5C 467.469,772.215 459.469,772.549 451.5,774.5C 441.874,773.291 432.207,772.458 422.5,772C 420.349,770.227 419.349,767.894 419.5,765C 420.042,753.453 421.042,741.953 422.5,730.5C 422.028,725.972 421.361,721.472 420.5,717C 422.457,699.115 424.624,681.282 427,663.5C 427.833,661.333 429.333,659.833 431.5,659C 444.733,658.759 457.733,657.593 470.5,655.5 Z"/></g>
<g><path fill="#ffffff" d="M 494.5,655.5 C 507.854,655.945 521.187,656.612 534.5,657.5C 537.68,656.388 540.514,657.054 543,659.5C 543.869,665.134 544.369,670.8 544.5,676.5C 544.192,699.034 544.192,721.534 544.5,744C 544.322,750.913 543.489,757.746 542,764.5C 541.5,766.333 540.333,767.5 538.5,768C 533.352,768.963 528.185,769.796 523,770.5C 512.958,770.487 502.958,770.154 493,769.5C 491.619,731.814 491.119,694.147 491.5,656.5C 492.791,656.737 493.791,656.404 494.5,655.5 Z"/></g>
<g><path fill="#ffffff" d="M 230.5,673.5 C 233.365,673.055 235.865,673.722 238,675.5C 239.207,681.28 240.04,687.113 240.5,693C 238.955,711.128 237.955,729.295 237.5,747.5C 238.221,753.661 238.888,759.828 239.5,766C 239.973,775.917 235.306,779.417 225.5,776.5C 220.812,776.408 216.145,776.075 211.5,775.5C 204.005,776.916 196.505,778.249 189,779.5C 174.178,778.761 159.344,778.261 144.5,778C 141.127,777.129 139.46,774.962 139.5,771.5C 141.335,741.103 143.502,710.77 146,680.5C 152.529,678.633 159.195,677.3 166,676.5C 180.772,675.523 195.606,675.523 210.5,676.5C 217.426,676.304 224.093,675.304 230.5,673.5 Z"/></g>
</svg>
