<?xml version="1.0" encoding="UTF-8"?>
<!DOCTYPE svg PUBLIC "-//W3C//DTD SVG 1.1//EN" "http://www.w3.org/Graphics/SVG/1.1/DTD/svg11.dtd">
<svg xmlns="http://www.w3.org/2000/svg" version="1.1" width="801px" height="800px" style="shape-rendering:geometricPrecision; text-rendering:geometricPrecision; image-rendering:optimizeQuality; fill-rule:evenodd; clip-rule:evenodd" xmlns:xlink="http://www.w3.org/1999/xlink">
<g><path style="opacity:0.962" fill="#f7724c" d="M 321.5,357.5 C 330.858,358.273 340.192,358.273 349.5,357.5C 365.112,360.894 380.779,364.061 396.5,367C 403.833,367.333 411.167,367.667 418.5,368C 430.202,370.189 441.869,372.522 453.5,375C 465.771,379.798 477.104,386.132 487.5,394C 490.648,395.605 493.981,396.605 497.5,397C 504.058,401.446 511.058,405.113 518.5,408C 520.854,411.884 522.688,416.051 524,420.5C 536.555,437.389 548.722,454.556 560.5,472C 578.678,476.381 597.012,480.048 615.5,483C 628.77,487.457 642.104,491.79 655.5,496C 660.945,497.888 665.945,500.555 670.5,504C 682.943,513.81 694.443,524.643 705,536.5C 708.214,545.26 712.214,553.594 717,561.5C 719.425,572.957 721.591,584.457 723.5,596C 723.206,600.854 722.706,605.688 722,610.5C 719.063,617.643 716.73,624.976 715,632.5C 711.308,636.232 706.808,637.899 701.5,637.5C 681.057,636.378 660.723,637.378 640.5,640.5C 636.744,640.537 633.078,640.037 629.5,639C 629,638.5 628.5,638 628,637.5C 625.283,625.741 622.283,614.075 619,602.5C 618.439,600.275 617.439,598.275 616,596.5C 604.61,585.081 590.777,578.748 574.5,577.5C 563.181,577.742 552.847,580.909 543.5,587C 516.913,593.926 502.079,611.093 499,638.5C 497.786,640.049 496.286,641.215 494.5,642C 481.513,643.026 468.513,643.859 455.5,644.5C 443.899,643.017 432.232,642.183 420.5,642C 397.448,636.432 374.448,636.765 351.5,643C 336.994,643.353 322.494,643.853 308,644.5C 303.111,644.489 298.277,643.989 293.5,643C 292.667,642.167 291.833,641.333 291,640.5C 290.871,634.086 290.204,627.753 289,621.5C 284.128,606.905 275.294,595.405 262.5,587C 259.595,585.714 256.595,584.714 253.5,584C 247.317,583.677 241.15,583.177 235,582.5C 215.414,586.376 196.914,593.209 179.5,603C 175.875,608.415 172.375,613.915 169,619.5C 167.037,626.006 166.037,632.673 166,639.5C 165.5,641.333 164.333,642.5 162.5,643C 157.565,644.302 152.565,643.969 147.5,642C 137.923,641.82 128.423,641.32 119,640.5C 108.219,645.259 98.8859,643.259 91,634.5C 87.4887,628.834 85.1554,622.834 84,616.5C 84.8333,615.667 85.6667,614.833 86.5,614C 96.0046,611.5 105.005,607.834 113.5,603C 124.615,592.736 126.449,580.902 119,567.5C 115.799,563.964 112.299,560.797 108.5,558C 98.142,553.437 87.642,549.27 77,545.5C 76.3623,544.391 75.8623,543.225 75.5,542C 76.7312,534.113 78.2312,526.279 80,518.5C 84.9857,505.695 91.1524,493.528 98.5,482C 99.8732,481.125 101.373,480.625 103,480.5C 113.854,481.637 124.687,482.97 135.5,484.5C 143.166,483.333 150.833,482.167 158.5,481C 161.418,477.528 161.085,474.528 157.5,472C 152.332,471.647 147.165,471.814 142,472.5C 130.436,472.092 118.936,471.259 107.5,470C 106.106,469.044 105.439,467.711 105.5,466C 106.299,461.9 107.799,458.066 110,454.5C 114.867,449.968 119.367,445.134 123.5,440C 129.783,437.876 136.116,435.876 142.5,434C 158.84,424.165 174.84,413.832 190.5,403C 207.658,394.255 224.658,385.255 241.5,376C 252.168,372.5 262.502,368.167 272.5,363C 288.896,360.296 305.23,358.462 321.5,357.5 Z M 278.5,399.5 C 306.114,399.993 333.781,400.493 361.5,401C 366.606,400.417 370.439,402.25 373,406.5C 373.561,414.033 374.394,421.533 375.5,429C 374.053,439.445 373.219,449.945 373,460.5C 372.803,463.692 371.97,466.692 370.5,469.5C 368.121,471.042 365.454,471.709 362.5,471.5C 341.175,470.511 319.841,469.678 298.5,469C 274.22,465.676 249.887,463.009 225.5,461C 218.372,460.539 214.705,456.873 214.5,450C 214.503,445.99 215.336,442.156 217,438.5C 221.874,429.247 227.374,420.413 233.5,412C 237.996,408.173 242.996,405.173 248.5,403C 258.593,401.346 268.593,400.18 278.5,399.5 Z M 403.5,406.5 C 433.705,407.628 462.872,413.628 491,424.5C 496.078,422.799 501.244,421.966 506.5,422C 510.279,425.779 514.113,429.613 518,433.5C 520.965,439.062 524.299,444.395 528,449.5C 535.251,462.466 531.751,470.299 517.5,473C 503.791,473.693 490.124,473.193 476.5,471.5C 470.022,472.64 463.522,473.64 457,474.5C 441.869,473.813 426.702,473.813 411.5,474.5C 406.12,474.464 400.786,473.964 395.5,473C 393.556,471.278 392.556,469.111 392.5,466.5C 393.964,448.086 396.13,429.753 399,411.5C 400.025,409.313 401.525,407.646 403.5,406.5 Z M 467.5,516.5 C 473.718,517.84 480.052,518.673 486.5,519C 487.91,519.368 488.91,520.201 489.5,521.5C 487.868,527.331 484.201,530.165 478.5,530C 475,527.833 471.5,525.667 468,523.5C 466.336,521.214 466.17,518.881 467.5,516.5 Z M 694.5,554.5 C 696.936,554.317 699.103,554.984 701,556.5C 704.983,565.08 706.65,574.08 706,583.5C 700.165,599.121 691.498,601.121 680,589.5C 674.007,579.47 674.007,569.47 680,559.5C 683.342,556.373 687.176,555.539 691.5,557C 692.571,556.148 693.571,555.315 694.5,554.5 Z"/></g>
<g><path style="opacity:0.947" fill="#f7724c" d="M 75.5,558.5 C 88.669,559.838 100.169,564.838 110,573.5C 115.292,581.707 114.126,588.873 106.5,595C 100.088,598.193 93.4213,600.693 86.5,602.5C 82.4154,601.034 80.2487,598.034 80,593.5C 79.3333,587.5 78.6667,581.5 78,575.5C 77.5621,572.624 76.5621,569.957 75,567.5C 74.2642,564.408 74.4309,561.408 75.5,558.5 Z"/></g>
<g><path style="opacity:0.85" fill="#f7724c" d="M 689.5,563.5 C 695.607,568.583 697.107,574.917 694,582.5C 692,586.5 690,586.5 688,582.5C 686.97,575.959 687.47,569.626 689.5,563.5 Z"/></g>
<g><path style="opacity:0.947" fill="#f7724c" d="M 563.5,588.5 C 582.956,585.819 598.122,592.485 609,608.5C 611.587,617.352 614.087,626.185 616.5,635C 615.028,645.856 613.195,656.69 611,667.5C 605.773,677.069 597.94,683.236 587.5,686C 572.128,690.157 556.795,690.157 541.5,686C 531.527,680.696 524.361,672.862 520,662.5C 518.389,656.223 517.056,649.89 516,643.5C 513.194,641.713 511.694,639.213 511.5,636C 514.49,618.353 524.156,606.02 540.5,599C 548.496,595.999 556.162,592.499 563.5,588.5 Z M 554.5,620.5 C 561.535,621.112 568.535,621.112 575.5,620.5C 579.768,621.6 582.601,624.266 584,628.5C 585.515,638.271 583.349,647.104 577.5,655C 565.753,660.65 554.086,660.65 542.5,655C 531.899,644.794 532.233,634.794 543.5,625C 547.157,623.178 550.824,621.678 554.5,620.5 Z"/></g>
<g><path style="opacity:0.964" fill="#f7724c" d="M 236.5,592.5 C 255.585,593.751 269.085,603.084 277,620.5C 279.145,628.047 279.811,635.713 279,643.5C 277.171,645.156 275.837,647.156 275,649.5C 273.988,655.907 272.655,662.24 271,668.5C 268.925,672.579 266.092,676.079 262.5,679C 242.673,690.024 222.006,692.024 200.5,685C 191.611,680.444 185.111,673.61 181,664.5C 179.313,655.355 177.813,646.189 176.5,637C 176.619,632.692 177.452,628.525 179,624.5C 183.882,616.617 190.382,610.451 198.5,606C 210.893,600.371 223.56,595.871 236.5,592.5 Z M 222.5,617.5 C 247.085,620.007 255.585,633.007 248,656.5C 243.073,666.826 234.906,670.659 223.5,668C 201.321,660.808 195.154,646.641 205,625.5C 206.214,623.951 207.714,622.785 209.5,622C 214.112,620.941 218.446,619.441 222.5,617.5 Z"/></g>
<g><path style="opacity:0.951" fill="#f7724c" d="M 222.5,628.5 C 241.225,630.621 245.392,639.621 235,655.5C 219.921,660.112 212.255,654.446 212,638.5C 214.081,633.584 217.581,630.25 222.5,628.5 Z"/></g>
<g><path style="opacity:0.895" fill="#f7724c" d="M 555.5,631.5 C 560.926,631.513 566.26,632.18 571.5,633.5C 574.765,641.638 572.098,646.972 563.5,649.5C 558.171,648.557 553.171,646.724 548.5,644C 545.648,641.847 545.148,639.347 547,636.5C 549.682,634.415 552.516,632.748 555.5,631.5 Z"/></g>
</svg>
