<?xml version="1.0" encoding="UTF-8"?>
<!DOCTYPE svg PUBLIC "-//W3C//DTD SVG 1.1//EN" "http://www.w3.org/Graphics/SVG/1.1/DTD/svg11.dtd">
<svg xmlns="http://www.w3.org/2000/svg" version="1.1" width="801px" height="800px" style="shape-rendering:geometricPrecision; text-rendering:geometricPrecision; image-rendering:optimizeQuality; fill-rule:evenodd; clip-rule:evenodd" xmlns:xlink="http://www.w3.org/1999/xlink">
<g><path style="opacity:0.94" fill="#f7724c" d="M 386.5,49.5 C 399.455,50.2965 412.455,50.7965 425.5,51C 427.815,52.1094 429.315,53.9427 430,56.5C 437.487,85.6313 444.153,114.965 450,144.5C 452.559,155.737 455.892,166.737 460,177.5C 461.015,185.76 462.515,193.927 464.5,202C 464.91,204.575 463.91,206.242 461.5,207C 420.372,207.364 379.206,207.53 338,207.5C 333.833,207.333 329.667,207.167 325.5,207C 321.896,205.666 320.729,203.166 322,199.5C 333.798,151.107 345.798,102.774 358,54.5C 358.5,52.6667 359.667,51.5 361.5,51C 370.01,50.8294 378.343,50.3294 386.5,49.5 Z"/></g>
<g><path style="opacity:0.981" fill="#f7724c" d="M 308.5,274.5 C 359.502,274.708 410.502,274.708 461.5,274.5C 468.623,274.646 475.623,275.48 482.5,277C 491.893,313.405 500.893,349.905 509.5,386.5C 508.226,388.812 506.226,390.145 503.5,390.5C 491.832,389.324 480.166,389.657 468.5,391.5C 452.004,390.765 435.504,390.098 419,389.5C 410.813,389.91 402.647,390.576 394.5,391.5C 378.004,390.765 361.504,390.098 345,389.5C 322.803,391.554 300.637,391.388 278.5,389C 277.409,386.936 277.242,384.769 278,382.5C 283.158,368.224 286.825,353.557 289,338.5C 294.662,320.852 298.662,302.852 301,284.5C 301.858,279.723 304.358,276.389 308.5,274.5 Z"/></g>
<g><path style="opacity:0.975" fill="#f7724c" d="M 327.5,456.5 C 332.948,457.492 338.448,458.159 344,458.5C 363.671,458.454 383.337,457.787 403,456.5C 407.932,457.633 412.932,458.3 418,458.5C 425.165,457.208 432.332,457.208 439.5,458.5C 452.026,457.959 464.526,457.293 477,456.5C 485.43,458.597 493.93,458.93 502.5,457.5C 510.152,458.192 517.819,458.692 525.5,459C 528.107,463.482 529.941,468.316 531,473.5C 540.671,514.879 550.338,556.213 560,597.5C 570.197,639.289 580.864,680.955 592,722.5C 592.5,723 593,723.5 593.5,724C 596.5,724.333 599.5,724.667 602.5,725C 626.047,725.454 649.547,725.287 673,724.5C 677.285,724.873 681.451,725.706 685.5,727C 686.443,742.447 686.943,757.947 687,773.5C 684.347,775.941 681.18,776.941 677.5,776.5C 494.324,775.588 311.158,775.588 128,776.5C 121.833,776.333 115.667,776.167 109.5,776C 107.048,775.71 104.715,775.044 102.5,774C 100.703,770.073 99.7033,765.906 99.5,761.5C 100.09,749.938 100.756,738.438 101.5,727C 111.918,725.796 122.418,724.963 133,724.5C 152.122,725.133 171.289,725.3 190.5,725C 191.931,724.535 193.097,723.701 194,722.5C 199.549,708.975 203.549,694.975 206,680.5C 211.546,666.317 215.212,651.65 217,636.5C 219.748,625.427 222.748,614.427 226,603.5C 226.594,597.825 227.26,592.158 228,586.5C 237.203,555.251 244.87,523.584 251,491.5C 253.395,480.918 256.562,470.585 260.5,460.5C 261.025,459.808 261.692,459.308 262.5,459C 272.169,457.747 281.836,457.581 291.5,458.5C 303.667,457.992 315.667,457.325 327.5,456.5 Z"/></g>
</svg>
