<?xml version="1.0" encoding="UTF-8"?>
<!DOCTYPE svg PUBLIC "-//W3C//DTD SVG 1.1//EN" "http://www.w3.org/Graphics/SVG/1.1/DTD/svg11.dtd">
<svg xmlns="http://www.w3.org/2000/svg" version="1.1" width="512px" height="512px" style="shape-rendering:geometricPrecision; text-rendering:geometricPrecision; image-rendering:optimizeQuality; fill-rule:evenodd; clip-rule:evenodd" xmlns:xlink="http://www.w3.org/1999/xlink">
<g><path fill="#ffffff" d="M 76.5,46.5 C 151.5,46.5 226.5,46.5 301.5,46.5C 301.5,57.1667 301.5,67.8333 301.5,78.5C 278.498,78.3334 255.498,78.5 232.5,79C 229.833,81.6667 229.833,84.3333 232.5,87C 238.491,87.4995 244.491,87.6662 250.5,87.5C 250.5,101.5 250.5,115.5 250.5,129.5C 237.829,129.333 225.162,129.5 212.5,130C 211.299,130.903 210.465,132.069 210,133.5C 209.501,138.823 209.334,144.156 209.5,149.5C 173.498,149.333 137.498,149.5 101.5,150C 100.069,150.465 98.9025,151.299 98,152.5C 97.5001,165.162 97.3334,177.829 97.5,190.5C 90.5,190.5 83.5,190.5 76.5,190.5C 76.5,142.5 76.5,94.5 76.5,46.5 Z"/></g>
<g><path fill="#ffffff" d="M 259.5,87.5 C 287.167,87.5 314.833,87.5 342.5,87.5C 342.5,101.5 342.5,115.5 342.5,129.5C 314.833,129.5 287.167,129.5 259.5,129.5C 259.5,115.5 259.5,101.5 259.5,87.5 Z"/></g>
<g><path fill="#ffffff" d="M 416.5,92.5 C 419.961,92.1459 422.461,93.4792 424,96.5C 424.5,216.5 424.667,336.5 424.5,456.5C 356.176,457.516 287.843,457.516 219.5,456.5C 219.5,435.833 219.5,415.167 219.5,394.5C 268.834,394.667 318.168,394.5 367.5,394C 373.555,391.574 373.888,388.574 368.5,385C 318.834,384.5 269.168,384.333 219.5,384.5C 219.5,370.5 219.5,356.5 219.5,342.5C 269.834,342.667 320.168,342.5 370.5,342C 373.153,338.61 372.486,335.943 368.5,334C 318.834,333.5 269.168,333.333 219.5,333.5C 219.5,319.5 219.5,305.5 219.5,291.5C 269.834,291.667 320.168,291.5 370.5,291C 373.07,288.085 372.737,285.419 369.5,283C 319.501,282.5 269.501,282.333 219.5,282.5C 219.5,268.5 219.5,254.5 219.5,240.5C 269.501,240.667 319.501,240.5 369.5,240C 373.29,237.497 373.29,234.83 369.5,232C 319.501,231.5 269.501,231.333 219.5,231.5C 219.5,200.5 219.5,169.5 219.5,138.5C 284.167,138.5 348.833,138.5 413.5,138.5C 413.333,123.83 413.5,109.163 414,94.5C 414.995,93.9341 415.828,93.2674 416.5,92.5 Z"/></g>
<g><path fill="#ffffff" d="M 488.5,92.5 C 491.325,92.0807 493.491,93.0807 495,95.5C 495.667,216.5 495.667,337.5 495,458.5C 491.714,462.485 488.381,462.485 485,458.5C 484.501,452.509 484.334,446.509 484.5,440.5C 475.161,440.666 465.827,440.5 456.5,440C 452.689,436.277 453.023,432.944 457.5,430C 466.494,429.5 475.494,429.334 484.5,429.5C 484.5,419.833 484.5,410.167 484.5,400.5C 475.827,400.666 467.16,400.5 458.5,400C 453.993,398.151 452.826,394.984 455,390.5C 456.067,389.809 457.234,389.309 458.5,389C 467.16,388.5 475.827,388.334 484.5,388.5C 484.5,378.833 484.5,369.167 484.5,359.5C 475.494,359.666 466.494,359.5 457.5,359C 453.023,356.056 452.689,352.723 456.5,349C 465.827,348.5 475.161,348.334 484.5,348.5C 484.5,338.5 484.5,328.5 484.5,318.5C 475.494,318.666 466.494,318.5 457.5,318C 453.023,315.056 452.689,311.723 456.5,308C 465.827,307.5 475.161,307.334 484.5,307.5C 484.5,297.5 484.5,287.5 484.5,277.5C 475.161,277.666 465.827,277.5 456.5,277C 452.776,273.596 452.776,270.263 456.5,267C 465.827,266.5 475.161,266.334 484.5,266.5C 484.5,256.5 484.5,246.5 484.5,236.5C 475.161,236.666 465.827,236.5 456.5,236C 452.776,232.737 452.776,229.404 456.5,226C 465.827,225.5 475.161,225.334 484.5,225.5C 484.5,215.5 484.5,205.5 484.5,195.5C 475.161,195.666 465.827,195.5 456.5,195C 452.689,191.277 453.023,187.944 457.5,185C 466.494,184.5 475.494,184.334 484.5,184.5C 484.5,174.5 484.5,164.5 484.5,154.5C 475.161,154.666 465.827,154.5 456.5,154C 452.689,150.277 453.023,146.944 457.5,144C 466.494,143.5 475.494,143.334 484.5,143.5C 484.333,127.497 484.5,111.497 485,95.5C 486.145,94.3636 487.312,93.3636 488.5,92.5 Z"/></g>
<g><path fill="#ffffff" d="M 106.5,159.5 C 140.833,159.5 175.167,159.5 209.5,159.5C 209.5,169.833 209.5,180.167 209.5,190.5C 175.167,190.5 140.833,190.5 106.5,190.5C 106.5,180.167 106.5,169.833 106.5,159.5 Z"/></g>
<g><path fill="#ffffff" d="M 55.5,200.5 C 106.833,200.5 158.167,200.5 209.5,200.5C 209.5,210.833 209.5,221.167 209.5,231.5C 203.824,231.334 198.157,231.501 192.5,232C 189.083,234.321 188.75,236.988 191.5,240C 197.491,240.499 203.491,240.666 209.5,240.5C 209.5,254.5 209.5,268.5 209.5,282.5C 203.824,282.334 198.157,282.501 192.5,283C 189.068,285.367 188.735,288.034 191.5,291C 197.491,291.499 203.491,291.666 209.5,291.5C 209.5,305.5 209.5,319.5 209.5,333.5C 203.824,333.334 198.157,333.501 192.5,334C 189.068,336.367 188.735,339.034 191.5,342C 197.491,342.499 203.491,342.666 209.5,342.5C 209.5,356.5 209.5,370.5 209.5,384.5C 204.156,384.334 198.823,384.501 193.5,385C 187.985,388.612 188.318,391.612 194.5,394C 199.489,394.499 204.489,394.666 209.5,394.5C 209.5,404.833 209.5,415.167 209.5,425.5C 195.5,425.5 181.5,425.5 167.5,425.5C 167.667,405.831 167.5,386.164 167,366.5C 166.5,366 166,365.5 165.5,365C 143.833,364.333 122.167,364.333 100.5,365C 99.6919,365.308 99.0253,365.808 98.5,366.5C 97.5123,386.12 97.179,405.787 97.5,425.5C 83.5,425.5 69.5,425.5 55.5,425.5C 55.5,350.5 55.5,275.5 55.5,200.5 Z M 82.5,226.5 C 88.8333,226.5 95.1667,226.5 101.5,226.5C 101.5,232.833 101.5,239.167 101.5,245.5C 95.1667,245.5 88.8333,245.5 82.5,245.5C 82.5,239.167 82.5,232.833 82.5,226.5 Z M 112.5,226.5 C 119.167,226.5 125.833,226.5 132.5,226.5C 132.5,232.833 132.5,239.167 132.5,245.5C 125.833,245.5 119.167,245.5 112.5,245.5C 112.5,239.167 112.5,232.833 112.5,226.5 Z M 143.5,226.5 C 149.833,226.5 156.167,226.5 162.5,226.5C 162.5,232.833 162.5,239.167 162.5,245.5C 156.167,245.5 149.833,245.5 143.5,245.5C 143.5,239.167 143.5,232.833 143.5,226.5 Z"/></g>
<g><path fill="#ffffff" d="M 106.5,373.5 C 123.833,373.5 141.167,373.5 158.5,373.5C 158.5,390.833 158.5,408.167 158.5,425.5C 141.167,425.5 123.833,425.5 106.5,425.5C 106.5,408.167 106.5,390.833 106.5,373.5 Z"/></g>
<g><path fill="#ffffff" d="M 14.5,434.5 C 79.5,434.5 144.5,434.5 209.5,434.5C 209.5,441.833 209.5,449.167 209.5,456.5C 144.5,456.5 79.5,456.5 14.5,456.5C 14.5,449.167 14.5,441.833 14.5,434.5 Z"/></g>
</svg>
