<?xml version="1.0" encoding="UTF-8"?>
<!DOCTYPE svg PUBLIC "-//W3C//DTD SVG 1.1//EN" "http://www.w3.org/Graphics/SVG/1.1/DTD/svg11.dtd">
<svg xmlns="http://www.w3.org/2000/svg" version="1.1" width="512px" height="512px" style="shape-rendering:geometricPrecision; text-rendering:geometricPrecision; image-rendering:optimizeQuality; fill-rule:evenodd; clip-rule:evenodd" xmlns:xlink="http://www.w3.org/1999/xlink">
<g><path fill="#ffffff" d="M 165.5,-0.5 C 178.167,-0.5 190.833,-0.5 203.5,-0.5C 273.861,10.3567 322.695,48.69 350,114.5C 363.795,155.761 363.961,197.094 350.5,238.5C 303.347,235.989 267.513,254.656 243,294.5C 222.713,335.571 225.546,374.904 251.5,412.5C 232.801,443.369 214.301,474.369 196,505.5C 193.886,508.121 191.386,510.121 188.5,511.5C 184.833,511.5 181.167,511.5 177.5,511.5C 174.614,510.121 172.114,508.121 170,505.5C 124.919,428.335 79.5854,351.335 34,274.5C -1.1503,210.382 -1.1503,146.382 34,82.5C 65.2261,34.9646 109.059,7.29797 165.5,-0.5 Z M 179.5,104.5 C 214.079,104.606 238.579,120.273 253,151.5C 264.327,187.512 255.16,217.012 225.5,240C 195.299,257.753 165.966,256.42 137.5,236C 108.517,208.267 103.017,176.434 121,140.5C 134.948,119.444 154.448,107.444 179.5,104.5 Z"/></g>
<g><path fill="#ffffff" d="M 327.5,267.5 C 367.949,264.957 396.449,281.957 413,318.5C 425.066,358.638 414.233,390.805 380.5,415C 353.007,429.935 325.34,430.268 297.5,416C 264.432,393.48 252.599,362.647 262,323.5C 272.99,292 294.824,273.334 327.5,267.5 Z"/></g>
<g><path fill="#ffffff" d="M 493.5,511.5 C 489.833,511.5 486.167,511.5 482.5,511.5C 455.781,486.283 429.448,460.45 403.5,434C 411.344,427.322 418.677,420.156 425.5,412.5C 450.486,436.986 475.32,461.653 500,486.5C 505.477,496.93 503.31,505.264 493.5,511.5 Z"/></g>
</svg>
