<?xml version="1.0" encoding="UTF-8"?>
<!DOCTYPE svg PUBLIC "-//W3C//DTD SVG 1.1//EN" "http://www.w3.org/Graphics/SVG/1.1/DTD/svg11.dtd">
<svg xmlns="http://www.w3.org/2000/svg" version="1.1" width="512px" height="512px" style="shape-rendering:geometricPrecision; text-rendering:geometricPrecision; image-rendering:optimizeQuality; fill-rule:evenodd; clip-rule:evenodd" xmlns:xlink="http://www.w3.org/1999/xlink">
<g><path fill="#ffffff" d="M 511.5,133.5 C 511.5,137.167 511.5,140.833 511.5,144.5C 509.814,147.703 507.481,150.536 504.5,153C 421.5,194.5 338.5,236 255.5,277.5C 172.5,236 89.5,194.5 6.5,153C 3.51895,150.536 1.18562,147.703 -0.5,144.5C -0.5,140.833 -0.5,137.167 -0.5,133.5C 1.18562,130.297 3.51895,127.464 6.5,125C 87.1667,84.6667 167.833,44.3333 248.5,4C 253.167,2 257.833,2 262.5,4C 343.167,44.3333 423.833,84.6667 504.5,125C 507.481,127.464 509.814,130.297 511.5,133.5 Z"/></g>
<g><path fill="#ffffff" d="M 511.5,249.5 C 511.5,253.5 511.5,257.5 511.5,261.5C 510.121,264.386 508.121,266.886 505.5,269C 422.285,310.774 338.952,352.274 255.5,393.5C 172.715,352.607 90.0482,311.441 7.5,270C 3.92315,267.926 1.25648,265.093 -0.5,261.5C -0.5,257.5 -0.5,253.5 -0.5,249.5C 0.879222,246.614 2.87922,244.114 5.5,242C 24.0489,232.559 42.7155,223.392 61.5,214.5C 124.952,245.726 188.285,277.226 251.5,309C 254.167,309.667 256.833,309.667 259.5,309C 322.715,277.226 386.048,245.726 449.5,214.5C 468.284,223.392 486.951,232.559 505.5,242C 508.121,244.114 510.121,246.614 511.5,249.5 Z"/></g>
<g><path fill="#ffffff" d="M 511.5,366.5 C 511.5,370.167 511.5,373.833 511.5,377.5C 509.814,380.703 507.481,383.536 504.5,386C 423.833,426.333 343.167,466.667 262.5,507C 257.833,509 253.167,509 248.5,507C 167.833,466.667 87.1667,426.333 6.5,386C 3.51895,383.536 1.18562,380.703 -0.5,377.5C -0.5,373.833 -0.5,370.167 -0.5,366.5C 1.18562,363.297 3.51895,360.464 6.5,358C 24.8333,348.833 43.1667,339.667 61.5,330.5C 125.93,363.049 190.597,395.049 255.5,426.5C 320.403,395.049 385.07,363.049 449.5,330.5C 467.833,339.667 486.167,348.833 504.5,358C 507.481,360.464 509.814,363.297 511.5,366.5 Z"/></g>
</svg>
