<?xml version="1.0" encoding="UTF-8"?>
<!DOCTYPE svg PUBLIC "-//W3C//DTD SVG 1.1//EN" "http://www.w3.org/Graphics/SVG/1.1/DTD/svg11.dtd">
<svg xmlns="http://www.w3.org/2000/svg" version="1.1" width="512px" height="512px" style="shape-rendering:geometricPrecision; text-rendering:geometricPrecision; image-rendering:optimizeQuality; fill-rule:evenodd; clip-rule:evenodd" xmlns:xlink="http://www.w3.org/1999/xlink">
<g><path fill="#ffffff" d="M 90.5,-0.5 C 100.167,-0.5 109.833,-0.5 119.5,-0.5C 169.148,9.64783 198.981,39.6478 209,89.5C 209.667,99.5 209.667,109.5 209,119.5C 207.485,126.542 206.152,133.542 205,140.5C 260.167,195.667 315.333,250.833 370.5,306C 383.037,303.901 395.703,302.401 408.5,301.5C 453.11,303.969 484.943,325.302 504,365.5C 507.149,374.114 509.649,382.781 511.5,391.5C 511.5,401.167 511.5,410.833 511.5,420.5C 510.243,426.562 508.41,432.562 506,438.5C 499.422,445.75 491.922,446.917 483.5,442C 469.167,427.667 454.833,413.333 440.5,399C 426.975,388.937 413.641,389.27 400.5,400C 389.199,413.106 388.699,426.606 399,440.5C 413.333,454.833 427.667,469.167 442,483.5C 446.912,491.94 445.746,499.44 438.5,506C 432.562,508.41 426.562,510.243 420.5,511.5C 410.833,511.5 401.167,511.5 391.5,511.5C 343.029,501.863 313.529,472.863 303,424.5C 302.434,419.173 301.934,413.839 301.5,408.5C 302.401,395.703 303.901,383.037 306,370.5C 250.833,315.333 195.667,260.167 140.5,205C 128.125,207.052 115.625,208.552 103,209.5C 57.7142,207.179 25.7142,185.513 7,144.5C 3.69181,135.587 1.19181,126.587 -0.5,117.5C -0.5,109.5 -0.5,101.5 -0.5,93.5C 0.621601,86.4235 2.45493,79.4235 5,72.5C 11.5899,65.309 19.0899,64.1423 27.5,69C 41.5,83 55.5,97 69.5,111C 84.0698,122.555 98.2365,122.055 112,109.5C 120.696,98.5129 121.696,86.8462 115,74.5C 100.362,58.8619 85.3625,43.5286 70,28.5C 66.1574,22.576 65.4907,16.2427 68,9.5C 70.2643,6.56655 73.0976,4.39988 76.5,3C 81.3677,2.11646 86.0344,0.949793 90.5,-0.5 Z"/></g>
<g><path fill="#ffffff" d="M 465.5,-0.5 C 468.833,-0.5 472.167,-0.5 475.5,-0.5C 477.568,0.374833 479.568,1.5415 481.5,3C 490.333,11.8333 499.167,20.6667 508,29.5C 509.459,31.4319 510.625,33.4319 511.5,35.5C 511.5,38.8333 511.5,42.1667 511.5,45.5C 495.039,73.0709 478.539,100.738 462,128.5C 456.808,135.009 450.308,136.842 442.5,134C 437.412,130.917 432.912,127.083 429,122.5C 395.833,155.667 362.667,188.833 329.5,222C 328.833,222.667 328.167,222.667 327.5,222C 313.667,208.167 299.833,194.333 286,180.5C 285.333,179.833 285.333,179.167 286,178.5C 319.556,145.28 352.556,111.946 385,78.5C 373.589,69.3459 372.755,59.5126 382.5,49C 410.262,32.4606 437.929,15.9606 465.5,-0.5 Z"/></g>
<g><path fill="#ffffff" d="M 70.5,511.5 C 63.1667,511.5 55.8333,511.5 48.5,511.5C 22.4962,504.829 6.16282,488.496 -0.5,462.5C -0.5,455.167 -0.5,447.833 -0.5,440.5C 2.01482,430.8 6.18149,421.8 12,413.5C 61.3333,364.167 110.667,314.833 160,265.5C 188.5,294 217,322.5 245.5,351C 196.167,400.333 146.833,449.667 97.5,499C 89.2002,504.819 80.2002,508.985 70.5,511.5 Z M 164.5,331.5 C 174.915,330.589 180.915,335.255 182.5,345.5C 182.421,349.238 181.254,352.572 179,355.5C 148.167,386.333 117.333,417.167 86.5,448C 74.0794,454.124 66.0794,450.458 62.5,437C 63.0725,433.616 64.2392,430.449 66,427.5C 96.8333,396.667 127.667,365.833 158.5,335C 160.432,333.541 162.432,332.375 164.5,331.5 Z"/></g>
</svg>
