<?xml version="1.0" encoding="UTF-8"?>
<!DOCTYPE svg PUBLIC "-//W3C//DTD SVG 1.1//EN" "http://www.w3.org/Graphics/SVG/1.1/DTD/svg11.dtd">
<svg xmlns="http://www.w3.org/2000/svg" version="1.1" width="512px" height="512px" style="shape-rendering:geometricPrecision; text-rendering:geometricPrecision; image-rendering:optimizeQuality; fill-rule:evenodd; clip-rule:evenodd" xmlns:xlink="http://www.w3.org/1999/xlink">
<g><path style="opacity:0.974" fill="#ffffff" d="M -0.5,115.5 C -0.5,108.833 -0.5,102.167 -0.5,95.5C 11.4163,64.0468 33.4163,53.8802 65.5,65C 87.8315,79.3235 94.6648,99.1569 86,124.5C 74.9846,145.091 57.8179,153.591 34.5,150C 16.3183,144.984 4.65165,133.484 -0.5,115.5 Z"/></g>
<g><path style="opacity:0.995" fill="#ffffff" d="M 511.5,95.5 C 511.5,102.167 511.5,108.833 511.5,115.5C 506.348,133.484 494.682,144.984 476.5,150C 369.167,150.667 261.833,150.667 154.5,150C 128.233,141.32 116.733,123.153 120,95.5C 124.833,77.3333 136.333,65.8333 154.5,61C 261.833,60.3333 369.167,60.3333 476.5,61C 494.682,66.0157 506.348,77.5157 511.5,95.5 Z"/></g>
<g><path style="opacity:0.974" fill="#ffffff" d="M -0.5,265.5 C -0.5,258.833 -0.5,252.167 -0.5,245.5C 11.4163,214.047 33.4163,203.88 65.5,215C 87.8315,229.324 94.6648,249.157 86,274.5C 74.9846,295.091 57.8179,303.591 34.5,300C 16.3183,294.984 4.65165,283.484 -0.5,265.5 Z"/></g>
<g><path style="opacity:0.995" fill="#ffffff" d="M 511.5,245.5 C 511.5,252.167 511.5,258.833 511.5,265.5C 506.348,283.484 494.682,294.984 476.5,300C 369.167,300.667 261.833,300.667 154.5,300C 128.233,291.32 116.733,273.153 120,245.5C 124.833,227.333 136.333,215.833 154.5,211C 261.833,210.333 369.167,210.333 476.5,211C 494.682,216.016 506.348,227.516 511.5,245.5 Z"/></g>
<g><path style="opacity:0.974" fill="#ffffff" d="M -0.5,415.5 C -0.5,408.833 -0.5,402.167 -0.5,395.5C 11.4163,364.047 33.4163,353.88 65.5,365C 87.8315,379.324 94.6648,399.157 86,424.5C 74.9846,445.091 57.8179,453.591 34.5,450C 16.3183,444.984 4.65165,433.484 -0.5,415.5 Z"/></g>
<g><path style="opacity:0.995" fill="#ffffff" d="M 511.5,395.5 C 511.5,402.167 511.5,408.833 511.5,415.5C 506.348,433.484 494.682,444.984 476.5,450C 369.167,450.667 261.833,450.667 154.5,450C 128.233,441.32 116.733,423.153 120,395.5C 124.833,377.333 136.333,365.833 154.5,361C 261.833,360.333 369.167,360.333 476.5,361C 494.682,366.016 506.348,377.516 511.5,395.5 Z"/></g>
</svg>
