<?xml version="1.0" encoding="UTF-8"?>
<!DOCTYPE svg PUBLIC "-//W3C//DTD SVG 1.1//EN" "http://www.w3.org/Graphics/SVG/1.1/DTD/svg11.dtd">
<svg xmlns="http://www.w3.org/2000/svg" version="1.1" width="512px" height="512px" style="shape-rendering:geometricPrecision; text-rendering:geometricPrecision; image-rendering:optimizeQuality; fill-rule:evenodd; clip-rule:evenodd" xmlns:xlink="http://www.w3.org/1999/xlink">
<g><path fill="#414042" d="M 511.5,162.5 C 511.5,165.167 511.5,167.833 511.5,170.5C 499.188,168.741 486.855,167.075 474.5,165.5C 470.916,165.21 467.75,166.21 465,168.5C 461.736,164.618 457.57,162.451 452.5,162C 439.186,160.003 425.853,158.169 412.5,156.5C 408.854,156.428 405.354,157.095 402,158.5C 398.644,155.739 394.811,153.906 390.5,153C 366.986,149.593 343.486,146.093 320,142.5C 312.936,143.033 307.603,146.367 304,152.5C 302.865,167.782 302.365,183.115 302.5,198.5C 302.667,212.5 302.833,226.5 303,240.5C 304.727,247.228 308.894,251.728 315.5,254C 341.17,254.283 366.837,253.95 392.5,253C 395.211,252.227 397.711,251.06 400,249.5C 406.393,252.917 413.226,254.25 420.5,253.5C 432.5,253 444.5,252.5 456.5,252C 458.936,251.07 461.269,249.903 463.5,248.5C 465.554,250.194 467.888,251.361 470.5,252C 484.163,252.5 497.829,252.667 511.5,252.5C 511.5,261.167 511.5,269.833 511.5,278.5C 407.822,292.763 304.156,307.263 200.5,322C 164.584,327.092 128.584,328.092 92.5,325C 85.6563,323.789 78.9897,321.956 72.5,319.5C 64.7617,308.937 60.4284,297.27 59.5,284.5C 71.8974,289.035 81.3974,285.702 88,274.5C 89.535,263.272 86.3684,253.605 78.5,245.5C 95.1667,244.167 111.833,244.167 128.5,245.5C 119.372,251.426 114.039,259.759 112.5,270.5C 113.164,277.998 116.831,283.498 123.5,287C 139.989,292.959 154.489,289.793 167,277.5C 175.408,264.358 173.908,252.525 162.5,242C 183.383,215.451 203.883,188.618 224,161.5C 232.367,149.135 229.867,139.635 216.5,133C 196.213,130.525 175.88,129.859 155.5,131C 171.156,122.918 187.822,118.251 205.5,117C 222.86,116.159 240.194,116.493 257.5,118C 342.198,132.727 426.865,147.561 511.5,162.5 Z M 80.5,289.5 C 92.5132,290.084 104.513,290.918 116.5,292C 120.566,295.745 120.233,299.078 115.5,302C 104.431,302.6 93.4309,301.933 82.5,300C 77.0306,297.273 76.3639,293.773 80.5,289.5 Z M 87.5,307.5 C 95.8698,307.377 104.203,307.877 112.5,309C 116.529,313.056 115.863,316.39 110.5,319C 102.137,319.647 93.9707,318.814 86,316.5C 83.7879,313.021 84.2879,310.021 87.5,307.5 Z"/></g>
<g><path fill="#414042" d="M 166.5,141.5 C 182.566,141.145 198.566,141.978 214.5,144C 216.91,144.758 217.91,146.425 217.5,149C 217.616,151.544 216.783,153.711 215,155.5C 195.378,181.244 175.878,207.077 156.5,233C 126.494,233.833 96.4944,233.667 66.5,232.5C 84.9048,201.585 106.571,173.085 131.5,147C 143.196,144.418 154.862,142.584 166.5,141.5 Z"/></g>
<g><path fill="#414042" d="M 317.5,153.5 C 342.827,156.808 367.993,160.808 393,165.5C 394.647,190.079 394.98,214.746 394,239.5C 393.167,240.333 392.333,241.167 391.5,242C 366.827,242.564 342.161,242.897 317.5,243C 316.584,242.626 315.75,242.126 315,241.5C 313.351,213.587 313.017,185.587 314,157.5C 314.69,155.65 315.856,154.316 317.5,153.5 Z"/></g>
<g><path fill="#414042" d="M 408.5,167.5 C 424.516,168.859 440.349,171.193 456,174.5C 457.146,185.407 457.646,196.407 457.5,207.5C 457.333,217.833 457.167,228.167 457,238.5C 456.692,239.308 456.192,239.975 455.5,240.5C 441.527,241.202 427.527,241.868 413.5,242.5C 410.613,242.373 408.113,241.373 406,239.5C 405.333,216.5 405.333,193.5 406,170.5C 406.698,169.309 407.531,168.309 408.5,167.5 Z"/></g>
<g><path fill="#414042" d="M 511.5,181.5 C 511.5,201.167 511.5,220.833 511.5,240.5C 498.181,241.499 484.848,241.666 471.5,241C 470.299,240.097 469.465,238.931 469,237.5C 468.333,218.5 468.333,199.5 469,180.5C 469.465,179.069 470.299,177.903 471.5,177C 484.863,177.98 498.197,179.48 511.5,181.5 Z"/></g>
<g><path fill="#414042" d="M 60.5,246.5 C 72.3069,251.105 77.8069,259.771 77,272.5C 70.9523,276.293 64.7856,276.293 58.5,272.5C 58.1667,270.5 57.8333,268.5 57.5,266.5C 58.0686,259.756 59.0686,253.089 60.5,246.5 Z"/></g>
<g><path fill="#414042" d="M 147.5,249.5 C 156.199,248.869 160.866,252.869 161.5,261.5C 160.409,271.091 155.076,276.591 145.5,278C 138.946,279.081 132.612,278.414 126.5,276C 124.703,274.406 123.703,272.406 123.5,270C 127.392,258.27 135.392,251.436 147.5,249.5 Z"/></g>
<g><path fill="#414042" d="M 511.5,289.5 C 511.5,296.167 511.5,302.833 511.5,309.5C 504.814,312.143 497.814,313.976 490.5,315C 351.48,341.226 212.48,367.559 73.5,394C 70.1667,394.667 66.8333,394.667 63.5,394C 59.089,389.132 59.7557,385.132 65.5,382C 71.276,381.045 76.9427,379.712 82.5,378C 74.8333,376.333 67.1667,374.667 59.5,373C 41.8125,375.369 24.1458,378.202 6.5,381.5C 3.92202,381.558 1.58869,380.891 -0.5,379.5C -0.5,376.833 -0.5,374.167 -0.5,371.5C 0.682751,370.496 2.01608,369.662 3.5,369C 37.3219,362.702 70.9885,356.035 104.5,349C 97.7931,345.646 91.7931,341.313 86.5,336C 118.826,339.322 151.16,338.989 183.5,335C 292.91,320.06 402.244,304.894 511.5,289.5 Z M 127.5,358.5 C 141.795,359.998 156.129,361.165 170.5,362C 153.22,365.489 135.887,368.656 118.5,371.5C 109.111,369.989 99.7776,368.156 90.5,366C 103.029,363.794 115.363,361.294 127.5,358.5 Z"/></g>
</svg>
