<?xml version="1.0" encoding="UTF-8"?>
<!DOCTYPE svg PUBLIC "-//W3C//DTD SVG 1.1//EN" "http://www.w3.org/Graphics/SVG/1.1/DTD/svg11.dtd">
<svg xmlns="http://www.w3.org/2000/svg" version="1.1" width="444px" height="648px" style="shape-rendering:geometricPrecision; text-rendering:geometricPrecision; image-rendering:optimizeQuality; fill-rule:evenodd; clip-rule:evenodd" xmlns:xlink="http://www.w3.org/1999/xlink">
<g><path style="opacity:0.117" fill="#ffffff" d="M 183.5,14.5 C 182.833,14.5 182.167,14.5 181.5,14.5C 156.906,13.3439 132.239,13.1772 107.5,14C 106.956,14.7172 106.289,15.2172 105.5,15.5C 105.5,15.1667 105.5,14.8333 105.5,14.5C 106.058,13.2101 107.058,12.3768 108.5,12C 132.167,11.3333 155.833,11.3333 179.5,12C 181.066,12.6082 182.4,13.4415 183.5,14.5 Z"/></g>
<g><path style="opacity:0.999" fill="#ffffff" d="M 181.5,14.5 C 182.49,39.4255 182.823,64.4255 182.5,89.5C 181.711,89.7828 181.044,90.2828 180.5,91C 156.167,91.6667 131.833,91.6667 107.5,91C 107,90.5 106.5,90 106,89.5C 105.5,64.8356 105.333,40.1689 105.5,15.5C 106.289,15.2172 106.956,14.7172 107.5,14C 132.239,13.1772 156.906,13.3439 181.5,14.5 Z"/></g>
<g><path style="opacity:0.067" fill="#ffffff" d="M 181.5,14.5 C 182.167,14.5 182.833,14.5 183.5,14.5C 184.827,39.5977 184.827,64.5977 183.5,89.5C 183.167,89.5 182.833,89.5 182.5,89.5C 182.823,64.4255 182.49,39.4255 181.5,14.5 Z"/></g>
<g><path style="opacity:0.023" fill="#ffffff" d="M 255.5,89.5 C 255.5,90.1667 255.833,90.5 256.5,90.5C 255.843,114.931 255.176,139.264 254.5,163.5C 254.169,138.661 254.502,113.994 255.5,89.5 Z"/></g>
<g><path style="opacity:0.055" fill="#ffffff" d="M 105.5,14.5 C 105.5,14.8333 105.5,15.1667 105.5,15.5C 105.333,40.1689 105.5,64.8356 106,89.5C 106.5,90 107,90.5 107.5,91C 131.833,91.6667 156.167,91.6667 180.5,91C 181.044,90.2828 181.711,89.7828 182.5,89.5C 182.833,89.5 183.167,89.5 183.5,89.5C 183.047,90.4584 182.381,91.2917 181.5,92C 156.5,92.6667 131.5,92.6667 106.5,92C 106,91.5 105.5,91 105,90.5C 104.17,64.9967 104.337,39.6633 105.5,14.5 Z"/></g>
<g><path style="opacity:0.157" fill="#ffffff" d="M 406.5,164.5 C 382.164,164.333 357.831,164.5 333.5,165C 332.627,166.045 331.627,166.878 330.5,167.5C 330.5,167.167 330.5,166.833 330.5,166.5C 330.783,165.711 331.283,165.044 332,164.5C 332.667,139.833 332.667,115.167 332,90.5C 331.5,90 331,89.5 330.5,89C 306.5,88.3333 282.5,88.3333 258.5,89C 257.956,89.7172 257.289,90.2172 256.5,90.5C 255.833,90.5 255.5,90.1667 255.5,89.5C 256.058,88.2101 257.058,87.3768 258.5,87C 283.254,86.0198 307.921,86.3531 332.5,88C 333.126,88.7504 333.626,89.5838 334,90.5C 334.5,114.831 334.667,139.164 334.5,163.5C 358.672,163.169 382.672,163.502 406.5,164.5 Z"/></g>
<g><path style="opacity:1" fill="#ffffff" d="M 330.5,166.5 C 306.498,166.333 282.498,166.5 258.5,167C 259.056,167.383 259.389,167.883 259.5,168.5C 259.5,191.833 259.5,215.167 259.5,238.5C 282.833,238.5 306.167,238.5 329.5,238.5C 330.498,215.006 330.831,191.339 330.5,167.5C 331.627,166.878 332.627,166.045 333.5,165C 357.831,164.5 382.164,164.333 406.5,164.5C 407.458,164.953 408.292,165.619 409,166.5C 409.667,191.833 409.667,217.167 409,242.5C 408.5,243 408,243.5 407.5,244C 383.502,244.5 359.502,244.667 335.5,244.5C 335.5,267.833 335.5,291.167 335.5,314.5C 359.169,314.333 382.836,314.5 406.5,315C 408,316.5 409.5,318 411,319.5C 411.667,343.5 411.667,367.5 411,391.5C 409.167,394 407,396.167 404.5,398C 381.502,398.5 358.502,398.667 335.5,398.5C 335.64,472.501 335.473,546.501 335,620.5C 333.5,622 332,623.5 330.5,625C 306.5,625.667 282.5,625.667 258.5,625C 256.667,623.167 254.833,621.333 253,619.5C 252.5,596.169 252.333,572.836 252.5,549.5C 229.833,549.5 207.167,549.5 184.5,549.5C 184.667,573.169 184.5,596.836 184,620.5C 183.692,621.308 183.192,621.975 182.5,622.5C 157.209,623.657 131.876,623.824 106.5,623C 106,622.5 105.5,622 105,621.5C 104.333,596.167 104.333,570.833 105,545.5C 105.5,545 106,544.5 106.5,544C 130.164,543.5 153.831,543.333 177.5,543.5C 177.5,520.167 177.5,496.833 177.5,473.5C 154.164,473.667 130.831,473.5 107.5,473C 106,471.5 104.5,470 103,468.5C 102.5,445.169 102.333,421.836 102.5,398.5C 79.4976,398.667 56.4976,398.5 33.5,398C 31.6667,396.167 29.8333,394.333 28,392.5C 27.3333,368.167 27.3333,343.833 28,319.5C 29.5,318 31,316.5 32.5,315C 55.831,314.5 79.1643,314.333 102.5,314.5C 102.333,290.831 102.5,267.164 103,243.5C 104.5,242 106,240.5 107.5,239C 131.164,238.5 154.831,238.333 178.5,238.5C 178.333,214.831 178.5,191.164 179,167.5C 179.465,166.069 180.299,164.903 181.5,164C 205.831,163.5 230.164,163.333 254.5,163.5C 255.176,139.264 255.843,114.931 256.5,90.5C 257.289,90.2172 257.956,89.7172 258.5,89C 282.5,88.3333 306.5,88.3333 330.5,89C 331,89.5 331.5,90 332,90.5C 332.667,115.167 332.667,139.833 332,164.5C 331.283,165.044 330.783,165.711 330.5,166.5 Z M 259.5,168.5 C 282.833,168.5 306.167,168.5 329.5,168.5C 329.5,191.833 329.5,215.167 329.5,238.5C 329.5,215.167 329.5,191.833 329.5,168.5C 306.167,168.5 282.833,168.5 259.5,168.5 Z M 185.5,245.5 C 207.833,245.5 230.167,245.5 252.5,245.5C 252.5,268.5 252.5,291.5 252.5,314.5C 230.167,314.5 207.833,314.5 185.5,314.5C 185.5,291.5 185.5,268.5 185.5,245.5 Z M 185.5,398.5 C 207.833,398.5 230.167,398.5 252.5,398.5C 252.5,420.833 252.5,443.167 252.5,465.5C 230.167,465.5 207.833,465.5 185.5,465.5C 185.5,443.167 185.5,420.833 185.5,398.5 Z"/></g>
<g><path style="opacity:0.004" fill="#ffffff" d="M 330.5,166.5 C 330.5,166.833 330.5,167.167 330.5,167.5C 330.831,191.339 330.498,215.006 329.5,238.5C 329.5,215.167 329.5,191.833 329.5,168.5C 306.167,168.5 282.833,168.5 259.5,168.5C 259.389,167.883 259.056,167.383 258.5,167C 282.498,166.5 306.498,166.333 330.5,166.5 Z"/></g>
</svg>
