<?xml version="1.0" encoding="UTF-8"?>
<!DOCTYPE svg PUBLIC "-//W3C//DTD SVG 1.1//EN" "http://www.w3.org/Graphics/SVG/1.1/DTD/svg11.dtd">
<svg xmlns="http://www.w3.org/2000/svg" version="1.1" width="512px" height="512px" style="shape-rendering:geometricPrecision; text-rendering:geometricPrecision; image-rendering:optimizeQuality; fill-rule:evenodd; clip-rule:evenodd" xmlns:xlink="http://www.w3.org/1999/xlink">
<g><path fill="#ffffff" d="M -0.5,-0.5 C 130.167,-0.5 260.833,-0.5 391.5,-0.5C 391.5,170.167 391.5,340.833 391.5,511.5C 260.833,511.5 130.167,511.5 -0.5,511.5C -0.5,340.833 -0.5,170.167 -0.5,-0.5 Z M 105.5,60.5 C 165.5,60.5 225.5,60.5 285.5,60.5C 285.5,70.1667 285.5,79.8333 285.5,89.5C 225.5,89.5 165.5,89.5 105.5,89.5C 105.5,79.8333 105.5,70.1667 105.5,60.5 Z M 59.5,120.5 C 149.833,120.5 240.167,120.5 330.5,120.5C 330.5,130.167 330.5,139.833 330.5,149.5C 240.167,149.5 149.833,149.5 59.5,149.5C 59.5,139.833 59.5,130.167 59.5,120.5 Z M 59.5,180.5 C 74.5,180.5 89.5,180.5 104.5,180.5C 104.5,190.167 104.5,199.833 104.5,209.5C 89.5,209.5 74.5,209.5 59.5,209.5C 59.5,199.833 59.5,190.167 59.5,180.5 Z M 135.5,180.5 C 200.5,180.5 265.5,180.5 330.5,180.5C 330.5,190.167 330.5,199.833 330.5,209.5C 265.5,209.5 200.5,209.5 135.5,209.5C 135.5,199.833 135.5,190.167 135.5,180.5 Z M 59.5,240.5 C 74.5,240.5 89.5,240.5 104.5,240.5C 104.5,250.5 104.5,260.5 104.5,270.5C 89.5,270.5 74.5,270.5 59.5,270.5C 59.5,260.5 59.5,250.5 59.5,240.5 Z M 135.5,240.5 C 200.5,240.5 265.5,240.5 330.5,240.5C 330.5,250.5 330.5,260.5 330.5,270.5C 265.5,270.5 200.5,270.5 135.5,270.5C 135.5,260.5 135.5,250.5 135.5,240.5 Z M 59.5,301.5 C 74.5,301.5 89.5,301.5 104.5,301.5C 104.5,311.167 104.5,320.833 104.5,330.5C 89.5,330.5 74.5,330.5 59.5,330.5C 59.5,320.833 59.5,311.167 59.5,301.5 Z M 135.5,301.5 C 200.5,301.5 265.5,301.5 330.5,301.5C 330.5,311.167 330.5,320.833 330.5,330.5C 265.5,330.5 200.5,330.5 135.5,330.5C 135.5,320.833 135.5,311.167 135.5,301.5 Z M 59.5,361.5 C 74.5,361.5 89.5,361.5 104.5,361.5C 104.5,371.167 104.5,380.833 104.5,390.5C 89.5,390.5 74.5,390.5 59.5,390.5C 59.5,380.833 59.5,371.167 59.5,361.5 Z M 135.5,361.5 C 200.5,361.5 265.5,361.5 330.5,361.5C 330.5,371.167 330.5,380.833 330.5,390.5C 265.5,390.5 200.5,390.5 135.5,390.5C 135.5,380.833 135.5,371.167 135.5,361.5 Z"/></g>
<g><path fill="#ffffff" d="M 511.5,59.5 C 511.5,99.8333 511.5,140.167 511.5,180.5C 484.5,180.5 457.5,180.5 430.5,180.5C 430.5,140.167 430.5,99.8333 430.5,59.5C 457.5,59.5 484.5,59.5 511.5,59.5 Z"/></g>
<g><path fill="#ffffff" d="M 511.5,209.5 C 511.5,277.5 511.5,345.5 511.5,413.5C 498.189,429.147 484.856,444.814 471.5,460.5C 457.842,444.672 444.342,428.672 431,412.5C 430.5,344.834 430.333,277.167 430.5,209.5C 457.5,209.5 484.5,209.5 511.5,209.5 Z"/></g>
</svg>
