<?xml version="1.0" encoding="UTF-8"?>
<!DOCTYPE svg PUBLIC "-//W3C//DTD SVG 1.1//EN" "http://www.w3.org/Graphics/SVG/1.1/DTD/svg11.dtd">
<svg xmlns="http://www.w3.org/2000/svg" version="1.1" width="512px" height="512px" style="shape-rendering:geometricPrecision; text-rendering:geometricPrecision; image-rendering:optimizeQuality; fill-rule:evenodd; clip-rule:evenodd" xmlns:xlink="http://www.w3.org/1999/xlink">
<g><path fill="#2a75c5d6" d="M -0.5,388.5 C -0.5,290.833 -0.5,193.167 -0.5,95.5C 4.65165,77.5157 16.3183,66.0157 34.5,61C 153.5,60.5 272.5,60.3333 391.5,60.5C 391.333,175.167 391.5,289.834 392,404.5C 392.189,421.401 397.356,436.568 407.5,450C 292.5,450.667 177.5,450.667 62.5,450C 28.4336,442.766 7.43356,422.266 -0.5,388.5 Z M 74.5,120.5 C 155.167,120.333 235.834,120.5 316.5,121C 330.528,124.563 334.028,132.729 327,145.5C 324.044,148.227 320.544,149.727 316.5,150C 235.833,150.667 155.167,150.667 74.5,150C 61.214,146.927 57.3806,139.094 63,126.5C 66.3077,123.265 70.1411,121.265 74.5,120.5 Z M 74.5,180.5 C 155.167,180.333 235.834,180.5 316.5,181C 330.528,184.563 334.028,192.729 327,205.5C 324.044,208.227 320.544,209.727 316.5,210C 235.833,210.667 155.167,210.667 74.5,210C 61.214,206.927 57.3806,199.094 63,186.5C 66.3077,183.265 70.1411,181.265 74.5,180.5 Z M 75.5,240.5 C 115.835,240.333 156.168,240.5 196.5,241C 205.333,241.833 210.167,246.667 211,255.5C 211.667,295.5 211.667,335.5 211,375.5C 210.167,384.333 205.333,389.167 196.5,390C 156.167,390.667 115.833,390.667 75.5,390C 66.6667,389.167 61.8333,384.333 61,375.5C 60.3333,335.5 60.3333,295.5 61,255.5C 62.0117,246.657 66.8451,241.657 75.5,240.5 Z M 255.5,240.5 C 277.545,240.055 299.545,240.555 321.5,242C 331.457,248.163 333.124,256.163 326.5,266C 323.624,268.437 320.29,269.77 316.5,270C 294.458,270.945 272.458,270.611 250.5,269C 242.695,265.219 239.862,259.053 242,250.5C 244.982,245.005 249.482,241.671 255.5,240.5 Z M 255.5,300.5 C 277.545,300.055 299.545,300.555 321.5,302C 331.457,308.163 333.124,316.163 326.5,326C 323.624,328.437 320.29,329.77 316.5,330C 294.458,330.945 272.458,330.611 250.5,329C 242.695,325.219 239.862,319.053 242,310.5C 244.982,305.005 249.482,301.671 255.5,300.5 Z M 255.5,360.5 C 277.545,360.055 299.545,360.555 321.5,362C 331.457,368.163 333.124,376.163 326.5,386C 323.624,388.437 320.29,389.77 316.5,390C 294.458,390.945 272.458,390.611 250.5,389C 242.695,385.219 239.862,379.053 242,370.5C 244.982,365.005 249.482,361.671 255.5,360.5 Z"/></g>
<g><path fill="#2a75c5d6" d="M 421.5,62.5 C 437.127,68.7242 446.961,80.0575 451,96.5C 451.5,174.499 451.667,252.499 451.5,330.5C 441.5,330.5 431.5,330.5 421.5,330.5C 421.5,241.167 421.5,151.833 421.5,62.5 Z"/></g>
<g><path fill="#2a75c5d6" d="M 511.5,159.5 C 511.5,244.833 511.5,330.167 511.5,415.5C 500.271,445.947 478.938,456.447 447.5,447C 434.196,440.019 425.696,429.186 422,414.5C 421.5,396.503 421.333,378.503 421.5,360.5C 436.504,360.667 451.504,360.5 466.5,360C 472.687,359.162 477.187,355.996 480,350.5C 481.483,283.87 481.983,217.204 481.5,150.5C 488.508,150.334 495.508,150.5 502.5,151C 506.685,152.688 509.685,155.521 511.5,159.5 Z"/></g>
<g><path fill="#2a75c5d6" d="M 90.5,270.5 C 120.833,270.5 151.167,270.5 181.5,270.5C 181.5,300.5 181.5,330.5 181.5,360.5C 151.167,360.5 120.833,360.5 90.5,360.5C 90.5,330.5 90.5,300.5 90.5,270.5 Z"/></g>
</svg>
