<?xml version="1.0" encoding="UTF-8"?>
<!DOCTYPE svg PUBLIC "-//W3C//DTD SVG 1.1//EN" "http://www.w3.org/Graphics/SVG/1.1/DTD/svg11.dtd">
<svg xmlns="http://www.w3.org/2000/svg" version="1.1" width="512px" height="512px" style="shape-rendering:geometricPrecision; text-rendering:geometricPrecision; image-rendering:optimizeQuality; fill-rule:evenodd; clip-rule:evenodd" xmlns:xlink="http://www.w3.org/1999/xlink">
<g><path fill="#ffffff" d="M 511.5,248.5 C 511.5,253.167 511.5,257.833 511.5,262.5C 510.245,266.343 508.412,270.01 506,273.5C 442.833,336.667 379.667,399.833 316.5,463C 305.893,469.495 294.893,470.162 283.5,465C 275.364,457.865 267.53,450.365 260,442.5C 251.734,430.711 251.401,418.711 259,406.5C 295.5,370 332,333.5 368.5,297C 254.5,296.667 140.5,296.333 26.5,296C 12.868,294.532 3.86799,287.365 -0.5,274.5C -0.5,261.5 -0.5,248.5 -0.5,235.5C 3.98611,222.86 12.9861,216.027 26.5,215C 140.167,214.667 253.833,214.333 367.5,214C 332,178.5 296.5,143 261,107.5C 251.455,94.7413 251.121,81.7413 260,68.5C 267.53,60.6355 275.364,53.1355 283.5,46C 294.893,40.8379 305.893,41.5046 316.5,48C 379.667,111.167 442.833,174.333 506,237.5C 508.412,240.99 510.245,244.657 511.5,248.5 Z"/></g>
</svg>
