<?xml version="1.0" encoding="UTF-8"?>
<!DOCTYPE svg PUBLIC "-//W3C//DTD SVG 1.1//EN" "http://www.w3.org/Graphics/SVG/1.1/DTD/svg11.dtd">
<svg xmlns="http://www.w3.org/2000/svg" version="1.1" width="512px" height="512px" style="shape-rendering:geometricPrecision; text-rendering:geometricPrecision; image-rendering:optimizeQuality; fill-rule:evenodd; clip-rule:evenodd" xmlns:xlink="http://www.w3.org/1999/xlink">
<g><path fill="#ffffff" d="M 511.5,47.5 C 511.5,53.8333 511.5,60.1667 511.5,66.5C 501.936,92.8523 483.269,103.352 455.5,98C 452.145,96.8824 448.978,95.3824 446,93.5C 420.667,108.833 395.333,124.167 370,139.5C 368.334,170.167 352.167,185.334 321.5,185C 302.147,181.483 289.48,170.316 283.5,151.5C 260.486,139.743 237.32,128.409 214,117.5C 198.378,129.425 181.545,131.592 163.5,124C 136.5,144.333 109.5,164.667 82.5,185C 89.378,210.705 80.7113,229.039 56.5,240C 28.0507,246.117 9.05071,235.617 -0.5,208.5C -0.5,202.167 -0.5,195.833 -0.5,189.5C 8.7661,162.692 27.4328,152.192 55.5,158C 58.2837,158.892 60.9504,160.058 63.5,161.5C 90.6412,141.526 117.641,121.359 144.5,101C 137.719,81.4561 142.053,64.7895 157.5,51C 174.053,40.4701 191.053,39.8035 208.5,49C 222.399,59.4667 229.065,73.4667 228.5,91C 248.744,101.039 268.911,111.205 289,121.5C 300.677,102.423 317.51,95.5897 339.5,101C 345.957,103.059 351.624,106.393 356.5,111C 357.5,111.667 358.5,111.667 359.5,111C 380.833,98.3333 402.167,85.6667 423.5,73C 425.327,72.1007 426.66,70.7674 427.5,69C 422.197,43.9384 431.197,26.2718 454.5,16C 472.856,10.7135 488.689,14.8802 502,28.5C 506.273,34.3784 509.439,40.7117 511.5,47.5 Z"/></g>
<g><path fill="#ffffff" d="M 511.5,193.5 C 511.5,292.167 511.5,390.833 511.5,489.5C 508.766,494.06 504.766,496.893 499.5,498C 479.167,498.667 458.833,498.667 438.5,498C 431.782,496.949 427.616,493.116 426,486.5C 425.333,389.5 425.333,292.5 426,195.5C 427.406,190.427 430.572,186.927 435.5,185C 457.5,184.333 479.5,184.333 501.5,185C 506.255,186.261 509.588,189.095 511.5,193.5 Z"/></g>
<g><path fill="#ffffff" d="M 153.5,212.5 C 174.169,212.333 194.836,212.5 215.5,213C 221.588,214.09 225.421,217.59 227,223.5C 227.667,311.5 227.667,399.5 227,487.5C 225.421,493.41 221.588,496.91 215.5,498C 194.833,498.667 174.167,498.667 153.5,498C 147.873,497.043 144.04,493.876 142,488.5C 141.333,399.833 141.333,311.167 142,222.5C 144.21,217.112 148.043,213.779 153.5,212.5 Z"/></g>
<g><path fill="#ffffff" d="M 294.5,269.5 C 315.836,269.333 337.169,269.5 358.5,270C 363.573,271.406 367.073,274.572 369,279.5C 369.667,349.167 369.667,418.833 369,488.5C 367.558,492.275 365.058,495.108 361.5,497C 339.551,498.623 317.551,498.956 295.5,498C 289.412,496.91 285.579,493.41 284,487.5C 283.333,418.5 283.333,349.5 284,280.5C 285.684,274.984 289.184,271.318 294.5,269.5 Z"/></g>
<g><path fill="#ffffff" d="M -0.5,489.5 C -0.5,438.167 -0.5,386.833 -0.5,335.5C 1.75084,331.52 5.08417,328.687 9.5,327C 31.1667,326.333 52.8333,326.333 74.5,327C 80,328.5 83.5,332 85,337.5C 85.6667,387.167 85.6667,436.833 85,486.5C 83.3844,493.116 79.2177,496.949 72.5,498C 52.1667,498.667 31.8333,498.667 11.5,498C 6.23408,496.893 2.23408,494.06 -0.5,489.5 Z"/></g>
</svg>
