<?xml version="1.0" encoding="UTF-8"?>
<!DOCTYPE svg PUBLIC "-//W3C//DTD SVG 1.1//EN" "http://www.w3.org/Graphics/SVG/1.1/DTD/svg11.dtd">
<svg xmlns="http://www.w3.org/2000/svg" version="1.1" width="512px" height="512px" style="shape-rendering:geometricPrecision; text-rendering:geometricPrecision; image-rendering:optimizeQuality; fill-rule:evenodd; clip-rule:evenodd" xmlns:xlink="http://www.w3.org/1999/xlink">
<g><path fill="#ffffff" d="M 244.5,-0.5 C 251.833,-0.5 259.167,-0.5 266.5,-0.5C 290.963,5.49354 307.13,20.4935 315,44.5C 316.482,94.4535 316.982,144.454 316.5,194.5C 366.546,194.018 416.546,194.518 466.5,196C 490.508,203.876 505.508,220.042 511.5,244.5C 511.5,251.833 511.5,259.167 511.5,266.5C 505.508,290.958 490.508,307.124 466.5,315C 416.538,316.477 366.538,316.977 316.5,316.5C 316.982,366.546 316.482,416.546 315,466.5C 307.124,490.508 290.958,505.508 266.5,511.5C 259.167,511.5 251.833,511.5 244.5,511.5C 220.042,505.508 203.876,490.508 196,466.5C 194.518,416.546 194.018,366.546 194.5,316.5C 144.462,316.977 94.4616,316.477 44.5,315C 20.4921,307.124 5.49209,290.958 -0.5,266.5C -0.5,259.167 -0.5,251.833 -0.5,244.5C 5.49209,220.042 20.4921,203.876 44.5,196C 94.4535,194.518 144.454,194.018 194.5,194.5C 194.018,144.454 194.518,94.4535 196,44.5C 203.87,20.4935 220.037,5.49354 244.5,-0.5 Z"/></g>
</svg>
