<?xml version="1.0" encoding="UTF-8"?>
<!DOCTYPE svg PUBLIC "-//W3C//DTD SVG 1.1//EN" "http://www.w3.org/Graphics/SVG/1.1/DTD/svg11.dtd">
<svg xmlns="http://www.w3.org/2000/svg" version="1.1" width="512px" height="512px" style="shape-rendering:geometricPrecision; text-rendering:geometricPrecision; image-rendering:optimizeQuality; fill-rule:evenodd; clip-rule:evenodd" xmlns:xlink="http://www.w3.org/1999/xlink">
<g><path fill="#ffffff" d="M 233.5,-0.5 C 248.5,-0.5 263.5,-0.5 278.5,-0.5C 368.144,10.3879 435.644,54.7213 481,132.5C 497.695,163.971 507.861,197.304 511.5,232.5C 511.5,247.5 511.5,262.5 511.5,277.5C 499.016,377.807 447.016,449.307 355.5,492C 330.316,502.296 304.316,508.796 277.5,511.5C 262.5,511.5 247.5,511.5 232.5,511.5C 130.434,498.225 58.6008,444.558 17,350.5C 8.0309,327.127 2.19757,303.127 -0.5,278.5C -0.5,263.167 -0.5,247.833 -0.5,232.5C 9.30698,148.242 49.6403,83.0754 120.5,37C 155.422,15.9704 193.088,3.4704 233.5,-0.5 Z M 253.5,67.5 C 265.306,68.1413 272.806,74.1413 276,85.5C 276.167,149.503 276.667,213.503 277.5,277.5C 294.319,261.181 310.986,244.681 327.5,228C 345.226,220.696 356.226,226.363 360.5,245C 359.996,249.483 358.496,253.649 356,257.5C 326.5,287 297,316.5 267.5,346C 259.5,350.667 251.5,350.667 243.5,346C 213.667,316.167 183.833,286.333 154,256.5C 147.73,242.311 151.563,231.811 165.5,225C 171.922,223.699 177.922,224.699 183.5,228C 200.014,244.681 216.681,261.181 233.5,277.5C 234.333,213.503 234.833,149.503 235,85.5C 237.781,75.8842 243.947,69.8842 253.5,67.5 Z M 166.5,378.5 C 225.834,378.333 285.168,378.5 344.5,379C 359.252,385.252 363.419,395.752 357,410.5C 354.011,414.491 350.178,417.324 345.5,419C 285.5,419.667 225.5,419.667 165.5,419C 150.945,411.67 147.445,400.836 155,386.5C 158.15,382.689 161.983,380.023 166.5,378.5 Z"/></g>
</svg>
