<?xml version="1.0" encoding="UTF-8"?>
<!DOCTYPE svg PUBLIC "-//W3C//DTD SVG 1.1//EN" "http://www.w3.org/Graphics/SVG/1.1/DTD/svg11.dtd">
<svg xmlns="http://www.w3.org/2000/svg" version="1.1" width="512px" height="512px" style="shape-rendering:geometricPrecision; text-rendering:geometricPrecision; image-rendering:optimizeQuality; fill-rule:evenodd; clip-rule:evenodd" xmlns:xlink="http://www.w3.org/1999/xlink">
<g><path fill="#2a75c5d6" d="M 232.5,-0.5 C 247.833,-0.5 263.167,-0.5 278.5,-0.5C 368.146,10.3889 435.646,54.7222 481,132.5C 497.694,163.968 507.861,197.302 511.5,232.5C 511.5,247.833 511.5,263.167 511.5,278.5C 500.611,368.146 456.278,435.646 378.5,481C 347.032,497.694 313.698,507.861 278.5,511.5C 263.167,511.5 247.833,511.5 232.5,511.5C 142.854,500.611 75.3537,456.278 30,378.5C 13.3058,347.032 3.13909,313.698 -0.5,278.5C -0.5,263.167 -0.5,247.833 -0.5,232.5C 10.3889,142.854 54.7222,75.3537 132.5,30C 163.968,13.3058 197.302,3.13909 232.5,-0.5 Z M 248.5,115.5 C 271.138,113.661 284.138,123.828 287.5,146C 284.997,164.858 274.163,174.691 255,175.5C 235.882,174.549 225.382,164.549 223.5,145.5C 224.651,129.361 232.985,119.361 248.5,115.5 Z M 249.5,200.5 C 263.739,198.873 274.905,203.873 283,215.5C 285.66,219.814 287.327,224.481 288,229.5C 288.667,276.5 288.667,323.5 288,370.5C 284.461,388.708 273.461,398.375 255,399.5C 237.078,397.914 226.411,388.247 223,370.5C 222.333,323.5 222.333,276.5 223,229.5C 225.823,214.183 234.656,204.517 249.5,200.5 Z"/></g>
</svg>
