<?xml version="1.0" encoding="UTF-8"?>
<!DOCTYPE svg PUBLIC "-//W3C//DTD SVG 1.1//EN" "http://www.w3.org/Graphics/SVG/1.1/DTD/svg11.dtd">
<svg xmlns="http://www.w3.org/2000/svg" version="1.1" width="512px" height="512px" style="shape-rendering:geometricPrecision; text-rendering:geometricPrecision; image-rendering:optimizeQuality; fill-rule:evenodd; clip-rule:evenodd" xmlns:xlink="http://www.w3.org/1999/xlink">
<g><path fill="#ffffff" d="M 385.5,-0.5 C 394.833,-0.5 404.167,-0.5 413.5,-0.5C 468.5,9.83333 501.167,42.5 511.5,97.5C 511.5,105.833 511.5,114.167 511.5,122.5C 506.907,141.379 499.74,159.379 490,176.5C 466.702,215.252 439.868,251.418 409.5,285C 402.833,288.333 396.167,288.333 389.5,285C 360.718,253.586 335.218,219.752 313,183.5C 301.536,164.439 293.203,144.106 288,122.5C 285.031,73.5401 304.531,36.7067 346.5,12C 359.01,5.88399 372.01,1.71733 385.5,-0.5 Z M 390.5,64.5 C 419.222,62.4082 437.722,75.0748 446,102.5C 448.577,131.246 436.077,149.746 408.5,158C 379.754,160.577 361.254,148.077 353,120.5C 350.628,91.73 363.128,73.0633 390.5,64.5 Z"/></g>
<g><path fill="#ffffff" d="M 21.5,511.5 C 17.5,511.5 13.5,511.5 9.5,511.5C 5.16667,509.167 1.83333,505.833 -0.5,501.5C -0.5,399.833 -0.5,298.167 -0.5,196.5C 2.04369,191.463 6.04369,187.963 11.5,186C 60.753,166.203 110.086,146.703 159.5,127.5C 159.667,236.834 159.5,346.167 159,455.5C 113.043,474.091 67.2101,492.757 21.5,511.5 Z"/></g>
<g><path fill="#ffffff" d="M 191.5,127.5 C 216.289,136.765 240.956,146.431 265.5,156.5C 279.763,189.04 297.596,219.373 319,247.5C 319.833,333.835 319.667,420.169 318.5,506.5C 276.197,489.789 234.03,472.789 192,455.5C 191.5,346.167 191.333,236.834 191.5,127.5 Z"/></g>
<g><path fill="#ffffff" d="M 511.5,201.5 C 511.5,281.833 511.5,362.167 511.5,442.5C 508.956,447.537 504.956,451.037 499.5,453C 450.867,472.038 402.534,491.538 354.5,511.5C 353.5,511.5 352.5,511.5 351.5,511.5C 351.333,437.499 351.5,363.499 352,289.5C 358.135,296.636 364.635,303.469 371.5,310C 397.782,324.844 420.615,320.677 440,297.5C 466.393,267.292 490.226,235.292 511.5,201.5 Z"/></g>
</svg>
