<?xml version="1.0" encoding="UTF-8"?>
<!DOCTYPE svg PUBLIC "-//W3C//DTD SVG 1.1//EN" "http://www.w3.org/Graphics/SVG/1.1/DTD/svg11.dtd">
<svg xmlns="http://www.w3.org/2000/svg" version="1.1" width="512px" height="512px" style="shape-rendering:geometricPrecision; text-rendering:geometricPrecision; image-rendering:optimizeQuality; fill-rule:evenodd; clip-rule:evenodd" xmlns:xlink="http://www.w3.org/1999/xlink">
<g><path fill="#ffffff" d="M 232.5,-0.5 C 245.5,-0.5 258.5,-0.5 271.5,-0.5C 276.642,0.647103 281.975,1.48044 287.5,2C 299.69,5.5472 303.523,13.3805 299,25.5C 296.736,28.4335 293.902,30.6001 290.5,32C 284.115,32.7927 277.782,32.626 271.5,31.5C 270.167,180.833 270.167,330.167 271.5,479.5C 278.865,478.076 286.198,478.242 293.5,480C 300.489,485.775 302.322,492.942 299,501.5C 297.833,504 296,505.833 293.5,507C 286.153,508.993 278.819,510.493 271.5,511.5C 258.833,511.5 246.167,511.5 233.5,511.5C 135.248,498.974 64.4151,448.308 21,359.5C 9.60385,333.501 2.43719,306.501 -0.5,278.5C -0.5,263.167 -0.5,247.833 -0.5,232.5C 10.4489,144.436 53.7822,77.6027 129.5,32C 161.76,14.1924 196.093,3.35906 232.5,-0.5 Z"/></g>
<g><path fill="#ffffff" d="M 344.5,17.5 C 354.996,19.9096 364.996,23.743 374.5,29C 387.178,35.6684 399.178,43.335 410.5,52C 417.29,58.8924 418.123,66.3924 413,74.5C 406.964,79.7225 400.131,80.8891 392.5,78C 376.067,65.1113 358.067,54.778 338.5,47C 328.903,39.017 328.236,30.3503 336.5,21C 339.158,19.522 341.825,18.3554 344.5,17.5 Z"/></g>
<g><path fill="#ffffff" d="M 440.5,93.5 C 448.126,92.0658 454.292,94.3992 459,100.5C 471.694,117.558 482.361,135.891 491,155.5C 494.84,171.343 488.674,178.843 472.5,178C 470.254,176.961 468.087,175.794 466,174.5C 457.03,154.548 446.03,135.882 433,118.5C 427.666,107.856 430.166,99.5228 440.5,93.5 Z"/></g>
<g><path fill="#ffffff" d="M 511.5,238.5 C 511.5,249.5 511.5,260.5 511.5,271.5C 510.263,278.347 509.097,285.347 508,292.5C 501.922,302.252 493.756,304.419 483.5,299C 480.028,295.556 478.028,291.389 477.5,286.5C 480.152,265.519 480.152,244.519 477.5,223.5C 481.019,209.741 489.352,205.574 502.5,211C 505.106,212.938 506.939,215.438 508,218.5C 509.177,225.303 510.344,231.969 511.5,238.5 Z"/></g>
<g><path fill="#ffffff" d="M 475.5,331.5 C 491.443,333.771 496.276,342.438 490,357.5C 481.062,378.56 469.229,397.727 454.5,415C 443.909,419.566 436.076,416.733 431,406.5C 430.333,403.167 430.333,399.833 431,396.5C 444.621,378.271 455.954,358.605 465,337.5C 468.069,334.554 471.569,332.554 475.5,331.5 Z"/></g>
<g><path fill="#ffffff" d="M 397.5,430.5 C 412.042,430.205 418.209,437.205 416,451.5C 414.939,454.562 413.106,457.062 410.5,459C 392.729,472.558 373.395,483.558 352.5,492C 334.761,493.262 328.595,485.429 334,468.5C 335.5,467 337,465.5 338.5,464C 346.739,460.881 354.739,457.214 362.5,453C 374.604,445.962 386.271,438.462 397.5,430.5 Z"/></g>
</svg>
