<?xml version="1.0" encoding="UTF-8"?>
<!DOCTYPE svg PUBLIC "-//W3C//DTD SVG 1.1//EN" "http://www.w3.org/Graphics/SVG/1.1/DTD/svg11.dtd">
<svg xmlns="http://www.w3.org/2000/svg" version="1.1" width="512px" height="512px" style="shape-rendering:geometricPrecision; text-rendering:geometricPrecision; image-rendering:optimizeQuality; fill-rule:evenodd; clip-rule:evenodd" xmlns:xlink="http://www.w3.org/1999/xlink">
<g><path fill="#2a75c5d6" d="M 221.5,-0.5 C 243.833,-0.5 266.167,-0.5 288.5,-0.5C 330.967,1.31118 372.301,9.47785 412.5,24C 428.524,29.7415 441.691,39.2415 452,52.5C 457.755,64.6188 456.088,75.6188 447,85.5C 430.207,99.6736 411.04,109.507 389.5,115C 345.632,126.9 300.966,132.4 255.5,131.5C 210.034,132.4 165.368,126.9 121.5,115C 99.9595,109.507 80.7928,99.6736 64,85.5C 54.449,74.7726 53.1157,63.1059 60,50.5C 68.3632,41.1449 78.1966,33.6449 89.5,28C 118.308,15.631 148.308,7.63102 179.5,4C 193.627,2.27073 207.627,0.770728 221.5,-0.5 Z"/></g>
<g><path fill="#2a75c5d6" d="M 55.5,87.5 C 57.6,91.7 59.7667,96.0334 62,100.5C 71.5038,110.672 82.6704,118.505 95.5,124C 123.177,135.086 151.844,142.419 181.5,146C 242.828,153.578 303.828,151.578 364.5,140C 389.727,134.927 413.394,125.927 435.5,113C 445.071,106.773 451.571,98.2726 455,87.5C 457.445,91.4972 459.112,95.8305 460,100.5C 460.667,126.5 460.667,152.5 460,178.5C 457.018,188.633 451.852,197.466 444.5,205C 430.129,217.193 414.129,226.86 396.5,234C 350.967,250.434 303.967,258.267 255.5,257.5C 210.004,258.072 165.671,251.239 122.5,237C 101.395,229.872 82.5621,219.039 66,204.5C 58.9376,197.044 53.9376,188.378 51,178.5C 50.3333,152.167 50.3333,125.833 51,99.5C 52.2136,95.3551 53.7136,91.3551 55.5,87.5 Z"/></g>
<g><path fill="#2a75c5d6" d="M 56.5,211.5 C 70.1601,229.963 87.8268,243.463 109.5,252C 156.443,269.991 205.11,278.825 255.5,278.5C 299.177,278.475 341.844,271.975 383.5,259C 407.752,251.467 428.919,238.967 447,221.5C 449.333,218.167 451.667,214.833 454,211.5C 457.09,215.682 459.09,220.349 460,225.5C 460.667,251.5 460.667,277.5 460,303.5C 455.41,318.098 446.91,329.931 434.5,339C 409.351,355.389 382.017,366.722 352.5,373C 275.274,389.275 198.941,385.941 123.5,363C 104.668,356.254 87.3348,346.921 71.5,335C 61.2648,326.692 54.4314,316.192 51,303.5C 50.3333,277.5 50.3333,251.5 51,225.5C 52.0116,220.482 53.8449,215.815 56.5,211.5 Z"/></g>
<g><path fill="#2a75c5d6" d="M 285.5,511.5 C 265.5,511.5 245.5,511.5 225.5,511.5C 190.07,509.248 155.403,502.414 121.5,491C 99.8611,483.438 80.6945,471.938 64,456.5C 57.5896,449.683 53.2563,441.683 51,432.5C 50.3333,406.5 50.3333,380.5 51,354.5C 51.91,349.349 53.91,344.682 57,340.5C 69.5642,357.716 85.7309,370.549 105.5,379C 153.566,398.401 203.566,407.567 255.5,406.5C 304.762,407.401 352.429,399.234 398.5,382C 414.297,375.608 428.63,366.942 441.5,356C 446.046,351.123 450.213,345.956 454,340.5C 457.09,344.682 459.09,349.349 460,354.5C 460.667,380.5 460.667,406.5 460,432.5C 455.741,446.761 447.574,458.261 435.5,467C 405.297,486.588 372.297,499.254 336.5,505C 319.43,507.802 302.43,509.968 285.5,511.5 Z"/></g>
</svg>
