<?xml version="1.0" encoding="UTF-8"?>
<!DOCTYPE svg PUBLIC "-//W3C//DTD SVG 1.1//EN" "http://www.w3.org/Graphics/SVG/1.1/DTD/svg11.dtd">
<svg xmlns="http://www.w3.org/2000/svg" version="1.1" width="801px" height="800px" style="shape-rendering:geometricPrecision; text-rendering:geometricPrecision; image-rendering:optimizeQuality; fill-rule:evenodd; clip-rule:evenodd" xmlns:xlink="http://www.w3.org/1999/xlink">
<g><path style="opacity:0.962" fill="#f7724c" d="M 362.5,42.5 C 379.104,44.0905 395.771,45.5905 412.5,47C 416.538,47.6011 419.371,49.7678 421,53.5C 420.86,69.1792 421.027,84.8459 421.5,100.5C 421.4,105.777 420.233,110.777 418,115.5C 414.025,117.032 409.858,117.698 405.5,117.5C 395.174,116.606 384.841,116.44 374.5,117C 370.205,118.845 369.538,121.512 372.5,125C 379.589,127.57 386.922,128.737 394.5,128.5C 405.831,127.945 417.164,127.445 428.5,127C 433.309,124.995 437.975,122.829 442.5,120.5C 448.804,121.253 455.137,121.753 461.5,122C 466.584,123.826 468.584,127.492 467.5,133C 466.722,146.828 466.555,160.661 467,174.5C 466.08,186.547 464.747,198.547 463,210.5C 462.107,215.419 460.607,220.086 458.5,224.5C 457.228,225.046 455.894,225.379 454.5,225.5C 444.395,223.966 434.229,222.966 424,222.5C 405.226,223.872 386.392,225.539 367.5,227.5C 350.953,226.145 334.453,224.812 318,223.5C 317.789,217.136 318.289,210.802 319.5,204.5C 318.455,195.851 318.289,187.184 319,178.5C 321.219,164.197 323.219,149.864 325,135.5C 327.294,128.213 332.294,124.213 340,123.5C 344.02,124.086 348.02,124.752 352,125.5C 353.982,125.01 355.649,124.01 357,122.5C 356.297,103.187 355.964,83.8534 356,64.5C 356.122,57.6948 357.122,51.0282 359,44.5C 360.302,43.9152 361.469,43.2485 362.5,42.5 Z M 347.5,164.5 C 353.491,164.491 356.491,167.491 356.5,173.5C 355.834,180.153 355.334,186.819 355,193.5C 351.996,197 348.663,197.333 345,194.5C 344.833,192.833 344.667,191.167 344.5,189.5C 345.831,181.19 346.831,172.857 347.5,164.5 Z M 386.5,165.5 C 388.857,165.337 391.19,165.503 393.5,166C 395.007,167.473 395.674,169.307 395.5,171.5C 394.399,177.508 393.232,183.508 392,189.5C 389.412,192.287 386.745,192.62 384,190.5C 383.333,183.833 383.333,177.167 384,170.5C 384.366,168.548 385.199,166.882 386.5,165.5 Z M 437.5,168.5 C 440.099,168.549 442.266,169.549 444,171.5C 444.667,177.833 444.667,184.167 444,190.5C 441.419,194.057 438.419,194.39 435,191.5C 432.116,185.333 431.783,179 434,172.5C 434.69,170.65 435.856,169.316 437.5,168.5 Z"/></g>
<g><path style="opacity:0.944" fill="#f7724c" d="M 737.5,181.5 C 743.509,181.334 749.509,181.501 755.5,182C 760.48,183.657 763.313,187.157 764,192.5C 765.244,202.051 766.744,211.551 768.5,221C 766.07,241.814 763.903,262.648 762,283.5C 761.408,287.276 760.408,290.943 759,294.5C 758.76,309.68 758.26,324.846 757.5,340C 758.817,349.501 758.817,359.001 757.5,368.5C 761.851,388.663 762.684,408.997 760,429.5C 757.498,437.593 757.498,445.593 760,453.5C 760.989,474.741 760.155,495.908 757.5,517C 759.375,531.779 759.875,546.613 759,561.5C 757.504,572.8 756.337,584.133 755.5,595.5C 755.684,606.327 756.017,617.16 756.5,628C 755.947,641.203 755.281,654.37 754.5,667.5C 755.154,679.45 756.154,691.45 757.5,703.5C 756.374,720.862 755.874,738.195 756,755.5C 753.974,757.097 751.641,758.097 749,758.5C 738.41,756.279 727.743,755.946 717,757.5C 708.523,757.332 700.19,756.332 692,754.5C 677.394,755.443 662.894,757.11 648.5,759.5C 646.742,758.872 645.242,757.872 644,756.5C 644.133,739.497 641.8,722.83 637,706.5C 636.667,702.5 636.333,698.5 636,694.5C 634.987,692.154 633.321,690.487 631,689.5C 624.9,691.253 618.734,692.753 612.5,694C 603.743,694.244 595.077,695.244 586.5,697C 584.919,697.707 583.419,698.54 582,699.5C 580.862,707.903 580.362,716.403 580.5,725C 580.851,737.177 581.018,749.344 581,761.5C 580.5,763.333 579.333,764.5 577.5,765C 570.573,765.775 563.74,765.275 557,763.5C 556.055,763.095 555.388,762.428 555,761.5C 554.38,743.209 554.38,724.875 555,706.5C 553.833,704 552,702.167 549.5,701C 540.167,700.333 530.833,700.333 521.5,701C 516.022,701.357 510.688,702.357 505.5,704C 503.99,705.351 502.99,707.018 502.5,709C 505.205,720.68 504.705,732.18 501,743.5C 500.667,748.5 500.333,753.5 500,758.5C 498.806,759.43 497.473,760.097 496,760.5C 489.203,759.721 482.37,759.221 475.5,759C 472.08,756.847 470.747,753.681 471.5,749.5C 472.141,737.164 472.808,724.831 473.5,712.5C 472.211,697.658 472.211,682.825 473.5,668C 470.901,660.366 466.734,659.533 461,665.5C 461.253,679.487 461.753,693.487 462.5,707.5C 462.029,718.88 461.029,730.213 459.5,741.5C 460.267,746.827 460.434,752.16 460,757.5C 458.559,758.26 457.059,758.926 455.5,759.5C 441.567,757.676 427.567,756.342 413.5,755.5C 409.042,756.198 404.709,757.365 400.5,759C 397.833,759.667 395.167,759.667 392.5,759C 388.888,747.896 388.221,736.729 390.5,725.5C 389.777,717.489 388.943,709.489 388,701.5C 385.435,698.892 382.269,697.558 378.5,697.5C 359.302,700.764 340.135,703.764 321,706.5C 322.085,723.886 322.918,741.219 323.5,758.5C 323.255,761.168 321.921,763.002 319.5,764C 302.947,763.874 286.947,760.874 271.5,755C 270.37,752.572 268.87,750.405 267,748.5C 261.7,755.068 254.867,758.234 246.5,758C 246,757.5 245.5,757 245,756.5C 243.921,750.871 243.088,745.205 242.5,739.5C 243.604,723.848 243.771,708.182 243,692.5C 241.366,687.081 237.7,685.081 232,686.5C 221.444,686.956 210.944,687.956 200.5,689.5C 189.727,687.82 179.393,689.32 169.5,694C 158.982,692.924 149.315,695.257 140.5,701C 129.059,704.958 117.392,706.958 105.5,707C 101.207,708.78 99.2072,711.946 99.5,716.5C 102.445,735.076 103.445,753.743 102.5,772.5C 95.9605,773.993 89.7938,772.993 84,769.5C 82.2745,755.213 80.6079,740.879 79,726.5C 79.21,703.21 77.71,680.043 74.5,657C 75.048,644.318 75.7147,631.652 76.5,619C 75.9935,607.858 74.6602,596.858 72.5,586C 72.5777,563.17 71.0777,540.337 68,517.5C 68.1495,504.201 66.9829,491.035 64.5,478C 64.8722,459.516 65.8722,441.016 67.5,422.5C 64.2667,409.967 65.9334,398.133 72.5,387C 75.5758,385.245 78.7425,385.078 82,386.5C 98.1908,385.96 114.191,383.96 130,380.5C 139.512,381.092 149.012,380.592 158.5,379C 178.041,378.721 197.541,378.888 217,379.5C 234.167,378.682 251.334,377.848 268.5,377C 270.487,375.681 271.654,373.848 272,371.5C 272.745,362.812 272.579,354.145 271.5,345.5C 274.296,335.457 274.962,325.29 273.5,315C 275.665,294.215 277.165,273.382 278,252.5C 280.146,245.375 282.979,238.542 286.5,232C 293.118,230.622 299.785,230.289 306.5,231C 309.931,236.299 314.764,238.466 321,237.5C 327.234,237.26 333.401,236.593 339.5,235.5C 342.808,236.395 346.141,237.229 349.5,238C 361.833,238.667 374.167,238.667 386.5,238C 399.567,236.884 412.567,235.384 425.5,233.5C 431.862,233.635 438.196,234.135 444.5,235C 450.524,237.12 456.69,238.62 463,239.5C 470.052,237.57 477.219,237.07 484.5,238C 488.388,240.222 491.221,243.388 493,247.5C 492.184,260.994 492.351,274.494 493.5,288C 493.512,295.561 492.845,303.061 491.5,310.5C 492.563,315.984 493.563,321.484 494.5,327C 493.628,332.81 492.961,338.644 492.5,344.5C 494.142,358.827 493.475,372.994 490.5,387C 491.527,400.671 490.861,414.338 488.5,428C 488.953,430.986 489.287,433.986 489.5,437C 486.646,451.073 485.98,465.24 487.5,479.5C 486.644,502.184 485.811,524.851 485,547.5C 485.426,550.761 487.259,552.428 490.5,552.5C 506.811,550.624 523.145,550.124 539.5,551C 541.667,550.167 543.167,548.667 544,546.5C 547.132,496.349 548.632,446.182 548.5,396C 548.435,373.976 547.768,351.976 546.5,330C 547.156,317.831 547.822,305.664 548.5,293.5C 547.833,281.167 547.167,268.833 546.5,256.5C 548.238,242.884 549.405,229.217 550,215.5C 550.821,208.726 552.155,202.06 554,195.5C 554.948,193.43 556.448,191.93 558.5,191C 562.848,190.427 567.181,189.76 571.5,189C 578.487,189.254 585.487,189.254 592.5,189C 597.809,187.871 603.143,186.871 608.5,186C 621.586,185.997 634.586,184.997 647.5,183C 666.854,182.554 686.187,183.054 705.5,184.5C 716.287,183.184 726.954,182.184 737.5,181.5 Z M 713.5,214.5 C 724.554,213.367 728.22,217.867 724.5,228C 718.796,231.42 712.963,231.92 707,229.5C 706.389,225.318 707.056,221.318 709,217.5C 710.409,216.219 711.909,215.219 713.5,214.5 Z M 647.5,215.5 C 659.429,213.91 663.262,218.576 659,229.5C 653.357,234.204 646.857,236.037 639.5,235C 635.876,232.839 634.709,229.672 636,225.5C 638.849,220.803 642.683,217.469 647.5,215.5 Z M 582.5,219.5 C 592.956,217.87 598.623,222.203 599.5,232.5C 598.006,238.25 594.339,240.416 588.5,239C 580.547,234.308 578.547,227.808 582.5,219.5 Z M 698.5,258.5 C 704.964,258.569 711.297,259.403 717.5,261C 719.91,268.158 717.243,272.824 709.5,275C 704.445,276.763 699.445,276.763 694.5,275C 691.806,272.347 690.973,269.18 692,265.5C 693.694,262.642 695.861,260.309 698.5,258.5 Z M 643.5,259.5 C 646.179,259.673 648.513,260.673 650.5,262.5C 657.159,258.829 661.492,260.663 663.5,268C 659.777,277.69 652.777,281.357 642.5,279C 638.673,275.692 637.506,271.526 639,266.5C 640.511,264.138 642.011,261.805 643.5,259.5 Z M 598.5,265.5 C 603.151,264.814 605.817,266.814 606.5,271.5C 605.855,274.228 605.021,276.895 604,279.5C 600.167,281.641 596.001,282.975 591.5,283.5C 586.028,282.189 583.362,278.689 583.5,273C 583.703,270.594 584.703,268.594 586.5,267C 590.688,266.824 594.688,266.324 598.5,265.5 Z M 307.5,275.5 C 318.647,274.82 324.647,279.986 325.5,291C 324.602,298.125 320.602,300.792 313.5,299C 311.714,298.215 310.214,297.049 309,295.5C 307.622,290.573 306.455,285.573 305.5,280.5C 305.902,278.7 306.569,277.033 307.5,275.5 Z M 372.5,275.5 C 388.721,276.444 391.721,283.277 381.5,296C 375.481,299.694 369.314,300.194 363,297.5C 359.459,292.123 360.459,287.789 366,284.5C 366.258,279.94 368.424,276.94 372.5,275.5 Z M 438.5,279.5 C 447.403,278.236 452.403,282.07 453.5,291C 453.592,293.814 452.592,296.147 450.5,298C 445.589,299.492 440.589,299.826 435.5,299C 433.714,298.215 432.214,297.049 431,295.5C 431.934,291.584 432.934,287.584 434,283.5C 434.907,281.391 436.407,280.058 438.5,279.5 Z M 704.5,292.5 C 717.876,291.036 722.709,296.703 719,309.5C 716.621,317.198 711.454,319.698 703.5,317C 702.069,316.535 700.903,315.701 700,314.5C 699.333,309.5 699.333,304.5 700,299.5C 701.012,296.798 702.512,294.465 704.5,292.5 Z M 652.5,299.5 C 667.097,296.264 672.93,301.931 670,316.5C 663.767,323.881 657.101,324.214 650,317.5C 647.857,312.205 647.524,306.872 649,301.5C 650.302,300.915 651.469,300.249 652.5,299.5 Z M 593.5,309.5 C 602.269,309.984 605.102,314.318 602,322.5C 599.997,330.087 595.164,332.92 587.5,331C 581.359,325.147 581.026,318.814 586.5,312C 588.927,311.098 591.26,310.264 593.5,309.5 Z M 367.5,335.5 C 369.855,336.094 372.022,337.094 374,338.5C 382.444,333.386 386.444,335.72 386,345.5C 382.368,354.9 375.534,359.067 365.5,358C 363.667,357.5 362.5,356.333 362,354.5C 360.892,347.259 362.725,340.925 367.5,335.5 Z M 707.5,336.5 C 711.846,336.334 716.179,336.501 720.5,337C 724.235,338.8 725.902,341.8 725.5,346C 725.853,349.2 724.853,351.867 722.5,354C 711.825,357.495 704.825,353.828 701.5,343C 701.691,338.981 703.691,336.814 707.5,336.5 Z M 310.5,337.5 C 316.987,336.883 323.154,337.883 329,340.5C 333.214,353.076 328.714,359.743 315.5,360.5C 305.99,357.481 302.823,351.147 306,341.5C 307.397,339.93 308.897,338.596 310.5,337.5 Z M 422.5,337.5 C 428.5,337.761 434.167,339.261 439.5,342C 444.222,345.279 444.722,349.113 441,353.5C 439.048,355.894 436.548,357.394 433.5,358C 428.545,359.218 423.545,359.551 418.5,359C 412.398,354.131 411.898,348.631 417,342.5C 418.73,340.598 420.563,338.931 422.5,337.5 Z M 656.5,341.5 C 667.039,341.22 670.872,346.22 668,356.5C 665.197,363.212 660.697,364.712 654.5,361C 652.129,359.257 650.795,356.923 650.5,354C 651.481,349.16 653.481,344.993 656.5,341.5 Z M 584.5,352.5 C 591.674,354.656 599.007,356.156 606.5,357C 608.594,358.255 609.594,360.088 609.5,362.5C 609.414,368.402 606.747,372.569 601.5,375C 596.5,375.667 591.5,375.667 586.5,375C 584.683,373.2 583.516,371.034 583,368.5C 582.003,362.95 582.503,357.617 584.5,352.5 Z M 713.5,377.5 C 726.249,377.3 730.416,383.3 726,395.5C 724.457,397.378 722.624,398.878 720.5,400C 715.307,401.968 709.974,402.634 704.5,402C 699.769,399.044 697.936,394.878 699,389.5C 701.369,382.28 706.202,378.28 713.5,377.5 Z M 668.5,383.5 C 672.683,382.846 675.516,384.512 677,388.5C 679.575,396.304 677.075,401.471 669.5,404C 662.47,406.793 656.303,405.627 651,400.5C 650.333,397.167 650.333,393.833 651,390.5C 652.333,389.833 653.667,389.167 655,388.5C 658.374,390.248 661.874,391.414 665.5,392C 666.937,389.311 667.937,386.477 668.5,383.5 Z M 425.5,385.5 C 429.273,385.263 432.94,385.763 436.5,387C 438.815,388.109 440.315,389.943 441,392.5C 442.141,399.816 441.141,406.816 438,413.5C 437.097,414.701 435.931,415.535 434.5,416C 430.833,416.667 427.167,416.667 423.5,416C 420.898,415.065 419.398,413.232 419,410.5C 419.449,404.134 420.449,397.801 422,391.5C 422.424,388.975 423.59,386.975 425.5,385.5 Z M 376.5,390.5 C 386.758,388.757 391.758,393.091 391.5,403.5C 392.299,416.212 386.633,421.046 374.5,418C 371.043,415.718 369.043,412.552 368.5,408.5C 369.806,404.635 369.806,400.802 368.5,397C 369.589,392.733 372.255,390.566 376.5,390.5 Z M 594.5,396.5 C 608.599,394.762 614.099,400.762 611,414.5C 606.509,419.259 601.009,420.759 594.5,419C 588.491,416.485 585.991,411.985 587,405.5C 588.642,401.7 591.142,398.7 594.5,396.5 Z M 306.5,400.5 C 311.179,400.334 315.845,400.501 320.5,401C 322.167,402.823 323.167,404.99 323.5,407.5C 322.866,412.313 321.699,416.98 320,421.5C 313.541,426.569 307.541,425.903 302,419.5C 301.333,417.5 301.333,415.5 302,413.5C 303.737,409.213 305.237,404.879 306.5,400.5 Z M 165.5,410.5 C 177.267,411.641 179.933,417.141 173.5,427C 168.841,431.005 163.507,432.672 157.5,432C 151.615,429.985 149.782,426.152 152,420.5C 155.609,415.692 160.109,412.358 165.5,410.5 Z M 230.5,410.5 C 239.582,408.66 243.416,412.327 242,421.5C 241.167,424.333 239.333,426.167 236.5,427C 232.428,427.658 228.428,427.325 224.5,426C 221.525,422.582 221.359,418.748 224,414.5C 225.792,412.372 227.958,411.039 230.5,410.5 Z M 98.5,415.5 C 111.122,413.951 116.289,419.285 114,431.5C 108.397,436.778 102.897,436.445 97.5,430.5C 94.7913,425.17 95.1246,420.17 98.5,415.5 Z M 421.5,445.5 C 426.844,445.334 432.177,445.501 437.5,446C 442.087,448.169 444.087,451.836 443.5,457C 443.745,466.047 439.412,469.714 430.5,468C 423.298,464.947 419.298,459.447 418.5,451.5C 418.467,448.898 419.467,446.898 421.5,445.5 Z M 374.5,447.5 C 379.635,446.426 383.468,448.093 386,452.5C 387.379,459.538 386.212,466.038 382.5,472C 373.24,473.478 368.407,469.644 368,460.5C 369.952,457.109 371.285,453.442 372,449.5C 372.995,448.934 373.828,448.267 374.5,447.5 Z M 217.5,453.5 C 222.292,453.732 226.959,454.565 231.5,456C 234.29,458.21 235.123,461.044 234,464.5C 232.062,467.106 229.562,468.939 226.5,470C 221.201,471.145 215.868,471.478 210.5,471C 207.039,468.013 206.539,464.513 209,460.5C 211.464,457.519 214.297,455.186 217.5,453.5 Z M 159.5,455.5 C 161.973,455.799 164.14,456.799 166,458.5C 172.214,454.348 176.714,455.848 179.5,463C 176.852,470.15 171.852,474.65 164.5,476.5C 158.711,476.041 155.045,473.041 153.5,467.5C 154.986,463.194 156.986,459.194 159.5,455.5 Z M 302.5,455.5 C 305.516,456.343 308.183,457.843 310.5,460C 327.582,459.167 331.915,466.167 323.5,481C 318.597,483.179 313.431,484.346 308,484.5C 305.53,484.66 303.364,483.993 301.5,482.5C 300.365,474.549 300.198,466.549 301,458.5C 301.513,457.473 302.013,456.473 302.5,455.5 Z M 111.5,460.5 C 120.818,459.984 124.651,464.318 123,473.5C 122.027,477.406 119.527,479.573 115.5,480C 103.662,482.155 98.1623,477.322 99,465.5C 99.8333,464.667 100.667,463.833 101.5,463C 105.038,462.465 108.372,461.632 111.5,460.5 Z M 221.5,489.5 C 231.7,488.199 236.7,492.699 236.5,503C 234.698,512.411 229.032,516.078 219.5,514C 217.333,513.167 215.833,511.667 215,509.5C 213.307,501.415 215.473,494.748 221.5,489.5 Z M 168.5,495.5 C 183.153,492.32 188.986,497.987 186,512.5C 185.417,514.002 184.584,515.335 183.5,516.5C 167.581,520.749 161.081,514.749 164,498.5C 165.409,497.219 166.909,496.219 168.5,495.5 Z M 420.5,503.5 C 438.816,499.647 445.649,506.647 441,524.5C 439.833,525.667 438.667,526.833 437.5,528C 412.806,533.098 407.14,524.931 420.5,503.5 Z M 108.5,505.5 C 115.372,504.081 119.038,506.747 119.5,513.5C 118.193,527.967 111.526,531.467 99.5,524C 98.2815,522.562 97.6148,520.895 97.5,519C 98.8494,515.957 100.016,512.791 101,509.5C 103.255,507.501 105.755,506.168 108.5,505.5 Z M 384.5,506.5 C 390.897,506.57 393.897,509.903 393.5,516.5C 393.971,525.521 389.804,530.188 381,530.5C 367.673,530.672 362.84,524.338 366.5,511.5C 367.628,510.738 368.795,510.071 370,509.5C 373.949,511.454 377.282,514.121 380,517.5C 381.653,517.18 382.653,516.18 383,514.5C 383.272,511.746 383.772,509.079 384.5,506.5 Z M 309.5,518.5 C 313.514,518.334 317.514,518.501 321.5,519C 323.333,519.5 324.5,520.667 325,522.5C 326.492,527.411 326.826,532.411 326,537.5C 323.347,544.496 318.514,546.663 311.5,544C 302.528,541.377 299.028,535.543 301,526.5C 303.074,522.923 305.907,520.256 309.5,518.5 Z M 221.5,532.5 C 226.913,532.229 232.246,532.729 237.5,534C 242.757,539.744 242.757,545.411 237.5,551C 229.449,551.895 222.949,549.061 218,542.5C 215.554,537.75 216.72,534.417 221.5,532.5 Z M 171.5,537.5 C 184.123,537.146 188.289,543.146 184,555.5C 177.875,560.714 172.208,560.047 167,553.5C 167.008,549.117 167.674,544.784 169,540.5C 169.698,539.309 170.531,538.309 171.5,537.5 Z M 100.5,547.5 C 103.946,549.109 107.279,550.943 110.5,553C 125.747,549.586 129.58,554.752 122,568.5C 120.581,569.46 119.081,570.293 117.5,571C 112.5,571.667 107.5,571.667 102.5,571C 100.513,569.681 99.3459,567.848 99,565.5C 97.7821,560.545 97.4488,555.545 98,550.5C 99.045,549.627 99.8783,548.627 100.5,547.5 Z M 476.5,557.5 C 482.076,558.121 484.41,561.288 483.5,567C 483.916,575.623 480.416,578.123 473,574.5C 471.731,569.422 471.731,564.422 473,559.5C 474.302,558.915 475.469,558.249 476.5,557.5 Z M 224.5,573.5 C 240.754,572.518 245.421,579.352 238.5,594C 232.548,597.248 226.215,598.248 219.5,597C 218.069,596.535 216.903,595.701 216,594.5C 213.666,588.511 214.332,582.844 218,577.5C 219.792,575.372 221.958,574.039 224.5,573.5 Z M 184.5,578.5 C 189.489,578.318 192.655,580.651 194,585.5C 195.829,596.839 190.995,601.839 179.5,600.5C 175.224,600.821 171.224,599.988 167.5,598C 164.399,594.498 163.899,590.665 166,586.5C 167.313,585.427 168.813,584.76 170.5,584.5C 174.3,585.76 177.966,586.927 181.5,588C 182.975,584.979 183.975,581.812 184.5,578.5 Z M 109.5,593.5 C 113.846,593.334 118.179,593.501 122.5,594C 123.416,594.374 124.25,594.874 125,595.5C 130.73,613.104 124.896,618.937 107.5,613C 102.223,610.167 100.723,606 103,600.5C 104.694,597.642 106.861,595.309 109.5,593.5 Z M 498.5,599.5 C 517.433,600.578 536.266,602.578 555,605.5C 557.959,604.902 560.959,604.569 564,604.5C 584.823,605.722 605.656,606.222 626.5,606C 632.947,603.555 639.614,602.388 646.5,602.5C 657.829,603.363 669.162,603.53 680.5,603C 688.99,607.481 691.824,614.315 689,623.5C 687.786,625.049 686.286,626.215 684.5,627C 675.922,627.182 667.422,627.682 659,628.5C 645.391,628.159 631.725,627.826 618,627.5C 609.029,627.642 600.195,628.809 591.5,631C 573.637,632.871 555.804,632.704 538,630.5C 530.466,631.267 522.966,632.267 515.5,633.5C 507.308,631.67 499.141,630.003 491,628.5C 490.333,627.167 490.333,625.833 491,624.5C 492.333,622.5 493.667,620.5 495,618.5C 493.158,611.544 494.325,605.211 498.5,599.5 Z M 308.5,606.5 C 330.148,606.725 351.815,606.891 373.5,607C 386.097,608.662 398.764,609.662 411.5,610C 415.611,611.881 416.944,614.881 415.5,619C 413.333,619.167 411.167,619.333 409,619.5C 403.158,618.33 397.325,618.33 391.5,619.5C 384.23,618.066 376.897,617.066 369.5,616.5C 353.323,616.955 337.156,617.288 321,617.5C 315.474,616.551 309.974,615.551 304.5,614.5C 303.386,613.277 303.219,611.944 304,610.5C 305.397,608.93 306.897,607.596 308.5,606.5 Z M 464.5,623.5 C 468.757,622.597 471.257,624.264 472,628.5C 472.667,636.833 472.667,645.167 472,653.5C 468.206,657.741 464.873,657.408 462,652.5C 461.333,645.167 461.333,637.833 462,630.5C 462.153,627.849 462.987,625.516 464.5,623.5 Z M 379.5,638.5 C 393.837,638.333 408.171,638.5 422.5,639C 427.833,642.333 427.833,645.667 422.5,649C 385.282,649.382 348.115,650.548 311,652.5C 305.524,651.787 300.024,651.287 294.5,651C 291.427,650.303 289.427,648.47 288.5,645.5C 289.364,643.803 290.697,642.637 292.5,642C 296.5,641.667 300.5,641.333 304.5,641C 329.683,640.832 354.683,639.998 379.5,638.5 Z M 199.5,714.5 C 203.938,713.773 206.605,715.607 207.5,720C 205.63,724.877 201.963,727.21 196.5,727C 185.835,727.105 175.168,728.105 164.5,730C 153.176,731 141.843,731.333 130.5,731C 127.57,726.981 128.237,723.647 132.5,721C 153.163,719.334 173.83,717.667 194.5,716C 196.382,715.802 198.048,715.302 199.5,714.5 Z M 194.5,740.5 C 197.794,740.259 200.794,741.092 203.5,743C 204.554,744.388 204.72,745.888 204,747.5C 183.337,756.499 161.837,758.999 139.5,755C 136.713,752.833 135.88,749.999 137,746.5C 138.067,745.809 139.234,745.309 140.5,745C 158.786,745.576 176.786,744.076 194.5,740.5 Z"/></g>
<g><path style="opacity:0.553" fill="#f7724c" d="M 425.5,514.5 C 426.833,514.5 428.167,514.5 429.5,514.5C 429.114,518.738 427.448,519.404 424.5,516.5C 424.863,515.817 425.196,515.15 425.5,514.5 Z"/></g>
<g><path style="opacity:0.812" fill="#f7724c" d="M 510.5,611.5 C 525.824,611.696 541.157,612.863 556.5,615C 561.48,615.41 566.147,616.743 570.5,619C 559.424,619.049 548.424,619.882 537.5,621.5C 528.92,619.916 520.253,619.083 511.5,619C 507.987,616.934 507.654,614.434 510.5,611.5 Z"/></g>
<g><path style="opacity:0.905" fill="#f7724c" d="M 225.5,696.5 C 230.33,696.074 232.997,698.241 233.5,703C 230.654,713.803 230.987,724.469 234.5,735C 233.941,743.384 232.941,751.718 231.5,760C 222.415,761.915 213.415,764.249 204.5,767C 191.879,766.646 179.545,768.312 167.5,772C 150.928,773.232 134.428,774.732 118,776.5C 115.468,775.994 113.302,774.827 111.5,773C 113.075,765.964 114.075,758.797 114.5,751.5C 113.5,742.165 112.5,732.831 111.5,723.5C 111.669,721.161 112.336,718.994 113.5,717C 125.356,716.046 137.023,714.046 148.5,711C 153.167,709 157.833,707 162.5,705C 183.659,702.326 204.659,699.493 225.5,696.5 Z M 199.5,714.5 C 198.048,715.302 196.382,715.802 194.5,716C 173.83,717.667 153.163,719.334 132.5,721C 128.237,723.647 127.57,726.981 130.5,731C 141.843,731.333 153.176,731 164.5,730C 175.168,728.105 185.835,727.105 196.5,727C 201.963,727.21 205.63,724.877 207.5,720C 206.605,715.607 203.938,713.773 199.5,714.5 Z M 194.5,740.5 C 176.786,744.076 158.786,745.576 140.5,745C 139.234,745.309 138.067,745.809 137,746.5C 135.88,749.999 136.713,752.833 139.5,755C 161.837,758.999 183.337,756.499 204,747.5C 204.72,745.888 204.554,744.388 203.5,743C 200.794,741.092 197.794,740.259 194.5,740.5 Z"/></g>
<g><path style="opacity:0.893" fill="#f7724c" d="M 612.5,703.5 C 616.509,703.858 620.509,704.358 624.5,705C 625.701,705.903 626.535,707.069 627,708.5C 629.697,721.486 632.197,734.486 634.5,747.5C 633.977,751.491 632.977,755.324 631.5,759C 629.608,759.973 627.608,760.64 625.5,761C 615.522,762.332 605.522,762.999 595.5,763C 593.113,762.024 591.946,760.191 592,757.5C 590.117,742.163 590.117,726.829 592,711.5C 598.589,707.92 605.422,705.254 612.5,703.5 Z"/></g>
<g><path style="opacity:0.883" fill="#f7724c" d="M 532.5,710.5 C 536.516,709.9 540.016,710.9 543,713.5C 544.999,729.852 544.832,746.185 542.5,762.5C 532.808,762.414 523.142,761.247 513.5,759C 513,758.5 512.5,758 512,757.5C 511.333,753.5 511.333,749.5 512,745.5C 513.805,735.566 515.138,725.566 516,715.5C 516.5,715 517,714.5 517.5,714C 522.705,713.149 527.705,711.982 532.5,710.5 Z"/></g>
<g><path style="opacity:0.9" fill="#f7724c" d="M 356.5,711.5 C 362.176,711.334 367.843,711.501 373.5,712C 374.931,712.465 376.097,713.299 377,714.5C 378.053,721.601 379.553,728.601 381.5,735.5C 380.963,743.549 380.13,751.549 379,759.5C 368.731,761.166 358.397,762.833 348,764.5C 344.825,764.054 341.658,763.554 338.5,763C 337.069,762.535 335.903,761.701 335,760.5C 334.674,750.618 333.84,740.785 332.5,731C 332.644,726.79 333.144,722.624 334,718.5C 335.236,716.462 337.069,715.295 339.5,715C 345.344,714.031 351.011,712.864 356.5,711.5 Z"/></g>
</svg>
