<?xml version="1.0" encoding="UTF-8"?>
<!DOCTYPE svg PUBLIC "-//W3C//DTD SVG 1.1//EN" "http://www.w3.org/Graphics/SVG/1.1/DTD/svg11.dtd">
<svg xmlns="http://www.w3.org/2000/svg" version="1.1" width="801px" height="800px" style="shape-rendering:geometricPrecision; text-rendering:geometricPrecision; image-rendering:optimizeQuality; fill-rule:evenodd; clip-rule:evenodd" xmlns:xlink="http://www.w3.org/1999/xlink">
<g><path fill="#ffffff" d="M 305.5,39.5 C 381.834,40.7556 458.167,40.7556 534.5,39.5C 539.85,39.8167 545.184,40.3167 550.5,41C 551.667,41.5 552.5,42.3333 553,43.5C 553.402,276.808 553.569,510.141 553.5,743.5C 553.333,748.5 553.167,753.5 553,758.5C 552.626,759.416 552.126,760.25 551.5,761C 545.139,762.939 538.639,764.106 532,764.5C 514.009,764.039 496.009,763.039 478,761.5C 471.387,762.889 464.721,763.889 458,764.5C 440.009,764.039 422.009,763.039 404,761.5C 397.387,762.889 390.721,763.889 384,764.5C 366.009,764.039 348.009,763.039 330,761.5C 317.254,765.083 304.421,765.416 291.5,762.5C 280.843,763.257 270.176,763.09 259.5,762C 256.993,761.907 254.826,761.074 253,759.5C 251.734,754.573 250.901,749.573 250.5,744.5C 250.755,729.845 250.755,715.179 250.5,700.5C 250.568,694.928 251.234,689.428 252.5,684C 251.562,679.539 250.895,675.039 250.5,670.5C 250.755,655.845 250.755,641.179 250.5,626.5C 250.568,620.928 251.234,615.428 252.5,610C 251.562,605.539 250.895,601.039 250.5,596.5C 250.755,581.845 250.755,567.179 250.5,552.5C 250.568,546.928 251.234,541.428 252.5,536C 251.562,531.539 250.895,527.039 250.5,522.5C 250.755,507.845 250.755,493.179 250.5,478.5C 250.568,472.928 251.234,467.428 252.5,462C 251.562,457.539 250.895,453.039 250.5,448.5C 250.755,433.845 250.755,419.179 250.5,404.5C 250.568,398.928 251.234,393.428 252.5,388C 251.562,383.539 250.895,379.039 250.5,374.5C 250.755,359.845 250.755,345.179 250.5,330.5C 250.568,324.928 251.234,319.428 252.5,314C 251.562,309.539 250.895,305.039 250.5,300.5C 250.755,285.845 250.755,271.179 250.5,256.5C 250.568,250.928 251.234,245.428 252.5,240C 251.562,235.539 250.895,231.039 250.5,226.5C 250.755,211.845 250.755,197.179 250.5,182.5C 250.568,176.928 251.234,171.428 252.5,166C 251.562,161.539 250.895,157.039 250.5,152.5C 250.755,137.845 250.755,123.179 250.5,108.5C 250.568,102.928 251.234,97.4276 252.5,92C 251.562,87.5395 250.895,83.0395 250.5,78.5C 251.71,72.0058 251.71,65.5058 250.5,59C 250.853,53.8194 251.353,48.6527 252,43.5C 252.5,42.3333 253.333,41.5 254.5,41C 271.672,40.8316 288.672,40.3316 305.5,39.5 Z M 386.5,85.5 C 420.024,82.2473 448.191,92.914 471,117.5C 478.833,128.164 484.833,139.831 489,152.5C 495.131,176.874 491.797,199.874 479,221.5C 472.667,229.167 466.333,236.833 460,244.5C 427.802,267.137 393.969,269.97 358.5,253C 351.68,247.424 344.68,242.091 337.5,237C 307.634,200.892 304.801,162.725 329,122.5C 344.437,104.204 363.603,91.8708 386.5,85.5 Z M 390.5,312.5 C 412.825,311.666 433.825,316.499 453.5,327C 478.892,347.287 491.892,373.787 492.5,406.5C 489.668,431.996 479.001,453.496 460.5,471C 434.704,489.48 406.371,494.813 375.5,487C 336.691,472.254 315.691,444.087 312.5,402.5C 313.527,383.589 318.694,365.922 328,349.5C 337.193,340.311 347.026,331.811 357.5,324C 360.167,322.667 362.833,321.333 365.5,320C 374.151,318.168 382.484,315.668 390.5,312.5 Z M 397.5,538.5 C 418.436,538.474 437.769,543.974 455.5,555C 496.881,592.701 503.047,635.534 474,683.5C 443.454,716.959 406.954,725.459 364.5,709C 332.035,692.61 314.702,666.11 312.5,629.5C 313.03,620.016 314.53,610.683 317,601.5C 321.186,592.618 325.186,583.618 329,574.5C 337.958,565.202 347.791,557.036 358.5,550C 362.271,547.781 366.271,546.115 370.5,545C 379.85,543.768 388.85,541.602 397.5,538.5 Z"/></g>
</svg>
