<?xml version="1.0" encoding="UTF-8"?>
<!DOCTYPE svg PUBLIC "-//W3C//DTD SVG 1.1//EN" "http://www.w3.org/Graphics/SVG/1.1/DTD/svg11.dtd">
<svg xmlns="http://www.w3.org/2000/svg" version="1.1" width="512px" height="512px" style="shape-rendering:geometricPrecision; text-rendering:geometricPrecision; image-rendering:optimizeQuality; fill-rule:evenodd; clip-rule:evenodd" xmlns:xlink="http://www.w3.org/1999/xlink">
<g><path style="opacity:0.988" fill="#333" d="M 238.5,9.5 C 248.5,9.5 258.5,9.5 268.5,9.5C 268.5,21.8333 268.5,34.1667 268.5,46.5C 275.167,46.5 281.833,46.5 288.5,46.5C 288.5,178.5 288.5,310.5 288.5,442.5C 265.167,442.5 241.833,442.5 218.5,442.5C 218.5,310.5 218.5,178.5 218.5,46.5C 225.167,46.5 231.833,46.5 238.5,46.5C 238.5,34.1667 238.5,21.8333 238.5,9.5 Z"/></g>
<g><path style="opacity:0.983" fill="#333" d="M 129.5,172.5 C 149.5,172.5 169.5,172.5 189.5,172.5C 189.5,262.5 189.5,352.5 189.5,442.5C 169.5,442.5 149.5,442.5 129.5,442.5C 129.5,352.5 129.5,262.5 129.5,172.5 Z"/></g>
<g><path style="opacity:0.973" fill="#333" d="M 317.5,224.5 C 337.833,224.5 358.167,224.5 378.5,224.5C 378.5,297.167 378.5,369.833 378.5,442.5C 358.167,442.5 337.833,442.5 317.5,442.5C 317.5,369.833 317.5,297.167 317.5,224.5 Z"/></g>
<g><path style="opacity:0.982" fill="#333" d="M 407.5,312.5 C 427.833,312.5 448.167,312.5 468.5,312.5C 468.5,355.833 468.5,399.167 468.5,442.5C 448.167,442.5 427.833,442.5 407.5,442.5C 407.5,399.167 407.5,355.833 407.5,312.5 Z"/></g>
<g><path style="opacity:0.964" fill="#333" d="M 42.5,347.5 C 61.8333,347.5 81.1667,347.5 100.5,347.5C 100.5,379.167 100.5,410.833 100.5,442.5C 81.1667,442.5 61.8333,442.5 42.5,442.5C 42.5,410.833 42.5,379.167 42.5,347.5 Z"/></g>
<g><path style="opacity:0.978" fill="#333" d="M -0.5,471.5 C 170.167,471.5 340.833,471.5 511.5,471.5C 511.5,481.5 511.5,491.5 511.5,501.5C 340.833,501.5 170.167,501.5 -0.5,501.5C -0.5,491.5 -0.5,481.5 -0.5,471.5 Z"/></g>
</svg>
