<?xml version="1.0" encoding="UTF-8"?>
<!DOCTYPE svg PUBLIC "-//W3C//DTD SVG 1.1//EN" "http://www.w3.org/Graphics/SVG/1.1/DTD/svg11.dtd">
<svg xmlns="http://www.w3.org/2000/svg" version="1.1" width="512px" height="512px" style="shape-rendering:geometricPrecision; text-rendering:geometricPrecision; image-rendering:optimizeQuality; fill-rule:evenodd; clip-rule:evenodd" xmlns:xlink="http://www.w3.org/1999/xlink">
<g><path fill="#414042" d="M 266.5,64.5 C 269.425,64.4598 272.091,65.2932 274.5,67C 314.833,90.5 355.167,114 395.5,137.5C 394.586,139.664 393.419,141.664 392,143.5C 350.99,119.817 309.99,96.1505 269,72.5C 228,95.8333 187,119.167 146,142.5C 143.088,140.979 142.254,138.813 143.5,136C 184.891,112.645 225.891,88.8115 266.5,64.5 Z"/></g>
<g><path fill="#414042" d="M 266.5,80.5 C 269.425,80.4598 272.091,81.2932 274.5,83C 304.082,100.04 333.582,117.207 363,134.5C 363.5,238.833 363.667,343.166 363.5,447.5C 346.5,447.5 329.5,447.5 312.5,447.5C 312.5,378.5 312.5,309.5 312.5,240.5C 320.543,243.689 328.209,247.689 335.5,252.5C 337.472,251.695 338.972,250.361 340,248.5C 341.966,244.374 344.132,240.374 346.5,236.5C 345.687,235.186 344.687,234.019 343.5,233C 300.167,208 256.833,183 213.5,158C 209.887,157.792 206.554,158.792 203.5,161C 194.331,166.752 184.998,172.252 175.5,177.5C 174.334,163.178 174.167,148.845 175,134.5C 205.67,116.637 236.17,98.6366 266.5,80.5 Z"/></g>
<g><path fill="#414042" d="M 210.5,164.5 C 253.333,188.413 295.667,213.08 337.5,238.5C 336.624,243.046 334.291,244.213 330.5,242C 290.939,218.929 251.272,196.096 211.5,173.5C 172.708,195.398 134.041,217.564 95.5,240C 92.9417,241.626 90.275,242.626 87.5,243C 85.5586,241.184 84.8919,239.184 85.5,237C 127.557,213.312 169.224,189.145 210.5,164.5 Z"/></g>
<g><path fill="#414042" d="M 209.5,181.5 C 211.655,181.372 213.655,181.872 215.5,183C 245.167,200.167 274.833,217.333 304.5,234.5C 305.5,305.497 305.833,376.497 305.5,447.5C 293.5,447.5 281.5,447.5 269.5,447.5C 269.5,402.5 269.5,357.5 269.5,312.5C 276.544,315.189 283.21,318.689 289.5,323C 291.167,323.667 292.833,323.667 294.5,323C 297.749,318.503 300.749,313.837 303.5,309C 302.743,307.488 301.743,306.154 300.5,305C 256.908,280.399 213.575,255.399 170.5,230C 168.833,229.333 167.167,229.333 165.5,230C 149.392,239.717 133.059,248.883 116.5,257.5C 116.186,249.913 116.519,242.413 117.5,235C 148.393,217.392 179.06,199.559 209.5,181.5 Z"/></g>
<g><path fill="#414042" d="M 167.5,236.5 C 210.333,260.413 252.667,285.08 294.5,310.5C 292.931,316.258 289.931,317.092 285.5,313C 246.725,289.861 207.558,267.361 168,245.5C 128.768,267.867 89.6012,290.367 50.5,313C 44.9722,316.765 42.3055,315.431 42.5,309C 84.2295,284.807 125.896,260.64 167.5,236.5 Z"/></g>
<g><path fill="#414042" d="M 167.5,252.5 C 198.806,270.488 230.139,288.488 261.5,306.5C 262.5,353.495 262.833,400.495 262.5,447.5C 199.5,447.5 136.5,447.5 73.5,447.5C 73.3333,400.832 73.5,354.165 74,307.5C 105.148,289.014 136.314,270.681 167.5,252.5 Z M 95.5,348.5 C 106.167,348.5 116.833,348.5 127.5,348.5C 127.5,358.833 127.5,369.167 127.5,379.5C 116.833,379.5 106.167,379.5 95.5,379.5C 95.5,369.167 95.5,358.833 95.5,348.5 Z M 143.5,348.5 C 154.167,348.5 164.833,348.5 175.5,348.5C 175.5,358.833 175.5,369.167 175.5,379.5C 164.833,379.5 154.167,379.5 143.5,379.5C 143.5,369.167 143.5,358.833 143.5,348.5 Z M 95.5,396.5 C 106.167,396.5 116.833,396.5 127.5,396.5C 127.5,406.833 127.5,417.167 127.5,427.5C 116.833,427.5 106.167,427.5 95.5,427.5C 95.5,417.167 95.5,406.833 95.5,396.5 Z M 143.5,396.5 C 154.167,396.5 164.833,396.5 175.5,396.5C 175.5,406.833 175.5,417.167 175.5,427.5C 164.833,427.5 154.167,427.5 143.5,427.5C 143.5,417.167 143.5,406.833 143.5,396.5 Z"/></g>
<g><path fill="#414042" d="M 370.5,255.5 C 403.724,274.045 436.724,293.045 469.5,312.5C 468.586,314.664 467.419,316.664 466,318.5C 434.333,300.167 402.667,281.833 371,263.5C 370.503,260.854 370.336,258.187 370.5,255.5 Z"/></g>
<g><path fill="#414042" d="M 370.5,271.5 C 395.551,285.443 420.384,299.776 445,314.5C 445.5,358.832 445.667,403.165 445.5,447.5C 441.167,447.5 436.833,447.5 432.5,447.5C 432.667,422.831 432.5,398.164 432,373.5C 431.5,373 431,372.5 430.5,372C 417.5,371.333 404.5,371.333 391.5,372C 391,372.5 390.5,373 390,373.5C 389.5,398.164 389.333,422.831 389.5,447.5C 383.167,447.5 376.833,447.5 370.5,447.5C 370.5,388.833 370.5,330.167 370.5,271.5 Z"/></g>
<g><path fill="#414042" d="M 396.5,378.5 C 406.167,378.5 415.833,378.5 425.5,378.5C 425.5,401.5 425.5,424.5 425.5,447.5C 415.833,447.5 406.167,447.5 396.5,447.5C 396.5,424.5 396.5,401.5 396.5,378.5 Z"/></g>
</svg>
