<?xml version="1.0" encoding="UTF-8"?>
<!DOCTYPE svg PUBLIC "-//W3C//DTD SVG 1.1//EN" "http://www.w3.org/Graphics/SVG/1.1/DTD/svg11.dtd">
<svg xmlns="http://www.w3.org/2000/svg" version="1.1" width="512px" height="512px" style="shape-rendering:geometricPrecision; text-rendering:geometricPrecision; image-rendering:optimizeQuality; fill-rule:evenodd; clip-rule:evenodd" xmlns:xlink="http://www.w3.org/1999/xlink">
<g><path fill="#2a75c5d6" d="M 140.5,79.5 C 177.317,78.1365 212.984,83.8031 247.5,96.5C 247.667,189.501 247.5,282.501 247,375.5C 184.555,352.893 122.055,352.893 59.5,375.5C 58.3333,282.835 58.1667,190.168 59,97.5C 85.4497,87.7124 112.616,81.7124 140.5,79.5 Z"/></g>
<g><path fill="#2a75c5d6" d="M 341.5,79.5 C 379.595,78.0127 416.428,84.0127 452,97.5C 452.833,190.168 452.667,282.835 451.5,375.5C 388.943,352.916 326.443,352.916 264,375.5C 263.5,282.501 263.333,189.501 263.5,96.5C 288.886,87.4913 314.886,81.8247 341.5,79.5 Z"/></g>
<g><path fill="#2a75c5d6" d="M 11.5,142.5 C 22.1667,142.5 32.8333,142.5 43.5,142.5C 43.3333,225.167 43.5,307.834 44,390.5C 45.8703,393.018 48.3703,394.352 51.5,394.5C 93.7109,378.017 137.378,371.851 182.5,376C 207.609,379.194 231.942,385.36 255.5,394.5C 322.418,368.024 389.418,367.857 456.5,394C 460.793,395.202 464.293,394.035 467,390.5C 467.5,307.834 467.667,225.167 467.5,142.5C 478.167,142.5 488.833,142.5 499.5,142.5C 499.5,238.167 499.5,333.833 499.5,429.5C 475.331,424.472 450.998,420.305 426.5,417C 379.861,410.972 333.528,412.638 287.5,422C 276.674,424.665 266.007,427.831 255.5,431.5C 219.106,418.74 181.606,412.74 143,413.5C 123.428,413.458 103.928,414.624 84.5,417C 60.0031,420.305 35.6698,424.472 11.5,429.5C 11.5,333.833 11.5,238.167 11.5,142.5 Z"/></g>
</svg>
