<?xml version="1.0" encoding="UTF-8"?>
<!DOCTYPE svg PUBLIC "-//W3C//DTD SVG 1.1//EN" "http://www.w3.org/Graphics/SVG/1.1/DTD/svg11.dtd">
<svg xmlns="http://www.w3.org/2000/svg" version="1.1" width="801px" height="800px" style="shape-rendering:geometricPrecision; text-rendering:geometricPrecision; image-rendering:optimizeQuality; fill-rule:evenodd; clip-rule:evenodd" xmlns:xlink="http://www.w3.org/1999/xlink">
<g><path style="opacity:0.956" fill="#f7724c" d="M 467.5,303.5 C 495.835,303.333 524.169,303.5 552.5,304C 560.728,305.267 568.895,306.767 577,308.5C 582.379,308.125 587.712,307.458 593,306.5C 598.067,306.548 603.234,306.715 608.5,307C 631.838,312.7 655.505,315.7 679.5,316C 694.465,318.229 709.131,321.563 723.5,326C 728.446,327.806 733.112,330.139 737.5,333C 739.041,334.579 740.208,336.413 741,338.5C 747.009,359.527 754.009,380.194 762,400.5C 763.093,407.821 764.093,415.154 765,422.5C 768.524,440.701 772.858,458.701 778,476.5C 778.026,511.178 777.526,545.845 776.5,580.5C 778.124,590.746 780.124,600.913 782.5,611C 781.899,612.605 780.899,613.938 779.5,615C 752.204,617.547 724.87,617.88 697.5,616C 696.299,615.097 695.465,613.931 695,612.5C 693.966,599.065 690.299,586.398 684,574.5C 676.29,567.122 667.123,562.956 656.5,562C 646.833,561.333 637.167,561.333 627.5,562C 604.96,562.846 589.46,573.68 581,594.5C 579.078,601.274 576.578,607.774 573.5,614C 564.096,614.343 554.763,615.343 545.5,617C 518.321,617.16 491.154,617.327 464,617.5C 436.219,614.982 408.385,613.316 380.5,612.5C 364.859,613.746 349.192,614.579 333.5,615C 324.291,617.228 314.958,617.895 305.5,617C 303.671,616.727 302.171,615.893 301,614.5C 298.901,599.308 294.234,584.975 287,571.5C 274.186,557.444 258.186,550.777 239,551.5C 226.97,551.544 216.136,555.044 206.5,562C 201.327,567.174 197.827,573.341 196,580.5C 190.375,588.915 184.875,597.415 179.5,606C 154.057,601.977 128.723,596.977 103.5,591C 97.5,590.667 91.5,590.333 85.5,590C 77.6319,587.7 69.6319,586.033 61.5,585C 61,584.5 60.5,584 60,583.5C 60.6638,577.001 60.4971,570.501 59.5,564C 58.8773,555.267 62.544,552.267 70.5,555C 77.4027,557.702 84.2361,560.536 91,563.5C 94.5,563.333 96.3333,561.5 96.5,558C 96.3569,555.849 95.3569,554.182 93.5,553C 85.6018,548.812 77.2685,545.812 68.5,544C 65.5228,542.855 63.8561,540.688 63.5,537.5C 64.7742,532.175 64.7742,526.842 63.5,521.5C 64.6671,515.499 65.8337,509.499 67,503.5C 67.0643,491.744 68.0643,480.077 70,468.5C 74.116,446.453 78.4493,424.453 83,402.5C 87.0581,383.66 92.7247,365.326 100,347.5C 103.54,342.923 106.706,338.09 109.5,333C 117.279,329.407 125.279,326.407 133.5,324C 150.717,325.371 167.717,324.037 184.5,320C 203.014,318.226 221.514,316.393 240,314.5C 256.15,315.614 272.317,315.781 288.5,315C 302.468,313.676 316.468,312.676 330.5,312C 344.517,308.678 358.683,307.511 373,308.5C 377.847,307.564 382.68,306.564 387.5,305.5C 406.65,305.425 425.817,305.759 445,306.5C 452.607,305.239 460.107,304.239 467.5,303.5 Z M 191.5,345.5 C 203.843,345.702 216.176,346.202 228.5,347C 229,347.5 229.5,348 230,348.5C 230.359,354.883 229.859,361.216 228.5,367.5C 228.802,393.707 229.135,419.874 229.5,446C 227.95,451.535 224.284,453.869 218.5,453C 204.808,453.978 191.142,455.145 177.5,456.5C 160.869,454.669 144.202,453.169 127.5,452C 124.335,449.844 122.668,446.844 122.5,443C 123.18,437.372 123.18,431.705 122.5,426C 123.505,417.639 124.838,409.306 126.5,401C 125.333,393.821 125.5,386.655 127,379.5C 129.073,373.947 130.74,368.28 132,362.5C 133.5,361 135,359.5 136.5,358C 154.28,350.822 172.613,346.655 191.5,345.5 Z M 415.5,346.5 C 429.471,348.059 443.471,349.559 457.5,351C 458.931,351.465 460.097,352.299 461,353.5C 461.892,366.94 461.058,380.273 458.5,393.5C 459.282,408.872 458.616,424.205 456.5,439.5C 457.887,447.529 457.72,455.529 456,463.5C 455.5,464.667 454.667,465.5 453.5,466C 445.527,465.844 437.527,465.511 429.5,465C 418.897,463.175 408.231,461.841 397.5,461C 395.5,460.333 393.5,459.667 391.5,459C 384.104,458.849 376.771,458.182 369.5,457C 368.667,456.167 367.833,455.333 367,454.5C 367.227,448.679 367.727,442.846 368.5,437C 367.794,429.186 368.128,421.352 369.5,413.5C 367.282,399.016 364.449,384.683 361,370.5C 360.149,364.747 360.483,359.08 362,353.5C 367.6,351.267 373.433,349.767 379.5,349C 391.647,348.055 403.647,347.222 415.5,346.5 Z M 263.5,348.5 C 271.966,348.686 280.299,349.852 288.5,352C 300.167,352.333 311.833,352.667 323.5,353C 327.188,353.19 330.688,354.024 334,355.5C 335.552,386.668 337.052,417.835 338.5,449C 337.856,452.579 335.689,454.412 332,454.5C 324.445,453.698 316.945,452.531 309.5,451C 292.513,451.003 275.513,450.337 258.5,449C 257.692,448.692 257.025,448.192 256.5,447.5C 256.841,420.019 256.841,392.519 256.5,365C 256.594,361.112 257.094,357.279 258,353.5C 259.107,350.887 260.94,349.22 263.5,348.5 Z M 525.5,351.5 C 534.655,351.13 543.655,352.13 552.5,354.5C 557.483,353.577 562.483,353.41 567.5,354C 578.452,356.123 589.452,358.123 600.5,360C 605.81,360.474 608.477,363.307 608.5,368.5C 607.857,377.053 606.857,385.553 605.5,394C 605.884,397.996 606.218,401.996 606.5,406C 605.357,420.148 604.523,434.315 604,448.5C 602.035,452.583 598.869,455.416 594.5,457C 578.565,459.104 562.565,460.604 546.5,461.5C 544.015,461.057 541.515,460.724 539,460.5C 528.242,462.933 517.409,465.099 506.5,467C 500.5,467.667 494.5,467.667 488.5,467C 486.185,465.704 485.185,463.704 485.5,461C 490.104,425.842 494.604,390.676 499,355.5C 500.47,353.848 502.303,352.848 504.5,352.5C 511.722,354.005 518.722,353.672 525.5,351.5 Z M 700.5,362.5 C 709.173,362.334 717.84,362.5 726.5,363C 727.667,363.5 728.5,364.333 729,365.5C 734.268,381.222 738.934,397.222 743,413.5C 743.802,423.646 745.469,433.646 748,443.5C 749.088,451.36 748.421,459.026 746,466.5C 744.786,468.049 743.286,469.215 741.5,470C 723.423,470.422 705.423,470.088 687.5,469C 684.13,464.074 682.796,458.574 683.5,452.5C 684.623,434.827 685.623,417.16 686.5,399.5C 683.813,389.993 682.98,380.326 684,370.5C 685.731,368.383 687.898,366.883 690.5,366C 693.98,364.897 697.313,363.731 700.5,362.5 Z M 134.5,483.5 C 152.903,485.477 171.403,486.81 190,487.5C 197.634,486.174 205.301,485.174 213,484.5C 229.693,485.215 246.359,486.215 263,487.5C 288.676,486.902 314.342,487.569 340,489.5C 348.905,487.878 357.739,488.212 366.5,490.5C 369.481,490.002 372.481,489.668 375.5,489.5C 391.817,491.767 408.15,492.433 424.5,491.5C 453.467,492.208 482.467,492.875 511.5,493.5C 531.965,491.66 552.465,490.326 573,489.5C 577.191,489.107 580.358,490.607 582.5,494C 581.403,496.765 579.403,498.431 576.5,499C 567.509,499.021 558.676,500.188 550,502.5C 546.192,501.927 542.359,501.594 538.5,501.5C 518.181,503.499 497.847,504.499 477.5,504.5C 470.877,503.396 464.21,502.729 457.5,502.5C 440.306,503.419 423.139,503.753 406,503.5C 386.251,501.156 366.418,499.489 346.5,498.5C 341.992,498.73 337.492,499.063 333,499.5C 320.387,497.281 307.72,496.948 295,498.5C 275.675,497.549 256.342,496.549 237,495.5C 198.625,496.552 160.292,496.552 122,495.5C 116.76,495.293 115.594,493.126 118.5,489C 123.604,486.232 128.937,484.398 134.5,483.5 Z M 618.5,487.5 C 630.171,487.333 641.838,487.5 653.5,488C 671.644,489.402 689.811,490.569 708,491.5C 717.021,490.5 726.021,490.834 735,492.5C 739.888,491.055 744.722,491.222 749.5,493C 752.987,494.95 753.321,497.283 750.5,500C 748.754,500.471 747.087,501.138 745.5,502C 734.78,502.708 724.114,502.208 713.5,500.5C 708.771,500.733 704.104,501.399 699.5,502.5C 679.325,500.512 659.158,498.512 639,496.5C 630.605,498.285 622.438,497.619 614.5,494.5C 613.585,493.672 612.919,492.672 612.5,491.5C 614.01,489.311 616.01,487.977 618.5,487.5 Z M 752.5,542.5 C 756.973,542.327 761.14,543.327 765,545.5C 769.246,556.771 770.913,568.438 770,580.5C 763.654,595.326 754.654,597.326 743,586.5C 737.219,577.563 735.886,567.896 739,557.5C 740.61,549.731 745.11,544.731 752.5,542.5 Z"/></g>
<g><path style="opacity:0.908" fill="#f7724c" d="M 753.5,554.5 C 755.752,554.916 757.252,556.249 758,558.5C 759.806,564.865 759.806,571.199 758,577.5C 753.952,580.647 751.285,579.647 750,574.5C 748.524,569.924 748.19,565.257 749,560.5C 749.804,557.854 751.304,555.854 753.5,554.5 Z"/></g>
<g><path style="opacity:0.97" fill="#f7724c" d="M 229.5,563.5 C 238.843,563.756 248.176,564.256 257.5,565C 263.923,566.134 269.423,568.968 274,573.5C 288.343,594.565 292.677,617.565 287,642.5C 283.938,653.229 277.105,660.396 266.5,664C 256.074,667.307 245.407,668.307 234.5,667C 227.536,665.176 220.536,663.509 213.5,662C 201.578,658.413 193.078,650.913 188,639.5C 184.712,627.391 186.378,616.058 193,605.5C 200.25,594.669 207.25,583.669 214,572.5C 219.097,569.205 224.263,566.205 229.5,563.5 Z M 235.5,600.5 C 245.55,603.186 255.217,607.019 264.5,612C 269.154,615.624 270.321,620.124 268,625.5C 263.561,634.988 256.061,640.488 245.5,642C 232.8,644.065 223.3,639.565 217,628.5C 214.917,620.186 216.75,613.02 222.5,607C 226.657,604.255 230.99,602.088 235.5,600.5 Z"/></g>
<g><path style="opacity:0.952" fill="#f7724c" d="M 636.5,570.5 C 648.285,569.794 659.285,572.294 669.5,578C 676.39,585.279 681.056,593.779 683.5,603.5C 683.886,613.841 683.386,624.174 682,634.5C 676.152,652.53 663.652,662.03 644.5,663C 633.83,663.185 623.163,662.852 612.5,662C 599.234,655.05 590.734,644.217 587,629.5C 585.738,624.213 585.404,618.88 586,613.5C 588.862,607.248 591.528,600.915 594,594.5C 597.167,590 600.333,585.5 603.5,581C 606.557,578.277 609.89,575.944 613.5,574C 621.315,572.919 628.982,571.752 636.5,570.5 Z M 636.5,596.5 C 639.556,597.296 642.556,598.296 645.5,599.5C 648.359,598.401 651.026,598.901 653.5,601C 661.78,612.051 661.113,622.384 651.5,632C 643.527,635.888 635.194,636.555 626.5,634C 618.944,629.152 616.444,622.318 619,613.5C 621.423,604.243 627.256,598.576 636.5,596.5 Z"/></g>
<g><path style="opacity:0.914" fill="#f7724c" d="M 639.5,607.5 C 645.764,607.764 649.097,611.097 649.5,617.5C 648,622.675 644.5,624.675 639,623.5C 626.027,623.428 624.194,618.928 633.5,610C 635.611,609.155 637.611,608.322 639.5,607.5 Z"/></g>
<g><path style="opacity:0.939" fill="#f7724c" d="M 233.5,612.5 C 242.27,611.887 249.27,615.054 254.5,622C 248.72,631.367 240.72,633.7 230.5,629C 226.039,622.475 227.039,616.975 233.5,612.5 Z"/></g>
</svg>
