<?xml version="1.0" encoding="UTF-8"?>
<!DOCTYPE svg PUBLIC "-//W3C//DTD SVG 1.1//EN" "http://www.w3.org/Graphics/SVG/1.1/DTD/svg11.dtd">
<svg xmlns="http://www.w3.org/2000/svg" version="1.1" width="800px" height="800px" style="shape-rendering:geometricPrecision; text-rendering:geometricPrecision; image-rendering:optimizeQuality; fill-rule:evenodd; clip-rule:evenodd" xmlns:xlink="http://www.w3.org/1999/xlink">
<g><path style="opacity:0.965" fill="#f7724c" d="M 378.5,102.5 C 387.372,101.656 395.872,102.989 404,106.5C 424.593,105.555 445.093,106.721 465.5,110C 500.806,116.273 535.806,123.94 570.5,133C 581.833,138.333 593.167,143.667 604.5,149C 608.51,150.34 612.51,151.673 616.5,153C 618.286,153.785 619.786,154.951 621,156.5C 622.128,162.897 622.628,169.397 622.5,176C 620.844,202.873 620.511,229.706 621.5,256.5C 620.88,262.671 620.214,268.838 619.5,275C 619.54,294.031 619.873,313.031 620.5,332C 620.354,337.398 619.687,342.731 618.5,348C 619.146,359.508 619.48,371.008 619.5,382.5C 619.14,386.517 618.64,390.517 618,394.5C 617.692,395.308 617.192,395.975 616.5,396.5C 611.333,388.167 606.167,379.833 601,371.5C 598.401,367.536 596.901,363.203 596.5,358.5C 596.754,343 597.087,327.5 597.5,312C 595.862,292.878 594.862,273.712 594.5,254.5C 595.053,235.652 595.72,216.818 596.5,198C 595.426,190.818 594.26,183.651 593,176.5C 567.873,168.006 542.373,166.839 516.5,173C 502.56,172.99 488.726,174.157 475,176.5C 456.511,176.302 438.011,175.968 419.5,175.5C 413.92,175.559 408.42,176.226 403,177.5C 395.772,175.74 388.439,174.74 381,174.5C 363.558,173.733 346.058,173.733 328.5,174.5C 311.215,172.759 293.882,172.592 276.5,174C 269.776,174.843 263.109,176.01 256.5,177.5C 249.293,175.153 241.959,173.32 234.5,172C 224.261,171.862 214.094,171.029 204,169.5C 199.447,170.385 196.447,173.052 195,177.5C 193.907,183.484 192.907,189.484 192,195.5C 191.927,215.72 191.76,235.887 191.5,256C 191.754,272.852 192.421,289.685 193.5,306.5C 191.227,322.423 189.727,338.423 189,354.5C 185.089,359.322 181.422,364.322 178,369.5C 176.756,375.111 175.756,380.778 175,386.5C 173.834,389.503 172.167,392.17 170,394.5C 169.411,379.479 168.578,364.479 167.5,349.5C 168.722,331.843 169.722,314.176 170.5,296.5C 168.469,287.782 167.136,278.949 166.5,270C 167.384,252.125 168.717,234.292 170.5,216.5C 169.403,204.527 170.403,192.694 173.5,181C 173.126,178.505 172.792,176.005 172.5,173.5C 173.192,165.848 173.692,158.181 174,150.5C 176.875,147.537 180.375,145.704 184.5,145C 202.905,141.42 220.905,136.42 238.5,130C 262.269,125.807 285.936,121.141 309.5,116C 323.333,110.75 337.666,108.417 352.5,109C 361.325,106.929 369.991,104.762 378.5,102.5 Z"/></g>
<g><path style="opacity:0.94" fill="#f7724c" d="M 216.5,799.5 C 200.833,799.5 185.167,799.5 169.5,799.5C 174.113,788.941 179.28,778.608 185,768.5C 185.241,763.241 182.574,760.908 177,761.5C 169.468,762.7 161.968,762.7 154.5,761.5C 152.84,754.577 152.34,747.577 153,740.5C 153.772,739.151 154.939,738.318 156.5,738C 160.686,737.427 164.853,737.594 169,738.5C 179.89,737.388 190.724,736.222 201.5,735C 205.275,726.609 208.942,718.109 212.5,709.5C 212.392,708.558 212.059,707.725 211.5,707C 201.089,706.205 190.755,704.872 180.5,703C 177.63,699.197 176.296,694.864 176.5,690C 175.969,682.909 179.303,679.909 186.5,681C 187.931,680.535 189.097,679.701 190,678.5C 190.253,673.961 190.753,669.461 191.5,665C 189.987,654.235 189.154,643.401 189,632.5C 188.937,628.575 187.771,625.075 185.5,622C 178.009,621.073 170.509,620.239 163,619.5C 153.826,620.358 144.66,620.858 135.5,621C 129.776,620.276 126.276,617.109 125,611.5C 121.121,585.216 119.955,558.883 121.5,532.5C 120.918,528.845 120.418,525.178 120,521.5C 119.711,505.276 119.544,489.11 119.5,473C 121.795,428.961 124.461,384.961 127.5,341C 126.723,334.682 126.057,328.349 125.5,322C 126.703,314.212 127.369,306.378 127.5,298.5C 126.277,288.663 126.277,278.83 127.5,269C 127.37,261.897 126.703,254.897 125.5,248C 127.007,239.941 128.007,231.775 128.5,223.5C 127.277,213.996 127.277,204.496 128.5,195C 127.717,187.97 126.717,180.97 125.5,174C 125.696,170.733 127.03,168.066 129.5,166C 138.919,159.528 149.253,155.862 160.5,155C 161.191,156.067 161.691,157.234 162,158.5C 160.197,192.34 158.03,226.174 155.5,260C 157.025,273.942 157.692,287.942 157.5,302C 157.583,337.337 157.25,372.671 156.5,408C 157.158,415.466 158.992,422.633 162,429.5C 167.051,434.274 172.551,438.44 178.5,442C 187.328,443.72 195.994,446.053 204.5,449C 219.158,450.666 233.825,452.332 248.5,454C 288.977,462.695 329.81,469.195 371,473.5C 380.198,472.27 389.365,472.27 398.5,473.5C 407.8,470.901 417.133,468.401 426.5,466C 445.679,462.689 465.013,460.689 484.5,460C 494.258,457.287 503.925,454.287 513.5,451C 528.508,450.513 543.508,449.846 558.5,449C 571.553,446.823 584.553,444.323 597.5,441.5C 597.617,443.484 596.95,445.15 595.5,446.5C 592.017,449.739 588.35,452.739 584.5,455.5C 579.812,462.201 574.645,468.534 569,474.5C 556.648,486.85 543.648,498.517 530,509.5C 522.821,522.053 518.654,535.553 517.5,550C 517.795,552.923 519.129,555.257 521.5,557C 524.784,558.791 528.284,559.958 532,560.5C 538.643,559.372 545.31,558.372 552,557.5C 562.419,559.532 572.919,560.365 583.5,560C 589.146,559.553 593.98,557.387 598,553.5C 603.653,542.194 610.319,531.527 618,521.5C 625.94,506.471 630.607,490.471 632,473.5C 636.036,457.571 631.536,444.905 618.5,435.5C 621.432,434.183 624.432,433.016 627.5,432C 628.126,431.25 628.626,430.416 629,429.5C 628.962,403.86 629.462,378.193 630.5,352.5C 629.711,331.997 630.044,311.497 631.5,291C 630.07,266.273 630.737,241.606 633.5,217C 631.953,200.148 631.786,183.315 633,166.5C 633.408,164.59 634.575,163.59 636.5,163.5C 646.396,166.563 653.229,172.897 657,182.5C 655.86,198.436 655.026,214.436 654.5,230.5C 657.151,247.063 659.151,263.73 660.5,280.5C 657.378,320.377 656.712,360.21 658.5,400C 658.035,418.199 657.035,436.366 655.5,454.5C 657.583,480.074 660.249,505.574 663.5,531C 661.752,557.145 658.752,583.145 654.5,609C 656.407,613.236 655.74,616.903 652.5,620C 638.113,620.164 623.78,619.331 609.5,617.5C 606.99,617.833 604.823,618.833 603,620.5C 601.799,624.23 600.966,628.063 600.5,632C 600.895,644.36 600.895,656.694 600.5,669C 600.905,669.945 601.572,670.612 602.5,671C 606.619,671.143 610.619,671.81 614.5,673C 615.5,675.333 616.5,677.667 617.5,680C 620.436,681.045 623.436,681.879 626.5,682.5C 627.262,683.628 627.929,684.795 628.5,686C 627.561,689.481 626.228,692.815 624.5,696C 613.463,695.387 602.463,696.053 591.5,698C 590.203,700.545 590.369,703.045 592,705.5C 600.136,712.635 607.97,720.135 615.5,728C 617.459,728.931 619.459,729.764 621.5,730.5C 638.492,729.131 655.492,728.131 672.5,727.5C 674.187,727.76 675.687,728.427 677,729.5C 677.834,735.002 678.667,740.502 679.5,746C 679.695,748.352 679.028,750.352 677.5,752C 666.445,753.163 655.445,753.83 644.5,754C 641.287,754.266 639.287,755.932 638.5,759C 642.835,772.006 650.335,782.839 661,791.5C 663.602,795.63 662.435,797.963 657.5,798.5C 646.796,797.267 636.129,796.101 625.5,795C 616.218,783.048 607.718,770.548 600,757.5C 599.097,756.299 597.931,755.465 596.5,755C 572.83,755.491 549.163,755.324 525.5,754.5C 486.083,756.724 446.749,759.058 407.5,761.5C 391.868,761.436 376.202,761.269 360.5,761C 353.636,759.461 346.803,758.961 340,759.5C 330.783,758.005 321.449,757.338 312,757.5C 301.136,758.087 290.302,758.087 279.5,757.5C 264.484,758.078 249.484,758.911 234.5,760C 231.266,761.944 229.1,764.778 228,768.5C 224.85,779.121 221.016,789.454 216.5,799.5 Z M 169.5,449.5 C 179.338,449.058 188.338,451.558 196.5,457C 212.642,473.474 229.142,489.641 246,505.5C 247.586,507.67 248.92,510.004 250,512.5C 252.135,519.906 254.469,527.239 257,534.5C 257.667,538.5 257.667,542.5 257,546.5C 256.31,549.196 254.81,551.363 252.5,553C 246.392,554.693 240.392,556.693 234.5,559C 216.024,562.244 198.858,559.077 183,549.5C 180.162,545.828 177.829,541.828 176,537.5C 173.152,518.289 167.485,499.955 159,482.5C 156.951,476.806 155.451,470.972 154.5,465C 154.726,461.988 155.559,459.155 157,456.5C 160.728,453.223 164.895,450.89 169.5,449.5 Z M 344.5,536.5 C 377.082,536.227 409.582,537.893 442,541.5C 453.181,540.213 464.348,540.38 475.5,542C 480.759,542.45 485.759,543.784 490.5,546C 495.205,551.282 497.872,557.449 498.5,564.5C 496.452,574.953 496.119,585.453 497.5,596C 496.897,601.872 496.397,607.705 496,613.5C 497.028,615.516 498.695,616.516 501,616.5C 506.809,617.221 512.643,617.721 518.5,618C 523.151,620.791 525.651,624.958 526,630.5C 531.51,640.864 537.51,650.864 544,660.5C 546.058,664.22 545.891,667.72 543.5,671C 538.333,671.167 533.167,671.333 528,671.5C 497.651,671.667 467.318,671.334 437,670.5C 434.26,671.282 431.426,671.782 428.5,672C 397.075,672.818 365.742,674.818 334.5,678C 311.49,678.881 288.49,679.548 265.5,680C 264.409,677.936 264.242,675.769 265,673.5C 272.206,661.086 278.873,648.42 285,635.5C 287.838,631.828 290.171,627.828 292,623.5C 292.75,622.874 293.584,622.374 294.5,622C 337.288,621.392 380.121,619.892 423,617.5C 427.883,617.526 432.716,617.859 437.5,618.5C 450.604,616.427 463.77,616.094 477,617.5C 479.981,617.919 482.314,616.919 484,614.5C 484.845,598.16 485.678,581.827 486.5,565.5C 486.542,561.136 484.876,557.636 481.5,555C 471.722,552.989 461.889,552.489 452,553.5C 431.308,553.455 410.808,551.622 390.5,548C 373.833,547.333 357.167,547.333 340.5,548C 330.948,549.977 321.281,550.977 311.5,551C 307.789,551.844 304.123,552.844 300.5,554C 299.299,554.903 298.465,556.069 298,557.5C 293.619,576.98 290.286,596.646 288,616.5C 284.957,618.908 281.791,619.074 278.5,617C 277.374,613.256 277.207,609.423 278,605.5C 280.56,591.581 282.56,577.581 284,563.5C 285.514,557.777 287.18,552.11 289,546.5C 290.214,544.951 291.714,543.785 293.5,543C 310.505,539.716 327.505,537.549 344.5,536.5 Z M 244.5,620.5 C 251.508,620.334 258.508,620.5 265.5,621C 266.022,621.561 266.355,622.228 266.5,623C 261.409,634.682 255.909,646.182 250,657.5C 248.54,660.21 246.54,660.876 244,659.5C 241.006,646.441 241.173,633.441 244.5,620.5 Z M 456.5,695.5 C 463.35,695.931 470.184,696.597 477,697.5C 495.165,697.042 513.332,696.708 531.5,696.5C 537.799,696.397 543.965,697.064 550,698.5C 554.079,697.371 558.245,697.204 562.5,698C 572.545,706.263 578.211,716.763 579.5,729.5C 578.228,730.046 576.894,730.379 575.5,730.5C 549.164,729.333 522.83,729.333 496.5,730.5C 461.031,732.998 425.531,734.998 390,736.5C 362.347,734.745 334.681,733.079 307,731.5C 299.117,731.656 291.283,732.323 283.5,733.5C 274.353,732.419 265.186,732.419 256,733.5C 253.167,733.333 250.333,733.167 247.5,733C 245.901,731.934 244.901,730.434 244.5,728.5C 245.692,720.423 248.192,712.756 252,705.5C 252.75,704.874 253.584,704.374 254.5,704C 270.972,705.379 287.472,705.879 304,705.5C 330.509,703.462 357.009,701.295 383.5,699C 408.018,698.341 432.351,697.174 456.5,695.5 Z"/></g>
<g><path style="opacity:0.946" fill="#f7724c" d="M 535.5,179.5 C 544.163,179.98 552.83,180.48 561.5,181C 567.668,183.125 574.001,184.459 580.5,185C 582.01,186.351 583.01,188.018 583.5,190C 582.874,216.292 582.541,242.625 582.5,269C 583.825,290.348 584.825,311.681 585.5,333C 585.333,337.833 585.167,342.667 585,347.5C 584.626,348.416 584.126,349.25 583.5,350C 580.625,351.065 577.625,351.565 574.5,351.5C 561.673,350.723 548.84,350.056 536,349.5C 515,351.288 494,352.955 473,354.5C 468.685,353.761 464.351,353.094 460,352.5C 454.896,353.656 449.729,354.323 444.5,354.5C 429.466,353.273 414.466,353.273 399.5,354.5C 394.916,353.369 390.249,352.702 385.5,352.5C 361.476,352.96 337.476,352.96 313.5,352.5C 292.45,353.089 271.45,354.089 250.5,355.5C 246.882,354.649 243.216,353.983 239.5,353.5C 227.176,356.202 215.009,355.869 203,352.5C 202.219,351.271 201.719,349.938 201.5,348.5C 202.678,340.183 202.678,331.849 201.5,323.5C 202.665,314.019 203.665,304.519 204.5,295C 203.992,279.014 202.992,263.014 201.5,247C 203.619,233.713 203.952,220.38 202.5,207C 203.088,200.173 203.588,193.34 204,186.5C 205.761,182.365 208.927,180.365 213.5,180.5C 231.359,183.921 249.359,186.254 267.5,187.5C 275.636,186.967 283.636,185.633 291.5,183.5C 295.658,184.207 299.825,184.874 304,185.5C 329.714,184.132 355.381,184.799 381,187.5C 404.675,186.618 428.341,186.951 452,188.5C 466.425,185.819 480.925,185.152 495.5,186.5C 504.426,184.748 513.426,183.581 522.5,183C 527.077,182.275 531.41,181.108 535.5,179.5 Z"/></g>
<g><path style="opacity:0.901" fill="#f7724c" d="M 530.5,359.5 C 544.838,360.185 559.171,361.019 573.5,362C 576.576,362.346 579.576,363.012 582.5,364C 586.395,370.285 590.895,376.118 596,381.5C 601.542,394.626 607.376,407.626 613.5,420.5C 613.023,421.478 612.357,422.311 611.5,423C 593.091,431.468 573.758,436.468 553.5,438C 541.833,438.333 530.167,438.667 518.5,439C 505.379,443.151 492.045,446.484 478.5,449C 463.227,450.994 447.894,452.327 432.5,453C 425.604,455.613 418.604,457.946 411.5,460C 383.416,463.489 355.416,462.822 327.5,458C 307.119,453.821 286.786,449.488 266.5,445C 246.853,442.479 227.186,440.146 207.5,438C 196.178,435.892 185.344,432.392 175,427.5C 174.125,426.127 173.625,424.627 173.5,423C 175.938,415.688 178.771,408.522 182,401.5C 184.464,392.441 187.131,383.441 190,374.5C 191.302,370.726 193.469,367.559 196.5,365C 206.451,365.823 216.451,366.323 226.5,366.5C 237.756,366.366 248.923,365.699 260,364.5C 271.788,365.75 283.622,365.583 295.5,364C 322.196,363.723 348.863,363.557 375.5,363.5C 420.159,365.576 464.826,365.41 509.5,363C 516.682,362.091 523.682,360.924 530.5,359.5 Z"/></g>
<g><path style="opacity:0.929" fill="#f7724c" d="M 612.5,448.5 C 618.25,448.6 621.416,451.6 622,457.5C 622.723,465.542 622.39,473.542 621,481.5C 617.601,490.363 614.601,499.363 612,508.5C 604.458,521.756 596.291,534.59 587.5,547C 579.7,551.334 571.867,551.501 564,547.5C 563.312,546.668 563.479,546.002 564.5,545.5C 576.127,542.279 582.627,534.613 584,522.5C 584.549,516.695 583.216,511.362 580,506.5C 578.581,505.54 577.081,504.707 575.5,504C 568.791,503.774 562.125,504.274 555.5,505.5C 555.351,504.448 555.517,503.448 556,502.5C 572.866,487.301 588.699,471.135 603.5,454C 606.596,452.128 609.596,450.295 612.5,448.5 Z"/></g>
<g><path style="opacity:0.893" fill="#f7724c" d="M 175.5,460.5 C 181.865,461.348 187.531,463.848 192.5,468C 200.488,478.987 210.155,488.32 221.5,496C 229.743,503.915 236.91,512.748 243,522.5C 244.715,526.86 245.882,531.36 246.5,536C 246.325,541.112 243.658,544.112 238.5,545C 225.796,549.538 213.129,549.538 200.5,545C 196.726,543.698 193.559,541.531 191,538.5C 190.409,537.517 190.743,536.85 192,536.5C 221.241,548.249 232.241,538.916 225,508.5C 215.375,493.517 203.209,491.35 188.5,502C 186.5,504 184.5,506 182.5,508C 181.551,508.617 180.718,508.451 180,507.5C 177.39,500.001 175.39,492.334 174,484.5C 170.687,478.869 168.187,472.869 166.5,466.5C 166.529,464.971 167.196,463.804 168.5,463C 170.927,462.098 173.26,461.264 175.5,460.5 Z"/></g>
<g><path style="opacity:0.888" fill="#f7724c" d="M 200.5,506.5 C 205.247,506.136 209.081,507.802 212,511.5C 214.065,514.96 215.565,518.626 216.5,522.5C 214.598,528.867 210.431,530.867 204,528.5C 190.555,522.749 189.389,515.416 200.5,506.5 Z"/></g>
<g><path style="opacity:0.9" fill="#f7724c" d="M 564.5,515.5 C 574.379,514.226 577.212,518.226 573,527.5C 568.963,534.605 563.13,536.772 555.5,534C 551.105,528.093 551.772,522.76 557.5,518C 560.004,517.302 562.337,516.469 564.5,515.5 Z"/></g>
<g><path style="opacity:0.85" fill="#f7724c" d="M 539.5,519.5 C 540.496,519.414 541.329,519.748 542,520.5C 542.333,525.167 542.667,529.833 543,534.5C 545.282,539.116 548.616,542.783 553,545.5C 553.456,546.744 552.956,547.577 551.5,548C 546.47,548.414 541.47,548.081 536.5,547C 530.115,543.516 528.282,538.349 531,531.5C 532.887,526.787 535.721,522.787 539.5,519.5 Z"/></g>
</svg>
