<?xml version="1.0" encoding="UTF-8"?>
<!DOCTYPE svg PUBLIC "-//W3C//DTD SVG 1.1//EN" "http://www.w3.org/Graphics/SVG/1.1/DTD/svg11.dtd">
<svg xmlns="http://www.w3.org/2000/svg" version="1.1" width="2000px" height="1000px" style="shape-rendering:geometricPrecision; text-rendering:geometricPrecision; image-rendering:optimizeQuality; fill-rule:evenodd; clip-rule:evenodd" xmlns:xlink="http://www.w3.org/1999/xlink">
<g><path style="opacity:0.478" fill="#ffffff" d="M 264.5,-0.5 C 268.833,-0.5 273.167,-0.5 277.5,-0.5C 269.552,5.2174 260.886,9.7174 251.5,13C 250.5,14 249.5,15 248.5,16C 234.329,22.7188 220.329,29.5522 206.5,36.5C 206.5,37.5 206.5,38.5 206.5,39.5C 191.661,46.6283 177.328,54.795 163.5,64C 125.76,86.592 88.7597,111.259 52.5,138C 51.1279,138.402 49.7946,138.902 48.5,139.5C 48.1667,139.167 47.8333,138.833 47.5,138.5C 48.2968,135.573 49.6301,132.906 51.5,130.5C 107.533,89.7031 165.533,52.8698 225.5,20C 227.478,17.7668 229.645,16.6001 232,16.5C 234.772,14.2389 237.938,12.7389 241.5,12C 249.065,7.54299 256.732,3.37632 264.5,-0.5 Z"/></g>
<g><path style="opacity:0.482" fill="#ffffff" d="M 533.5,-0.5 C 540.167,-0.5 546.833,-0.5 553.5,-0.5C 511.997,14.399 470.664,30.2323 429.5,47C 403.823,59.1785 378.323,70.6785 353,81.5C 347.03,84.3185 341.363,87.6518 336,91.5C 335.667,91.1667 335.333,90.8333 335,90.5C 325.38,96.3737 315.88,101.707 306.5,106.5C 298.694,109.568 291.361,113.402 284.5,118C 257.616,132.271 231.282,147.271 205.5,163C 186.922,176.445 167.922,189.111 148.5,201C 126.655,218.081 104.321,234.414 81.5,250C 72.8355,257.656 63.8355,264.822 54.5,271.5C 53.6143,272.325 53.281,273.325 53.5,274.5C 48.9745,276.184 45.4745,279.184 43,283.5C 42.6667,283.167 42.3333,282.833 42,282.5C 41.0975,283.701 39.9308,284.535 38.5,285C 25.5951,296.015 12.5951,306.849 -0.5,317.5C -0.5,314.833 -0.5,312.167 -0.5,309.5C 87.5218,233.086 182.522,166.252 284.5,109C 300.711,100.728 317.044,92.728 333.5,85C 345.456,76.9404 358.623,70.4404 373,65.5C 373.333,65.8333 373.667,66.1667 374,66.5C 378.455,63.0226 383.288,60.1892 388.5,58C 406.968,50.5163 425.135,42.3496 443,33.5C 443.414,33.9574 443.914,34.2907 444.5,34.5C 464.668,25.5604 484.668,17.0604 504.5,9C 514.059,6.20367 523.726,3.037 533.5,-0.5 Z"/></g>
<g><path style="opacity:0.549" fill="#ffffff" d="M 1796.5,-0.5 C 1804.5,-0.5 1812.5,-0.5 1820.5,-0.5C 1870.74,14.2866 1920.41,30.7866 1969.5,49C 1971.86,51.5056 1973.53,54.3389 1974.5,57.5C 1919.29,37.1531 1863.12,18.8198 1806,2.5C 1805.67,2.83333 1805.33,3.16667 1805,3.5C 1802.12,2.05219 1799.29,0.718853 1796.5,-0.5 Z"/></g>
<g><path style="opacity:0.551" fill="#ffffff" d="M 953.5,30.5 C 955.094,30.9195 956.594,31.5862 958,32.5C 963.712,31.8768 969.379,31.2101 975,30.5C 984.393,31.2448 993.893,31.2448 1003.5,30.5C 1009.07,31.0413 1014.57,31.708 1020,32.5C 1020.67,31.8333 1021.33,31.1667 1022,30.5C 1040.64,31.0615 1059.31,32.3948 1078,34.5C 1078.33,34.1667 1078.67,33.8333 1079,33.5C 1082,34.1667 1085,34.8333 1088,35.5C 1090.88,33.2857 1093.88,33.2857 1097,35.5C 1097.56,34.9781 1098.23,34.6448 1099,34.5C 1104.04,35.5033 1109.04,36.5033 1114,37.5C 1115.97,37.3528 1117.97,37.0195 1120,36.5C 1125.07,37.7939 1130.24,38.7939 1135.5,39.5C 1134.65,41.4086 1134.32,43.4086 1134.5,45.5C 1123.2,45.3884 1111.87,44.0551 1100.5,41.5C 1099.71,41.9312 1098.87,42.2645 1098,42.5C 1088.92,41.8893 1079.92,40.8893 1071,39.5C 1061.92,39.4794 1052.58,39.4794 1043,39.5C 1040.15,38.886 1037.31,38.2193 1034.5,37.5C 1023.4,38.5068 1012.4,38.5068 1001.5,37.5C 1000.52,37.9767 999.689,38.6433 999,39.5C 996.706,38.1478 994.206,37.4811 991.5,37.5C 986.442,37.971 981.442,37.971 976.5,37.5C 972.3,38.1375 968.134,38.8041 964,39.5C 951.06,39.5364 938.06,39.5364 925,39.5C 918.565,40.7683 912.065,41.7683 905.5,42.5C 904.914,42.2907 904.414,41.9574 904,41.5C 890.24,43.5188 876.573,45.1855 863,46.5C 745.049,60.2917 630.216,92.7917 518.5,144C 512.579,146.976 506.745,150.143 501,153.5C 500.685,152.092 501.018,150.759 502,149.5C 503.955,147.089 505.789,144.589 507.5,142C 546.497,123.404 586.164,106.904 626.5,92.5C 628.684,93.1081 630.684,92.4414 632.5,90.5C 633.086,90.7093 633.586,91.0426 634,91.5C 637.027,88.96 640.36,87.96 644,88.5C 645.101,86.6061 646.434,85.9394 648,86.5C 746.797,54.3758 848.297,36.2092 952.5,32C 953.056,31.6174 953.389,31.1174 953.5,30.5 Z"/></g>
<g><path style="opacity:0.529" fill="#ffffff" d="M 1999.5,175.5 C 1999.5,177.833 1999.5,180.167 1999.5,182.5C 1963.13,167.054 1926.46,153.054 1889.5,140.5C 1888.91,140.709 1888.41,141.043 1888,141.5C 1887.67,140.167 1887.33,138.833 1887,137.5C 1885.29,138.925 1883.95,138.592 1883,136.5C 1881.61,137.554 1880.11,137.72 1878.5,137C 1814.32,114.274 1748.32,96.1075 1680.5,82.5C 1670.6,79.7387 1660.6,77.4053 1650.5,75.5C 1617.6,69.3685 1584.1,63.7018 1550,58.5C 1548.22,59.4791 1546.55,59.1458 1545,57.5C 1541.13,58.0849 1537.13,58.0849 1533,57.5C 1528.9,56.9041 1524.9,55.9041 1521,54.5C 1519.88,54.6651 1518.72,54.9984 1517.5,55.5C 1514.17,54.5 1510.83,53.5 1507.5,52.5C 1506.71,52.9312 1505.87,53.2645 1505,53.5C 1498.5,51.79 1492,51.1233 1485.5,51.5C 1474.81,50.5338 1464.14,49.2005 1453.5,47.5C 1456.53,45.3024 1459.7,43.3024 1463,41.5C 1466.47,42.202 1469.97,42.8687 1473.5,43.5C 1477.47,42.5784 1481.31,42.9118 1485,44.5C 1485.33,44.1667 1485.67,43.8333 1486,43.5C 1489.33,44.1667 1492.67,44.8333 1496,45.5C 1496.41,45.0426 1496.91,44.7093 1497.5,44.5C 1505.97,46.5769 1514.31,47.7436 1522.5,48C 1523,48.5 1523.5,49 1524,49.5C 1525.12,49.3349 1526.28,49.0016 1527.5,48.5C 1531.12,49.1298 1534.62,50.1298 1538,51.5C 1551.36,51.9305 1564.7,53.5972 1578,56.5C 1578.56,55.9781 1579.23,55.6448 1580,55.5C 1584.33,57.2791 1588.66,57.9457 1593,57.5C 1593.5,58 1594,58.5 1594.5,59C 1693.5,74.7398 1790.83,99.0732 1886.5,132C 1924.55,144.66 1962.22,159.16 1999.5,175.5 Z"/></g>
<g><path style="opacity:0.118" fill="#ffffff" d="M 90.5,61.5 C 92.0481,61.8212 92.7148,62.8212 92.5,64.5C 89.7524,64.5983 89.0857,63.5983 90.5,61.5 Z"/></g>
<g><path style="opacity:0.012" fill="#ffffff" d="M 615.5,70.5 C 617.337,70.6395 617.67,71.3061 616.5,72.5C 615.702,72.0431 615.369,71.3764 615.5,70.5 Z"/></g>
<g><path style="opacity:0.006" fill="#ffffff" d="M 1225.5,77.5 C 1225.9,76.475 1226.56,76.3083 1227.5,77C 1226.91,77.4643 1226.24,77.631 1225.5,77.5 Z"/></g>
<g><path style="opacity:0.403" fill="#ffffff" d="M 1999.5,289.5 C 1999.5,291.833 1999.5,294.167 1999.5,296.5C 1987.52,292.065 1975.35,288.065 1963,284.5C 1929.01,270.659 1894.18,257.159 1858.5,244C 1842.49,239.484 1826.82,234.151 1811.5,228C 1794.92,222.918 1778.26,218.251 1761.5,214C 1760.87,213.25 1760.37,212.416 1760,211.5C 1759.28,212.059 1758.44,212.392 1757.5,212.5C 1739.9,208.083 1722.9,203.083 1706.5,197.5C 1705.83,197.833 1705.17,198.167 1704.5,198.5C 1692.84,195.047 1681.34,192.047 1670,189.5C 1669.67,189.833 1669.33,190.167 1669,190.5C 1666.9,189.009 1664.57,188.009 1662,187.5C 1660.61,188.815 1659.61,188.481 1659,186.5C 1656.2,186.446 1653.37,186.446 1650.5,186.5C 1647.03,185.012 1643.53,183.679 1640,182.5C 1630.56,182.242 1621.23,180.575 1612,177.5C 1611.44,178.022 1610.77,178.355 1610,178.5C 1601.58,176.689 1593.24,174.689 1585,172.5C 1582.13,173.373 1578.96,172.873 1575.5,171C 1538.82,165.719 1502.99,160.886 1468,156.5C 1462.76,156.58 1457.26,156.746 1451.5,157C 1471.64,164.363 1491.31,172.03 1510.5,180C 1522.27,185.215 1534.27,189.882 1546.5,194C 1550.36,195.76 1554.03,197.76 1557.5,200C 1550.65,199.388 1543.98,197.721 1537.5,195C 1523.09,188.751 1508.42,183.084 1493.5,178C 1473.63,172.066 1453.97,165.566 1434.5,158.5C 1417.17,162.321 1400.5,166.987 1384.5,172.5C 1383.91,172.291 1383.41,171.957 1383,171.5C 1318.96,191.223 1254.79,214.723 1190.5,242C 1186.7,242.979 1183.37,242.146 1180.5,239.5C 1259.24,204.312 1340.24,175.812 1423.5,154C 1370.07,134.079 1316.41,114.746 1262.5,96C 1249.01,91.0581 1235.67,85.7248 1222.5,80C 1221.29,79.1072 1221.29,78.2739 1222.5,77.5C 1229.41,78.2887 1236.41,79.2887 1243.5,80.5C 1247.35,80.0519 1250.85,78.7186 1254,76.5C 1254.51,77.9961 1254.01,79.1627 1252.5,80C 1250,81.0804 1247.67,82.4138 1245.5,84C 1247.57,84.5356 1249.4,84.0356 1251,82.5C 1251.37,83.4162 1251.87,84.2496 1252.5,85C 1304.07,103.08 1355.57,121.58 1407,140.5C 1407.33,140.167 1407.67,139.833 1408,139.5C 1413.45,142.504 1418.78,144.837 1424,146.5C 1424.33,146.167 1424.67,145.833 1425,145.5C 1431.44,146.319 1437.94,147.319 1444.5,148.5C 1445.17,148.167 1445.83,147.833 1446.5,147.5C 1451.11,149.16 1455.77,149.493 1460.5,148.5C 1462.03,148.529 1463.2,149.196 1464,150.5C 1464.41,150.043 1464.91,149.709 1465.5,149.5C 1472.39,150.292 1479.22,151.292 1486,152.5C 1488.16,151.803 1490.33,152.137 1492.5,153.5C 1493.17,153.167 1493.83,152.833 1494.5,152.5C 1499.48,153.593 1504.48,154.593 1509.5,155.5C 1510.17,155.167 1510.83,154.833 1511.5,154.5C 1513.45,156.533 1515.62,156.866 1518,155.5C 1521.49,156.434 1524.99,157.434 1528.5,158.5C 1533.06,158.755 1537.73,158.755 1542.5,158.5C 1546.05,160.48 1549.72,161.146 1553.5,160.5C 1600.42,168.164 1646.76,177.331 1692.5,188C 1693.32,189.688 1694.32,189.855 1695.5,188.5C 1713.77,193.101 1732.77,198.434 1752.5,204.5C 1753.09,204.291 1753.59,203.957 1754,203.5C 1756.33,204.833 1758.67,206.167 1761,207.5C 1796.22,215.79 1830.89,226.79 1865,240.5C 1865.33,240.167 1865.67,239.833 1866,239.5C 1900.09,252.327 1934.26,265.827 1968.5,280C 1975.13,281.556 1981.3,283.39 1987,285.5C 1991.29,286.542 1995.46,287.876 1999.5,289.5 Z"/></g>
<g><path style="opacity:0.01" fill="#ffffff" d="M 1203.5,84.5 C 1205.34,84.6395 1205.67,85.3061 1204.5,86.5C 1203.7,86.0431 1203.37,85.3764 1203.5,84.5 Z"/></g>
<g><path style="opacity:0.004" fill="#ffffff" d="M 1342.5,115.5 C 1343.83,116.167 1343.83,116.167 1342.5,115.5 Z"/></g>
<g><path style="opacity:0.462" fill="#ffffff" d="M 170.5,320.5 C 151.09,332.887 132.757,346.887 115.5,362.5C 98.742,374.1 83.0754,386.933 68.5,401C 49.2171,417.608 29.8837,434.275 10.5,451C 9.16667,451.667 9.16667,452.333 10.5,453C 5.65502,455.347 1.98835,458.847 -0.5,463.5C -0.5,459.833 -0.5,456.167 -0.5,452.5C 19.709,434.386 40.3757,415.886 61.5,397C 64.2433,394.634 67.2433,392.8 70.5,391.5C 70.5,390.5 70.5,389.5 70.5,388.5C 81.2113,379.296 92.5447,370.796 104.5,363C 113.515,355.647 122.181,347.981 130.5,340C 156.411,321.769 182.078,303.102 207.5,284C 210.167,282.667 212.833,281.333 215.5,280C 247.226,257.79 279.893,236.956 313.5,217.5C 336.04,204.778 358.707,192.445 381.5,180.5C 395.8,173.297 410.134,166.297 424.5,159.5C 437.137,155.348 449.137,149.848 460.5,143C 466.976,141.063 473.309,138.73 479.5,136C 479.167,135.667 478.833,135.333 478.5,135C 481.794,135.551 484.794,134.551 487.5,132C 500.337,127.076 513.004,121.909 525.5,116.5C 523.86,120.658 521.193,124.158 517.5,127C 420.736,165.563 328.236,213.396 240,270.5C 236.486,273.351 232.986,276.184 229.5,279C 208.742,291.371 189.075,305.204 170.5,320.5 Z"/></g>
<g><path style="opacity:0.008" fill="#ffffff" d="M 1159.5,129.5 C 1160.83,130.167 1160.83,130.167 1159.5,129.5 Z"/></g>
<g><path style="opacity:0.551" fill="#ffffff" d="M 1009.5,137.5 C 1010.4,138.472 1011.57,139.138 1013,139.5C 1018.35,139.841 1023.52,139.507 1028.5,138.5C 1031.04,139.115 1033.54,139.782 1036,140.5C 1040.03,139.767 1044.03,139.433 1048,139.5C 1050.33,140.167 1052.67,140.833 1055,141.5C 1066.79,141.792 1078.46,141.792 1090,141.5C 1091.07,142.191 1092.23,142.691 1093.5,143C 1099.7,143.611 1105.7,144.111 1111.5,144.5C 1111.33,146.861 1110.99,149.194 1110.5,151.5C 1086.62,149.416 1062.45,147.416 1038,145.5C 1027.2,146.275 1016.7,146.275 1006.5,145.5C 1003.29,147.722 999.955,147.722 996.5,145.5C 989.698,146.221 983.031,146.221 976.5,145.5C 972.633,146.135 968.8,146.801 965,147.5C 960.425,147.611 955.758,147.278 951,146.5C 949.667,147.167 948.333,147.833 947,148.5C 941.391,147.917 935.724,147.584 930,147.5C 923.406,148.271 916.739,149.271 910,150.5C 907.766,150.626 905.432,150.293 903,149.5C 902.25,150.126 901.416,150.626 900.5,151C 768.96,163.753 643.626,200.586 524.5,261.5C 515.682,266.983 506.849,271.65 498,275.5C 485.877,282.639 474.044,290.139 462.5,298C 445.856,306.951 429.522,317.617 413.5,330C 410.246,331.027 407.246,332.527 404.5,334.5C 389.366,345.388 374.366,357.221 359.5,370C 357.579,370.36 355.912,371.194 354.5,372.5C 350.815,377.019 346.648,381.019 342,384.5C 341.685,383.092 342.018,381.759 343,380.5C 346.799,374.403 350.965,368.569 355.5,363C 438.279,298.246 528.946,246.246 627.5,207C 653.517,197.805 679.517,188.971 705.5,180.5C 706.167,180.833 706.833,181.167 707.5,181.5C 711.307,179.714 715.307,178.548 719.5,178C 720.632,175.79 722.132,175.29 724,176.5C 737.185,173.139 750.018,169.639 762.5,166C 767.362,165.529 772.029,164.362 776.5,162.5C 778.777,162.985 780.944,162.319 783,160.5C 784.388,161.554 785.888,161.72 787.5,161C 789.029,158.264 790.529,158.098 792,160.5C 796.42,158.98 800.92,157.647 805.5,156.5C 807.017,157.911 808.351,157.744 809.5,156C 817.767,154.782 825.934,153.282 834,151.5C 837.637,151.297 841.304,151.297 845,151.5C 849.667,150.167 854.333,148.833 859,147.5C 861.776,148.648 864.443,148.314 867,146.5C 869.899,147.579 872.733,147.246 875.5,145.5C 876.446,145.987 877.446,146.32 878.5,146.5C 888.23,145.29 897.73,143.956 907,142.5C 910.456,143.639 913.79,143.306 917,141.5C 924.432,140.364 931.932,140.364 939.5,141.5C 942.702,140.873 945.869,140.206 949,139.5C 952.589,140.331 956.423,140.665 960.5,140.5C 961.748,139.96 962.915,139.293 964,138.5C 976.457,139.109 989.123,139.442 1002,139.5C 1004.71,139.133 1007.21,138.466 1009.5,137.5 Z"/></g>
<g><path style="opacity:0.004" fill="#ffffff" d="M 1139.5,149.5 C 1140.53,149.897 1140.69,150.563 1140,151.5C 1139.54,150.906 1139.37,150.239 1139.5,149.5 Z"/></g>
<g><path style="opacity:0.004" fill="#ffffff" d="M 424.5,159.5 C 423.833,158.167 423.833,158.167 424.5,159.5 Z"/></g>
<g><path style="opacity:0.004" fill="#ffffff" d="M 381.5,180.5 C 380.833,179.167 380.833,179.167 381.5,180.5 Z"/></g>
<g><path style="opacity:0.021" fill="#ffffff" d="M 1103.5,187.5 C 1105.15,188.605 1106.82,188.771 1108.5,188C 1107.31,190.027 1105.64,191.527 1103.5,192.5C 1102.57,190.905 1102.57,189.239 1103.5,187.5 Z"/></g>
<g><path style="opacity:0.041" fill="#ffffff" d="M 1560.5,201.5 C 1566.43,203.446 1572.43,206.112 1578.5,209.5C 1579.41,210.328 1580.08,211.328 1580.5,212.5C 1578.67,213.571 1577.51,212.904 1577,210.5C 1576.31,212.891 1575.31,212.891 1574,210.5C 1573.17,213 1572,213.167 1570.5,211C 1571.17,210.667 1571.83,210.333 1572.5,210C 1568.71,208.607 1565.05,206.941 1561.5,205C 1560.66,203.989 1560.33,202.822 1560.5,201.5 Z"/></g>
<g><path style="opacity:0.004" fill="#ffffff" d="M 313.5,217.5 C 312.833,216.167 312.833,216.167 313.5,217.5 Z"/></g>
<g><path style="opacity:0.469" fill="#ffffff" d="M 1580.5,229.5 C 1581.82,229.33 1582.99,229.663 1584,230.5C 1584.81,232.436 1585.31,234.436 1585.5,236.5C 1575.56,237.352 1565.73,238.686 1556,240.5C 1554.42,240.507 1552.75,240.174 1551,239.5C 1550.95,242.416 1549.78,243.416 1547.5,242.5C 1544.16,244.619 1540.66,245.285 1537,244.5C 1512.91,250.276 1488.74,255.776 1464.5,261C 1447.96,266.194 1431.46,270.694 1415,274.5C 1378.32,285.85 1341.99,298.183 1306,311.5C 1303.75,310.292 1301.58,308.959 1299.5,307.5C 1380.16,275.659 1463.16,251.992 1548.5,236.5C 1551.7,234.077 1555.36,232.744 1559.5,232.5C 1560.32,234.748 1561.32,234.914 1562.5,233C 1568.72,232.256 1574.72,231.089 1580.5,229.5 Z"/></g>
<g><path style="opacity:0.011" fill="#ffffff" d="M 331.5,235.5 C 333.337,235.639 333.67,236.306 332.5,237.5C 331.702,237.043 331.369,236.376 331.5,235.5 Z"/></g>
<g><path style="opacity:0.498" fill="#ffffff" d="M 1999.5,517.5 C 1999.5,519.833 1999.5,522.167 1999.5,524.5C 1988.53,514.805 1977.53,505.805 1966.5,497.5C 1952.9,487.631 1939.56,476.631 1926.5,464.5C 1918.83,459 1911.17,453.5 1903.5,448C 1902.55,447.517 1901.55,447.351 1900.5,447.5C 1900.5,446.5 1900.5,445.5 1900.5,444.5C 1899.45,444.649 1898.45,444.483 1897.5,444C 1847.65,403.837 1794.31,368.837 1737.5,339C 1710.06,326.189 1682.73,313.189 1655.5,300C 1652.43,299.544 1649.43,299.544 1646.5,300C 1641.52,295.354 1636.86,290.354 1632.5,285C 1620.83,276.944 1609.5,268.444 1598.5,259.5C 1597.45,254.991 1595.45,250.991 1592.5,247.5C 1593.36,246.417 1594.36,246.251 1595.5,247C 1608.23,259.048 1621.89,270.048 1636.5,280C 1640.89,284.387 1645.22,288.721 1649.5,293C 1652,293.286 1654.17,293.119 1656,292.5C 1660.78,296.066 1665.78,298.4 1671,299.5C 1706.05,316.609 1740.89,334.109 1775.5,352C 1784.85,358.005 1794.18,364.005 1803.5,370C 1804.45,370.617 1805.28,370.451 1806,369.5C 1873.18,415.164 1937.68,464.497 1999.5,517.5 Z"/></g>
<g><path style="opacity:0.533" fill="#ffffff" d="M 965.5,247.5 C 986.775,248.225 1008.11,248.225 1029.5,247.5C 1036.97,249.05 1044.14,249.383 1051,248.5C 1120.16,253.143 1188.33,264.31 1255.5,282C 1262.67,286.42 1270,290.586 1277.5,294.5C 1278.83,295.167 1278.83,295.833 1277.5,296.5C 1240.85,284.61 1204.18,275.443 1167.5,269C 1133.05,264.107 1099.22,259.94 1066,256.5C 1064.44,256.603 1062.94,256.937 1061.5,257.5C 1050.97,256.346 1040.47,255.346 1030,254.5C 1008.83,254.909 987.826,254.909 967,254.5C 965.667,255.167 964.333,255.833 963,256.5C 952.95,256.097 942.783,256.097 932.5,256.5C 921.764,257.76 910.931,259.426 900,261.5C 897.63,260.872 895.297,260.539 893,260.5C 762.461,277.015 639.461,318.348 524,384.5C 514.058,391.888 503.558,398.388 492.5,404C 481.98,412.421 470.98,420.087 459.5,427C 438.319,443.092 417.319,459.425 396.5,476C 390.753,482.898 384.086,488.898 376.5,494C 373.833,497 371.167,500 368.5,503C 367.552,503.483 366.552,503.649 365.5,503.5C 364.716,507.506 362.383,510.173 358.5,511.5C 332.111,536.556 307.444,563.223 284.5,591.5C 216.478,678.527 161.478,773.027 119.5,875C 119.957,875.414 120.291,875.914 120.5,876.5C 116.93,884.583 113.264,892.75 109.5,901C 102.42,923.232 95.5862,945.398 89,967.5C 86.206,968.846 83.706,968.346 81.5,966C 88.9685,944.161 96.3018,922.161 103.5,900C 148.431,776.953 213.431,665.12 298.5,564.5C 305.805,555.695 313.638,547.361 322,539.5C 322.694,536.14 324.694,534.14 328,533.5C 328.333,532.167 328.667,530.833 329,529.5C 329.667,528.167 330.333,528.167 331,529.5C 346.041,513.625 361.874,498.625 378.5,484.5C 380.321,483.272 381.321,481.606 381.5,479.5C 384.114,479.723 385.781,478.556 386.5,476C 445.774,425.457 509.441,382.623 577.5,347.5C 658.567,308.2 743.234,280.033 831.5,263C 857.371,258.8 883.871,254.967 911,251.5C 915.27,251.299 919.603,251.299 924,251.5C 927.769,250.008 931.602,249.675 935.5,250.5C 937.459,250.125 939.293,249.459 941,248.5C 942.569,249.122 944.236,249.456 946,249.5C 952.671,249.027 959.171,248.361 965.5,247.5 Z"/></g>
<g><path style="opacity:0.397" fill="#ffffff" d="M 1999.5,398.5 C 1999.5,399.5 1999.5,400.5 1999.5,401.5C 1996.54,402.159 1993.54,402.492 1990.5,402.5C 1990.65,403.552 1990.48,404.552 1990,405.5C 1987.33,404.02 1987.17,402.52 1989.5,401C 1975.17,396.471 1960.17,391.971 1944.5,387.5C 1943.45,387.68 1942.45,388.013 1941.5,388.5C 1929.19,384.635 1916.85,379.969 1904.5,374.5C 1903.82,374.863 1903.15,375.196 1902.5,375.5C 1900.43,373.264 1898.09,372.597 1895.5,373.5C 1878,365.762 1860.34,357.929 1842.5,350C 1799.04,333.184 1755.71,316.184 1712.5,299C 1697.06,296.225 1682.06,292.058 1667.5,286.5C 1665.17,287.833 1662.83,287.833 1660.5,286.5C 1658.13,289.121 1657.46,288.788 1658.5,285.5C 1656.52,283.016 1654.35,280.683 1652,278.5C 1651.31,277.668 1651.48,277.002 1652.5,276.5C 1655.64,277.691 1658.8,278.691 1662,279.5C 1664.41,279.327 1666.74,279.327 1669,279.5C 1670.17,281.616 1671.67,282.282 1673.5,281.5C 1680.42,284.629 1687.25,285.962 1694,285.5C 1694.32,287.301 1694.98,287.634 1696,286.5C 1697.88,287.977 1699.88,289.31 1702,290.5C 1706.04,290.747 1709.87,292.247 1713.5,295C 1715.5,295.333 1717.5,295.667 1719.5,296C 1726.09,298.764 1732.59,301.597 1739,304.5C 1741.06,303.798 1742.89,304.465 1744.5,306.5C 1745.17,306.167 1745.83,305.833 1746.5,305.5C 1748.95,307.92 1751.95,309.086 1755.5,309C 1758.35,310.534 1761.19,312.034 1764,313.5C 1765.02,312.366 1765.68,312.699 1766,314.5C 1766.41,314.043 1766.91,313.709 1767.5,313.5C 1770.04,315.629 1772.88,317.296 1776,318.5C 1776.41,318.043 1776.91,317.709 1777.5,317.5C 1797.58,327.817 1818.58,336.317 1840.5,343C 1862.08,352.595 1883.75,361.095 1905.5,368.5C 1906.09,368.291 1906.59,367.957 1907,367.5C 1921.34,373.835 1936.17,378.668 1951.5,382C 1967.46,387.599 1983.46,393.099 1999.5,398.5 Z"/></g>
<g><path style="opacity:0.468" fill="#ffffff" d="M -0.5,615.5 C -0.5,612.167 -0.5,608.833 -0.5,605.5C 35.5372,565.12 73.8705,527.787 114.5,493.5C 156.814,456.292 199.481,422.792 242.5,393C 262.429,377.976 283.429,363.81 305.5,350.5C 306.549,348.784 307.882,347.451 309.5,346.5C 324.739,337.45 340.239,328.45 356,319.5C 358.292,318.21 360.292,316.543 362,314.5C 364.355,314.4 366.522,313.233 368.5,311C 380.391,305.31 392.057,299.143 403.5,292.5C 401.966,296.805 399.299,300.805 395.5,304.5C 348.136,330.837 302.136,359.171 257.5,389.5C 236.562,406.111 214.896,421.445 192.5,435.5C 192.5,436.5 192.5,437.5 192.5,438.5C 191.325,438.281 190.325,438.614 189.5,439.5C 176.314,450.843 162.647,461.677 148.5,472C 127.01,490.845 105.677,509.512 84.5,528C 55.056,556.326 26.7226,585.492 -0.5,615.5 Z"/></g>
<g><path style="opacity:0.004" fill="#ffffff" d="M 170.5,320.5 C 171.833,321.167 171.833,321.167 170.5,320.5 Z"/></g>
<g><path style="opacity:0.523" fill="#ffffff" d="M 1638.5,331.5 C 1640.92,332.916 1642.92,334.916 1644.5,337.5C 1642.66,338.23 1640.83,338.897 1639,339.5C 1633.61,340.733 1628.45,340.733 1623.5,339.5C 1597.98,342.695 1572.31,346.528 1546.5,351C 1544.19,352.134 1542.19,353.634 1540.5,355.5C 1503.62,362.471 1468.12,371.471 1434,382.5C 1430.67,382.275 1427.51,380.941 1424.5,378.5C 1424.71,377.914 1425.04,377.414 1425.5,377C 1463.95,365.471 1502.29,355.805 1540.5,348C 1542.31,346.398 1544.31,345.064 1546.5,344C 1566.97,341.181 1587.14,338.014 1607,334.5C 1607.41,334.957 1607.91,335.291 1608.5,335.5C 1618.45,334.339 1628.45,333.005 1638.5,331.5 Z"/></g>
<g><path style="opacity:0.004" fill="#ffffff" d="M 1865.5,345.5 C 1865.9,344.475 1866.56,344.308 1867.5,345C 1866.91,345.464 1866.24,345.631 1865.5,345.5 Z"/></g>
<g><path style="opacity:0.02" fill="#ffffff" d="M 309.5,346.5 C 308.833,345.167 308.833,345.167 309.5,346.5 Z"/></g>
<g><path style="opacity:0.531" fill="#ffffff" d="M 1699.5,734.5 C 1702.43,734.09 1703.1,732.756 1701.5,730.5C 1703.94,728.878 1706.61,728.045 1709.5,728C 1707.21,731.416 1705.04,734.916 1703,738.5C 1698.4,741.738 1694.73,745.738 1692,750.5C 1691.69,747.853 1690.52,747.187 1688.5,748.5C 1688.17,747.833 1687.83,747.167 1687.5,746.5C 1683.69,748.928 1679.86,748.928 1676,746.5C 1673.87,746.548 1671.71,746.715 1669.5,747C 1668.17,746 1668.17,745 1669.5,744C 1675.01,743.95 1680.34,743.283 1685.5,742C 1683.66,738.402 1681.66,734.902 1679.5,731.5C 1679.71,730.914 1680.04,730.414 1680.5,730C 1678.48,725.491 1675.81,721.324 1672.5,717.5C 1672.71,716.914 1673.04,716.414 1673.5,716C 1668.31,709.806 1663.48,703.306 1659,696.5C 1653.91,690.902 1648.41,685.902 1642.5,681.5C 1642.5,680.167 1641.83,679.5 1640.5,679.5C 1633.53,669.519 1626.53,659.519 1619.5,649.5C 1611.82,640.815 1604.48,631.815 1597.5,622.5C 1597.31,618.589 1597.14,614.589 1597,610.5C 1590.29,600.961 1582.13,592.961 1572.5,586.5C 1557.92,572.872 1542.92,559.705 1527.5,547C 1504.6,529.609 1480.94,512.275 1456.5,495C 1452.32,492.57 1447.99,490.736 1443.5,489.5C 1443.65,487.058 1442.81,486.391 1441,487.5C 1419.25,473.701 1396.75,461.035 1373.5,449.5C 1372.91,449.709 1372.41,450.043 1372,450.5C 1365.8,446.929 1359.64,443.263 1353.5,439.5C 1352.91,439.709 1352.41,440.043 1352,440.5C 1284.16,407.496 1212.49,385.162 1137,373.5C 1128.67,372.167 1120.33,370.833 1112,369.5C 1109.95,369.848 1107.95,369.181 1106,367.5C 1098.44,366.723 1090.78,366.723 1083,367.5C 1073.17,366.204 1063.33,364.87 1053.5,363.5C 1050.38,364.419 1047.38,364.752 1044.5,364.5C 1038.38,363.656 1032.21,362.99 1026,362.5C 1009.31,363.126 992.808,363.126 976.5,362.5C 972.914,362.939 969.414,363.606 966,364.5C 962.98,363.919 959.98,363.585 957,363.5C 953.72,364.246 950.386,364.913 947,365.5C 941.295,364.502 935.628,364.836 930,366.5C 925.506,366.58 921.006,366.58 916.5,366.5C 906.596,368.472 896.596,369.972 886.5,371C 885.975,371.692 885.308,372.192 884.5,372.5C 880.149,372.067 875.983,372.067 872,372.5C 869.282,373.347 866.616,374.347 864,375.5C 863.439,374.978 862.772,374.645 862,374.5C 812.209,384.33 763.709,397.33 716.5,413.5C 708.518,416.547 700.518,420.214 692.5,424.5C 691.914,424.291 691.414,423.957 691,423.5C 677.668,429.762 664.001,435.429 650,440.5C 626.122,452.669 602.955,464.502 580.5,476C 556.98,491.591 533.313,506.925 509.5,522C 489.794,538.708 469.794,555.041 449.5,571C 430.681,589.819 411.514,608.986 392,628.5C 370.861,654.788 349.361,681.955 327.5,710C 327.833,710.333 328.167,710.667 328.5,711C 315.353,730.729 302.02,750.395 288.5,770C 284.318,779.719 279.318,789.386 273.5,799C 254.977,831.23 238.81,865.064 225,900.5C 222.719,903.777 220.885,907.277 219.5,911C 211.43,932.544 203.93,955.044 197,978.5C 195.252,981.654 192.752,982.321 189.5,980.5C 190.722,973.278 192.722,966.278 195.5,959.5C 194.712,957.671 195.212,956.004 197,954.5C 201.158,941.001 205.991,927.834 211.5,915C 211.306,913.097 211.306,911.263 211.5,909.5C 214.519,905.461 217.019,901.128 219,896.5C 230.065,868.79 242.565,841.79 256.5,815.5C 265.947,798.664 275.114,781.664 284,764.5C 289.961,757.234 294.461,750.067 297.5,743C 303.45,736.693 308.284,729.526 312,721.5C 315.586,718.101 318.086,714.101 319.5,709.5C 324.507,709.99 325.174,709.157 321.5,707C 323.029,705.209 324.696,703.542 326.5,702C 325.663,700.989 325.33,699.822 325.5,698.5C 327.433,698.271 329.1,697.438 330.5,696C 330.167,695.667 329.833,695.333 329.5,695C 336.655,686.51 343.822,678.01 351,669.5C 360.903,656.059 371.069,642.726 381.5,629.5C 400.167,610.833 418.833,592.167 437.5,573.5C 452.142,559.149 467.809,546.149 484.5,534.5C 491.006,529.158 497.34,523.658 503.5,518C 528.912,500.918 554.579,484.251 580.5,468C 596.176,460.95 611.343,453.117 626,444.5C 626.333,444.833 626.667,445.167 627,445.5C 631.862,441.432 637.195,438.099 643,435.5C 664.025,427.042 684.858,418.876 705.5,411C 706.292,408.664 707.625,408.164 709.5,409.5C 731.73,400.881 754.397,393.714 777.5,388C 781.062,386.729 784.562,385.229 788,383.5C 788.873,383.735 789.707,384.069 790.5,384.5C 796.899,381.56 803.566,379.726 810.5,379C 810.167,378.667 809.833,378.333 809.5,378C 814.544,378.072 819.211,376.905 823.5,374.5C 824.167,374.833 824.833,375.167 825.5,375.5C 829.858,372.998 834.358,371.998 839,372.5C 854.118,369.597 869.284,366.597 884.5,363.5C 885.167,363.833 885.833,364.167 886.5,364.5C 891.516,363.593 896.516,362.593 901.5,361.5C 905.04,362.418 908.54,362.085 912,360.5C 913,360.833 914,361.167 915,361.5C 918.279,359.702 921.612,359.369 925,360.5C 928.383,358.654 931.883,358.321 935.5,359.5C 946.369,358.557 957.202,357.224 968,355.5C 986.062,356.71 1004.06,356.71 1022,355.5C 1026.19,356.027 1030.36,356.694 1034.5,357.5C 1051.54,356.353 1068.87,357.353 1086.5,360.5C 1097.95,359.827 1109.12,361.16 1120,364.5C 1120.33,364.167 1120.67,363.833 1121,363.5C 1186.7,373.099 1250.54,390.099 1312.5,414.5C 1336.07,425.372 1359.57,436.039 1383,446.5C 1384.81,445.391 1385.65,446.058 1385.5,448.5C 1399.24,455.361 1412.74,462.694 1426,470.5C 1426.33,470.167 1426.67,469.833 1427,469.5C 1427.37,470.416 1427.87,471.25 1428.5,472C 1441.55,478.563 1454.22,485.729 1466.5,493.5C 1486.36,508.257 1506.36,522.757 1526.5,537C 1547.74,555.427 1569.07,573.593 1590.5,591.5C 1593.91,594.738 1596.74,598.405 1599,602.5C 1600.13,607.265 1600.79,611.931 1601,616.5C 1607.93,626.097 1615.59,635.097 1624,643.5C 1636.1,662.938 1650.1,680.938 1666,697.5C 1676.89,710.628 1685.73,724.961 1692.5,740.5C 1693.87,740.657 1695.21,740.49 1696.5,740C 1694.74,739.28 1693.91,738.113 1694,736.5C 1696.3,737.446 1698.13,736.779 1699.5,734.5 Z"/></g>
<g><path style="opacity:0.032" fill="#ffffff" d="M 738.5,363.5 C 740.337,363.639 740.67,364.306 739.5,365.5C 738.702,365.043 738.369,364.376 738.5,363.5 Z"/></g>
<g><path style="opacity:0.004" fill="#ffffff" d="M 1895.5,373.5 C 1896.17,373.5 1896.5,373.833 1896.5,374.5C 1896.17,374.167 1895.83,373.833 1895.5,373.5 Z"/></g>
<g><path style="opacity:0.004" fill="#ffffff" d="M 1896.5,374.5 C 1897.24,374.369 1897.91,374.536 1898.5,375C 1897.56,375.692 1896.9,375.525 1896.5,374.5 Z"/></g>
<g><path style="opacity:0.047" fill="#ffffff" d="M 1902.5,375.5 C 1910.58,381.048 1919.25,385.881 1928.5,390C 1931.9,391.39 1935.23,391.89 1938.5,391.5C 1936.91,394.283 1934.57,395.45 1931.5,395C 1922.47,388.484 1912.81,382.984 1902.5,378.5C 1900.02,377.12 1900.02,376.12 1902.5,375.5 Z"/></g>
<g><path style="opacity:0.02" fill="#ffffff" d="M 1958.5,420.5 C 1960.64,420.981 1962.3,422.148 1963.5,424C 1965.11,424.72 1966.61,424.554 1968,423.5C 1968.45,425.409 1967.61,426.576 1965.5,427C 1966.34,428.666 1965.84,428.833 1964,427.5C 1963.25,428.126 1962.42,428.626 1961.5,429C 1961.83,429.333 1962.17,429.667 1962.5,430C 1960.9,430.273 1959.4,430.773 1958,431.5C 1957.67,431.167 1957.33,430.833 1957,430.5C 1955.4,432.656 1953.23,433.99 1950.5,434.5C 1949.59,433.672 1948.92,432.672 1948.5,431.5C 1952.98,428.143 1956.32,424.476 1958.5,420.5 Z"/></g>
<g><path style="opacity:0.53" fill="#ffffff" d="M 1710.5,432.5 C 1713.8,434.481 1715.47,437.148 1715.5,440.5C 1708.24,440.452 1701.08,440.452 1694,440.5C 1677.13,441.728 1659.8,443.728 1642,446.5C 1637.34,446.665 1632.67,446.665 1628,446.5C 1626.81,447.43 1625.47,448.097 1624,448.5C 1620.25,448.668 1616.41,448.668 1612.5,448.5C 1609.59,448.914 1606.92,449.914 1604.5,451.5C 1603.39,450.978 1602.23,450.645 1601,450.5C 1590.49,452.068 1579.99,453.735 1569.5,455.5C 1565.65,454.906 1562.31,453.24 1559.5,450.5C 1599.39,444.025 1639.72,438.692 1680.5,434.5C 1685.72,435.352 1690.89,435.019 1696,433.5C 1697.23,433.645 1698.39,433.978 1699.5,434.5C 1703.3,433.896 1706.97,433.23 1710.5,432.5 Z"/></g>
<g><path style="opacity:0.501" fill="#ffffff" d="M 1999.5,652.5 C 1999.5,655.833 1999.5,659.167 1999.5,662.5C 1936.15,598.341 1867.15,542.675 1792.5,495.5C 1778.72,486.893 1765.05,478.06 1751.5,469C 1737.86,464.858 1727.19,456.858 1719.5,445C 1725.85,447.453 1731.85,450.786 1737.5,455C 1754.2,462.669 1769.86,472.003 1784.5,483C 1796.49,489.996 1808.49,496.996 1820.5,504C 1820.17,504.333 1819.83,504.667 1819.5,505C 1883.98,547.819 1943.31,596.819 1997.5,652C 1998.09,652.464 1998.76,652.631 1999.5,652.5 Z"/></g>
<g><path style="opacity:0.546" fill="#ffffff" d="M 566.5,604.5 C 583.241,593.62 599.907,582.453 616.5,571C 633.796,561.085 651.13,552.085 668.5,544C 671.331,542.313 673.331,540.48 674.5,538.5C 675.086,538.709 675.586,539.043 676,539.5C 682.365,536.152 688.698,532.818 695,529.5C 695.414,529.957 695.914,530.291 696.5,530.5C 705.141,525.445 713.475,521.945 721.5,520C 742.731,509.607 764.064,502.107 785.5,497.5C 796.682,492.964 808.015,488.964 819.5,485.5C 822.7,485.566 825.867,485.566 829,485.5C 829.5,485 830,484.5 830.5,484C 852.291,479.752 874.291,475.252 896.5,470.5C 897.293,470.931 898.127,471.265 899,471.5C 906.133,469.603 913.3,468.936 920.5,469.5C 923.966,468.033 927.466,467.699 931,468.5C 939.991,466.602 948.825,465.435 957.5,465C 959.23,463.148 960.396,463.314 961,465.5C 963.461,464.782 965.961,464.115 968.5,463.5C 992.915,463.662 1017.58,463.662 1042.5,463.5C 1070.39,466.625 1098.39,469.792 1126.5,473C 1147.7,478.262 1169.03,482.929 1190.5,487C 1263.28,507.536 1332.61,537.536 1398.5,577C 1418.64,591.221 1438.31,605.221 1457.5,619C 1471.38,631.705 1486.05,643.539 1501.5,654.5C 1510.08,663.583 1518.91,672.583 1528,681.5C 1534.59,691.917 1542.42,701.251 1551.5,709.5C 1565.69,729.697 1581.02,749.03 1597.5,767.5C 1608.74,784.1 1620.07,800.766 1631.5,817.5C 1638.51,830.2 1645.51,842.867 1652.5,855.5C 1651.24,858.125 1650.07,860.792 1649,863.5C 1648.25,862.874 1647.42,862.374 1646.5,862C 1646.83,861.667 1647.17,861.333 1647.5,861C 1645.37,860.082 1644.7,858.749 1645.5,857C 1643.11,856.716 1642.45,855.716 1643.5,854C 1641.54,850.579 1639.71,847.079 1638,843.5C 1635.88,842.78 1635.38,841.613 1636.5,840C 1631.47,833.454 1626.81,826.621 1622.5,819.5C 1622.71,818.914 1623.04,818.414 1623.5,818C 1622.17,815.395 1620.17,813.395 1617.5,812C 1617.83,811.667 1618.17,811.333 1618.5,811C 1607.97,796.462 1597.81,781.629 1588,766.5C 1565.11,738.614 1542.28,710.948 1519.5,683.5C 1513.8,676.796 1507.8,670.296 1501.5,664C 1484.15,651.303 1467.48,637.636 1451.5,623C 1437.9,614.378 1424.9,605.045 1412.5,595C 1367.31,565.404 1319.64,540.571 1269.5,520.5C 1268.91,520.709 1268.41,521.043 1268,521.5C 1266.97,519.639 1265.47,518.305 1263.5,517.5C 1240.96,510.598 1218.29,503.098 1195.5,495C 1168.63,489.197 1141.96,483.864 1115.5,479C 1090.21,476.42 1065.21,473.586 1040.5,470.5C 1015.56,470.764 990.722,470.764 966,470.5C 964.667,471.167 963.333,471.833 962,472.5C 959.347,472.318 956.68,471.985 954,471.5C 953,472.167 952,472.833 951,473.5C 948.703,473.461 946.37,473.128 944,472.5C 943.333,473.167 942.667,473.833 942,474.5C 934.96,473.444 927.793,474.111 920.5,476.5C 919.833,476.167 919.167,475.833 918.5,475.5C 915.833,476.167 913.167,476.833 910.5,477.5C 906.438,477.423 902.438,477.423 898.5,477.5C 897.522,477.977 896.689,478.643 896,479.5C 892.667,479.5 889.333,479.5 886,479.5C 872.93,482.764 859.763,485.764 846.5,488.5C 845.914,488.291 845.414,487.957 845,487.5C 840.876,488.894 836.71,490.227 832.5,491.5C 831.833,491.167 831.167,490.833 830.5,490.5C 805.758,497.648 780.758,505.148 755.5,513C 740.777,518.743 726.277,524.91 712,531.5C 711.667,531.167 711.333,530.833 711,530.5C 709.216,532.066 707.216,533.399 705,534.5C 704.228,534.355 703.561,534.022 703,533.5C 702.685,536.147 701.518,536.813 699.5,535.5C 698.354,536.145 697.354,536.978 696.5,538C 691.667,539.223 687.001,540.723 682.5,542.5C 682.881,544.942 682.214,545.609 680.5,544.5C 677.5,546.5 674.5,548.5 671.5,550.5C 670.914,550.291 670.414,549.957 670,549.5C 664.953,552.299 660.12,555.466 655.5,559C 651.677,559.937 648.344,561.77 645.5,564.5C 644.914,564.291 644.414,563.957 644,563.5C 616.309,580.274 589.142,597.774 562.5,616C 546.01,629.984 529.344,643.818 512.5,657.5C 493.797,677.354 475.297,696.687 457,715.5C 439.6,737.154 422.933,758.82 407,780.5C 403.52,789.168 398.853,796.502 393,802.5C 367.902,842.043 346.069,883.043 327.5,925.5C 327.709,926.086 328.043,926.586 328.5,927C 317.919,947.756 309.919,969.59 304.5,992.5C 301.518,992.896 298.851,992.229 296.5,990.5C 304.89,963.633 314.89,937.8 326.5,913C 327.744,909.19 328.911,905.356 330,901.5C 339.971,881.558 350.471,861.891 361.5,842.5C 366.694,830.796 373.361,819.963 381.5,810C 380.167,808.16 380.334,807.66 382,808.5C 383.46,803.705 386.126,799.705 390,796.5C 394.832,789.512 398.999,782.179 402.5,774.5C 421.031,750.471 439.364,727.138 457.5,704.5C 458.325,703.614 459.325,703.281 460.5,703.5C 460.5,702.5 460.5,701.5 460.5,700.5C 461.873,700.657 463.207,700.49 464.5,700C 464.167,699.667 463.833,699.333 463.5,699C 469,692.167 475.167,686 482,680.5C 485.333,676.004 488.833,671.67 492.5,667.5C 494.193,666.772 495.693,665.772 497,664.5C 499.456,662.219 501.29,659.552 502.5,656.5C 503.675,656.719 504.675,656.386 505.5,655.5C 525.623,638.026 545.956,621.026 566.5,604.5 Z"/></g>
<g><path style="opacity:0.008" fill="#ffffff" d="M 1792.5,495.5 C 1791.83,496.167 1791.83,496.167 1792.5,495.5 Z"/></g>
<g><path style="opacity:0.559" fill="#ffffff" d="M 1755.5,657.5 C 1754.42,652.914 1751.92,649.247 1748,646.5C 1733,624.496 1717.5,602.829 1701.5,581.5C 1700.68,580.614 1699.68,580.281 1698.5,580.5C 1697.27,577.747 1695.77,575.08 1694,572.5C 1689.04,567.266 1684.54,561.599 1680.5,555.5C 1668.03,539.867 1655.03,524.701 1641.5,510C 1640.9,508.374 1640.9,506.541 1641.5,504.5C 1643.22,505.934 1645.22,506.767 1647.5,507C 1663.03,524.196 1678.2,541.696 1693,559.5C 1699.64,570.436 1707.47,580.436 1716.5,589.5C 1730.37,610.534 1745.2,630.868 1761,650.5C 1760.6,652.631 1759.6,654.631 1758,656.5C 1757.33,657.252 1756.5,657.586 1755.5,657.5 Z"/></g>
<g><path style="opacity:0.004" fill="#ffffff" d="M 339.5,510.5 C 339.897,509.475 340.563,509.308 341.5,510C 340.906,510.464 340.239,510.631 339.5,510.5 Z"/></g>
<g><path style="opacity:0.459" fill="#ffffff" d="M -0.5,786.5 C -0.5,782.833 -0.5,779.167 -0.5,775.5C 43.4149,717.437 91.2482,663.104 143,612.5C 143.333,612.833 143.667,613.167 144,613.5C 155.128,601.042 167.295,589.542 180.5,579C 195.29,563.817 210.956,550.483 227.5,539C 232.301,535.276 236.635,531.109 240.5,526.5C 240.833,527 241.167,527.5 241.5,528C 236.374,535.297 231.04,542.464 225.5,549.5C 164.173,598.828 108.173,653.495 57.5,713.5C 44.5658,729.708 31.3991,745.708 18,761.5C 11.5762,769.741 5.40952,778.074 -0.5,786.5 Z"/></g>
<g><path style="opacity:0.544" fill="#ffffff" d="M 1602.5,999.5 C 1600.17,999.5 1597.83,999.5 1595.5,999.5C 1594.28,995.145 1592.28,990.645 1589.5,986C 1589.96,985.586 1590.29,985.086 1590.5,984.5C 1580.48,967.635 1571.98,949.968 1565,931.5C 1548.31,899.146 1529.14,867.312 1507.5,836C 1507.83,835.667 1508.17,835.333 1508.5,835C 1500.97,824.629 1493.97,814.463 1487.5,804.5C 1478.07,788.905 1466.07,775.738 1451.5,765C 1438.84,750.506 1424.51,738.006 1408.5,727.5C 1366.03,691.358 1320.37,661.191 1271.5,637C 1253.86,629.888 1236.19,622.555 1218.5,615C 1197.99,609.273 1177.65,602.94 1157.5,596C 1148.3,594.16 1139.14,592.327 1130,590.5C 1129.67,590.833 1129.33,591.167 1129,591.5C 1122.26,589.504 1115.59,587.504 1109,585.5C 1108.59,585.957 1108.09,586.291 1107.5,586.5C 1101.6,585.354 1095.77,584.021 1090,582.5C 1089.59,582.957 1089.09,583.291 1088.5,583.5C 1078.98,582.132 1069.48,580.799 1060,579.5C 1058.43,580.122 1056.76,580.456 1055,580.5C 1041.95,579.102 1028.95,577.769 1016,576.5C 1015.26,577.574 1014.26,578.241 1013,578.5C 997.3,577.983 981.467,577.65 965.5,577.5C 962.124,579.065 958.624,579.399 955,578.5C 947.551,580.394 940.218,581.727 933,582.5C 932.228,582.355 931.561,582.022 931,581.5C 922.144,582.831 912.978,584.164 903.5,585.5C 902.914,585.291 902.414,584.957 902,584.5C 880.668,589.861 859.501,594.695 838.5,599C 834.106,600.526 829.773,602.36 825.5,604.5C 824.914,604.291 824.414,603.957 824,603.5C 809.878,608.467 795.544,613.467 781,618.5C 780.667,618.167 780.333,617.833 780,617.5C 773.215,620.559 766.548,623.893 760,627.5C 734.825,636.259 710.491,648.592 687,664.5C 686.667,664.167 686.333,663.833 686,663.5C 669.841,672.92 654.008,683.087 638.5,694C 633.09,698.977 627.09,703.143 620.5,706.5C 606.947,719.886 592.614,732.386 577.5,744C 564.101,758.219 550.601,772.386 537,786.5C 535.187,788.761 533.687,791.095 532.5,793.5C 531.325,793.281 530.325,793.614 529.5,794.5C 518.546,810.591 506.38,826.258 493,841.5C 481.904,859.37 470.57,877.036 459,894.5C 449.219,915.167 439.052,935.667 428.5,956C 428.833,956.333 429.167,956.667 429.5,957C 423.155,970.863 417.488,985.03 412.5,999.5C 409.833,999.5 407.167,999.5 404.5,999.5C 409.822,984.707 415.822,970.207 422.5,956C 422.043,955.586 421.709,955.086 421.5,954.5C 434.123,928.537 447.123,903.37 460.5,879C 464.959,873.253 468.793,867.086 472,860.5C 476.725,855.01 480.725,849.01 484,842.5C 496.521,826.21 509.521,809.543 523,792.5C 523.483,791.552 523.649,790.552 523.5,789.5C 526.548,787.967 529.215,785.8 531.5,783C 536.955,777.191 542.789,771.024 549,764.5C 549.483,763.552 549.649,762.552 549.5,761.5C 550.552,761.649 551.552,761.483 552.5,761C 558.631,753.011 565.631,746.011 573.5,740C 573.167,739.667 572.833,739.333 572.5,739C 577.347,735.967 582.013,732.8 586.5,729.5C 588.386,726.28 591.053,723.613 594.5,721.5C 595.956,718.371 598.289,716.371 601.5,715.5C 601.281,714.325 601.614,713.325 602.5,712.5C 640.585,682.312 680.918,656.478 723.5,635C 739.562,627.3 755.562,620.133 771.5,613.5C 792.473,607.137 813.473,600.304 834.5,593C 856.07,588.159 877.07,583.493 897.5,579C 908.123,578.006 918.623,576.506 929,574.5C 931.499,575.798 933.833,575.464 936,573.5C 938.297,573.539 940.63,573.872 943,574.5C 950.268,572.653 957.435,571.32 964.5,570.5C 984.51,571.011 1004.34,571.011 1024,570.5C 1036.21,571.464 1048.38,572.797 1060.5,574.5C 1064.1,573.61 1067.6,573.277 1071,573.5C 1079.34,574.774 1087.68,576.107 1096,577.5C 1213.07,594.559 1317.9,642.059 1410.5,720C 1421.32,726.726 1431.32,734.392 1440.5,743C 1451.97,755.8 1463.63,767.467 1475.5,778C 1480.66,783.063 1484.66,788.396 1487.5,794C 1502.64,815.075 1516.64,836.408 1529.5,858C 1538.56,870.067 1546.4,882.901 1553,896.5C 1554.95,899.505 1557.11,902.338 1559.5,905C 1558.55,905.718 1558.38,906.551 1559,907.5C 1562.24,912.977 1565.74,918.311 1569.5,923.5C 1571.22,929.346 1573.89,934.679 1577.5,939.5C 1577.29,940.086 1576.96,940.586 1576.5,941C 1582.79,953.757 1588.96,966.59 1595,979.5C 1598.02,986.439 1600.52,993.106 1602.5,999.5 Z"/></g>
<g><path style="opacity:0.572" fill="#ffffff" d="M 1775.5,593.5 C 1774.2,592.399 1773.7,591.066 1774,589.5C 1784.73,590.57 1795.23,591.903 1805.5,593.5C 1806.28,594.729 1806.78,596.062 1807,597.5C 1820.13,611.137 1833.96,623.971 1848.5,636C 1853.27,641.513 1858.27,646.847 1863.5,652C 1864.9,653.438 1866.57,654.271 1868.5,654.5C 1874.96,665.159 1882.12,675.492 1890,685.5C 1890.63,687.586 1890.13,687.919 1888.5,686.5C 1887.19,684.359 1885.69,682.359 1884,680.5C 1857.86,655.362 1832.03,629.862 1806.5,604C 1805.55,603.517 1804.55,603.351 1803.5,603.5C 1803.64,601.876 1802.97,600.71 1801.5,600C 1794.51,598.934 1787.51,597.934 1780.5,597C 1778.68,596.003 1777.01,594.836 1775.5,593.5 Z"/></g>
<g><path style="opacity:0.037" fill="#ffffff" d="M 1775.5,593.5 C 1774.55,596.677 1773.22,599.677 1771.5,602.5C 1770.5,598.493 1771.84,595.493 1775.5,593.5 Z"/></g>
<g><path style="opacity:0.004" fill="#ffffff" d="M 566.5,604.5 C 565.833,603.167 565.833,603.167 566.5,604.5 Z"/></g>
<g><path style="opacity:0.162" fill="#ffffff" d="M 1769.5,621.5 C 1771.29,624.404 1773.13,627.404 1775,630.5C 1775.41,635.357 1774.41,635.69 1772,631.5C 1770.65,628.28 1769.81,624.947 1769.5,621.5 Z"/></g>
<g><path style="opacity:0.467" fill="#ffffff" d="M 1755.5,657.5 C 1755.2,659.604 1755.53,661.604 1756.5,663.5C 1772.92,682.44 1788.09,702.44 1802,723.5C 1804.39,724.763 1806.22,726.597 1807.5,729C 1812.51,737.736 1818.51,746.236 1825.5,754.5C 1826.75,756.323 1827.41,758.323 1827.5,760.5C 1828.68,760.281 1829.68,760.614 1830.5,761.5C 1842.75,780.47 1854.41,799.97 1865.5,820C 1871.4,830.538 1877.4,841.038 1883.5,851.5C 1883.29,852.086 1882.96,852.586 1882.5,853C 1884.38,855.251 1885.88,857.751 1887,860.5C 1888.44,867.24 1890.94,873.573 1894.5,879.5C 1894.29,880.086 1893.96,880.586 1893.5,881C 1895.81,888.366 1897.64,896.199 1899,904.5C 1911.38,936.706 1922.88,968.373 1933.5,999.5C 1931.17,999.5 1928.83,999.5 1926.5,999.5C 1915.25,970.946 1904.75,941.612 1895,911.5C 1893.15,894.356 1888.48,878.022 1881,862.5C 1873.61,849.426 1866.28,835.759 1859,821.5C 1855.42,815.331 1851.58,809.331 1847.5,803.5C 1839.87,787.887 1830.37,772.887 1819,758.5C 1818.52,757.552 1818.35,756.552 1818.5,755.5C 1817.45,755.649 1816.45,755.483 1815.5,755C 1816.28,753.927 1816.11,752.76 1815,751.5C 1799.92,731.269 1785.09,710.936 1770.5,690.5C 1764.05,682.845 1757.05,675.012 1749.5,667C 1751.41,663.712 1753.41,660.545 1755.5,657.5 Z"/></g>
<g><path style="opacity:0.009" fill="#ffffff" d="M 1603.5,667.5 C 1605.69,666.203 1608.03,666.203 1610.5,667.5C 1608.15,667.528 1605.82,667.528 1603.5,667.5 Z"/></g>
<g><path style="opacity:0.004" fill="#ffffff" d="M 1746.5,669.5 C 1746.9,668.475 1747.56,668.308 1748.5,669C 1747.91,669.464 1747.24,669.631 1746.5,669.5 Z"/></g>
<g><path style="opacity:0.009" fill="#ffffff" d="M 1616.5,669.5 C 1618.34,669.639 1618.67,670.306 1617.5,671.5C 1616.7,671.043 1616.37,670.376 1616.5,669.5 Z"/></g>
<g><path style="opacity:0.006" fill="#ffffff" d="M 1620.5,670.5 C 1622.34,670.639 1622.67,671.306 1621.5,672.5C 1620.7,672.043 1620.37,671.376 1620.5,670.5 Z"/></g>
<g><path style="opacity:0.009" fill="#ffffff" d="M 1625.5,671.5 C 1627.76,672.238 1627.93,673.238 1626,674.5C 1624.27,673.648 1624.1,672.648 1625.5,671.5 Z"/></g>
<g><path style="opacity:0.004" fill="#ffffff" d="M 1629.5,674.5 C 1630.53,674.897 1630.69,675.563 1630,676.5C 1629.54,675.906 1629.37,675.239 1629.5,674.5 Z"/></g>
<g><path style="opacity:0.009" fill="#ffffff" d="M 1640.5,679.5 C 1640.63,680.239 1640.46,680.906 1640,681.5C 1637.21,679.858 1634.38,678.358 1631.5,677C 1634.61,677.209 1637.61,678.042 1640.5,679.5 Z"/></g>
<g><path style="opacity:0.518" fill="#ffffff" d="M 1489.5,999.5 C 1487.17,999.5 1484.83,999.5 1482.5,999.5C 1474.4,977.693 1465.23,956.359 1455,935.5C 1451.1,927.366 1446.43,919.7 1441,912.5C 1422.02,887.724 1401.52,864.224 1379.5,842C 1371.57,835.421 1363.74,828.588 1356,821.5C 1355.52,820.552 1355.35,819.552 1355.5,818.5C 1354.07,818.579 1352.74,818.246 1351.5,817.5C 1317.07,787.699 1279.24,762.033 1238,740.5C 1237.67,740.833 1237.33,741.167 1237,741.5C 1230.26,737.1 1223.26,733.1 1216,729.5C 1215.67,729.833 1215.33,730.167 1215,730.5C 1192.08,719.258 1168.25,710.758 1143.5,705C 1135.6,702.658 1127.77,700.158 1120,697.5C 1119.13,697.735 1118.29,698.069 1117.5,698.5C 1113.61,697.662 1109.94,696.328 1106.5,694.5C 1103.97,694.566 1101.47,694.566 1099,694.5C 1088.56,692.6 1078.23,690.267 1068,687.5C 1064.1,687.291 1060.1,687.624 1056,688.5C 1030.51,684.225 1004.67,683.559 978.5,686.5C 974.022,686.423 969.856,686.09 966,685.5C 965,686.167 964,686.833 963,687.5C 960.559,686.606 957.892,686.272 955,686.5C 952.545,687.916 950.045,688.25 947.5,687.5C 936.202,689.828 924.869,691.828 913.5,693.5C 864.467,702.13 817.133,717.63 771.5,740C 759.774,746.195 748.107,752.361 736.5,758.5C 736.5,759.5 736.5,760.5 736.5,761.5C 729.65,764.258 722.65,767.758 715.5,772C 706.476,779.031 697.476,786.031 688.5,793C 683.967,795.429 679.633,798.096 675.5,801C 659.138,816.16 642.805,831.16 626.5,846C 626.833,846.333 627.167,846.667 627.5,847C 590.007,885.293 559.674,927.626 536.5,974C 536.833,974.333 537.167,974.667 537.5,975C 533.025,982.922 529.025,991.088 525.5,999.5C 522.833,999.5 520.167,999.5 517.5,999.5C 525.678,982.962 533.845,965.962 542,948.5C 548.683,938.454 555.35,928.454 562,918.5C 563.303,913.766 565.803,909.766 569.5,906.5C 569.291,905.914 568.957,905.414 568.5,905C 579.809,892.589 590.309,879.422 600,865.5C 604.667,860.833 609.333,856.167 614,851.5C 614.483,850.552 614.649,849.552 614.5,848.5C 615.552,848.649 616.552,848.483 617.5,848C 623.475,840.058 630.142,832.724 637.5,826C 647.85,817.313 657.85,808.313 667.5,799C 682.574,788.766 697.24,777.933 711.5,766.5C 722.135,761.046 731.802,755.213 740.5,749C 740.167,748.667 739.833,748.333 739.5,748C 741.019,748.331 742.352,748.164 743.5,747.5C 747.774,744.688 752.107,741.855 756.5,739C 772.105,732.53 787.438,725.53 802.5,718C 844.945,702.164 888.112,690.331 932,682.5C 935.575,682.308 939.241,682.308 943,682.5C 946.111,681.039 949.277,680.706 952.5,681.5C 957.431,680.138 962.431,679.138 967.5,678.5C 973.431,679.261 979.431,679.595 985.5,679.5C 990.365,678.858 995.199,678.192 1000,677.5C 1005.3,677.864 1010.8,677.864 1016.5,677.5C 1029.57,678.523 1042.73,679.857 1056,681.5C 1058.09,681.464 1060.09,681.131 1062,680.5C 1083.34,684.19 1104.51,688.023 1125.5,692C 1143.74,697.774 1161.74,703.107 1179.5,708C 1193.89,713.772 1208.22,719.439 1222.5,725C 1238.41,733.451 1254.08,741.451 1269.5,749C 1286.13,759.404 1302.47,770.237 1318.5,781.5C 1329.28,790.464 1340.28,799.13 1351.5,807.5C 1361.81,818.172 1372.81,828.172 1384.5,837.5C 1410.37,862.873 1433.54,890.54 1454,920.5C 1466.77,946.063 1478.6,972.396 1489.5,999.5 Z"/></g>
<g><path style="opacity:0.004" fill="#ffffff" d="M 1642.5,681.5 C 1641.83,682.167 1641.83,682.167 1642.5,681.5 Z"/></g>
<g><path style="opacity:0.39" fill="#ffffff" d="M 1999.5,796.5 C 1999.5,797.167 1999.5,797.833 1999.5,798.5C 1990.03,796.445 1982.69,791.445 1977.5,783.5C 1963.34,769.845 1949.01,756.345 1934.5,743C 1922.01,731.109 1910.51,717.609 1900,702.5C 1899.31,701.668 1899.48,701.002 1900.5,700.5C 1917.65,718.298 1935.98,735.298 1955.5,751.5C 1969.42,767.093 1984.09,782.093 1999.5,796.5 Z"/></g>
<g><path style="opacity:0.007" fill="#ffffff" d="M 1705.5,720.5 C 1707.34,720.639 1707.67,721.306 1706.5,722.5C 1705.7,722.043 1705.37,721.376 1705.5,720.5 Z"/></g>
<g><path style="opacity:0.006" fill="#ffffff" d="M 1707.5,724.5 C 1708.53,724.897 1708.69,725.563 1708,726.5C 1707.54,725.906 1707.37,725.239 1707.5,724.5 Z"/></g>
<g><path style="opacity:0.004" fill="#ffffff" d="M 1704.5,726.5 C 1704.9,725.475 1705.56,725.308 1706.5,726C 1705.91,726.464 1705.24,726.631 1704.5,726.5 Z"/></g>
<g><path style="opacity:0.004" fill="#ffffff" d="M 1408.5,727.5 C 1407.83,728.167 1407.83,728.167 1408.5,727.5 Z"/></g>
<g><path style="opacity:0.006" fill="#ffffff" d="M 1701.5,730.5 C 1700.47,730.103 1700.31,729.437 1701,728.5C 1701.46,729.094 1701.63,729.761 1701.5,730.5 Z"/></g>
<g><path style="opacity:0.011" fill="#ffffff" d="M 1694.5,732.5 C 1697.01,733.216 1697.01,734.216 1694.5,735.5C 1693.44,734.575 1693.44,733.575 1694.5,732.5 Z"/></g>
<g><path style="opacity:0.029" fill="#ffffff" d="M 1699.5,734.5 C 1697.66,734.361 1697.33,733.694 1698.5,732.5C 1699.3,732.957 1699.63,733.624 1699.5,734.5 Z"/></g>
<g><path style="opacity:0.005" fill="#ffffff" d="M 1665.5,746.5 C 1666.08,745.227 1666.74,745.227 1667.5,746.5C 1667.03,747.463 1666.36,747.463 1665.5,746.5 Z"/></g>
<g><path style="opacity:0.474" fill="#ffffff" d="M 1930.5,745.5 C 1932.74,746.568 1934.57,748.234 1936,750.5C 1941.16,760.654 1947.49,769.988 1955,778.5C 1957.95,783.486 1960.79,789.152 1963.5,795.5C 1963.17,796.167 1962.83,796.833 1962.5,797.5C 1965.99,802.985 1969.32,808.485 1972.5,814C 1972.89,815.525 1972.89,817.192 1972.5,819C 1973.42,819.374 1974.25,819.874 1975,820.5C 1976.85,824.928 1978.85,829.261 1981,833.5C 1981.83,838.202 1981.66,842.869 1980.5,847.5C 1975.93,838.556 1971.26,829.556 1966.5,820.5C 1967.03,819.808 1967.69,819.308 1968.5,819C 1966.32,818.558 1965.65,817.558 1966.5,816C 1965.55,815.517 1964.55,815.351 1963.5,815.5C 1963.66,813.801 1963.49,812.134 1963,810.5C 1959.49,804.801 1955.99,799.134 1952.5,793.5C 1954.99,792.459 1954.99,791.626 1952.5,791C 1952.83,790.667 1953.17,790.333 1953.5,790C 1952.21,788.59 1951.05,787.09 1950,785.5C 1943.5,772.167 1937,758.834 1930.5,745.5 Z"/></g>
<g><path style="opacity:0.012" fill="#ffffff" d="M 743.5,747.5 C 742.833,746.167 742.833,746.167 743.5,747.5 Z"/></g>
<g><path style="opacity:0.502" fill="#ffffff" d="M 1832.5,999.5 C 1830.17,999.5 1827.83,999.5 1825.5,999.5C 1823.54,994.194 1821.21,989.028 1818.5,984C 1818.83,983.667 1819.17,983.333 1819.5,983C 1805.53,955.572 1792.36,928.072 1780,900.5C 1766.95,879.424 1754.12,858.091 1741.5,836.5C 1741.71,835.914 1742.04,835.414 1742.5,835C 1734.81,826.459 1728.47,816.959 1723.5,806.5C 1717.45,799.035 1712.45,791.035 1708.5,782.5C 1707.45,782.649 1706.45,782.483 1705.5,782C 1705.83,781.667 1706.17,781.333 1706.5,781C 1702.14,773.296 1696.97,766.13 1691,759.5C 1690.34,756.322 1691.17,753.655 1693.5,751.5C 1695.12,753.624 1696.95,755.624 1699,757.5C 1730.97,806.239 1761.63,855.906 1791,906.5C 1792.23,909.42 1793.23,912.42 1794,915.5C 1799.82,926.187 1805.32,936.687 1810.5,947C 1809.37,948.016 1809.7,948.683 1811.5,949C 1811.17,949.333 1810.83,949.667 1810.5,950C 1819.72,965.821 1827.05,982.321 1832.5,999.5 Z"/></g>
<g><path style="opacity:0.51" fill="#ffffff" d="M 1378.5,999.5 C 1375.83,999.5 1373.17,999.5 1370.5,999.5C 1355.53,975.838 1338.03,952.838 1318,930.5C 1312.52,925.354 1307.36,919.854 1302.5,914C 1296.78,909.486 1291.12,904.986 1285.5,900.5C 1278.19,891.834 1269.53,885.168 1259.5,880.5C 1258.54,877.165 1256.21,875.499 1252.5,875.5C 1252.5,874.5 1252.5,873.5 1252.5,872.5C 1236.34,862.922 1220.34,853.089 1204.5,843C 1197.35,840.441 1190.51,837.274 1184,833.5C 1183.67,833.833 1183.33,834.167 1183,834.5C 1168.81,826.363 1153.81,820.029 1138,815.5C 1132.65,813.038 1126.82,810.871 1120.5,809C 1105.21,805.538 1090.05,802.038 1075,798.5C 1074.67,798.833 1074.33,799.167 1074,799.5C 1063.93,798.425 1053.93,796.758 1044,794.5C 1038.13,795.313 1032.3,794.98 1026.5,793.5C 1025.23,794.046 1023.89,794.379 1022.5,794.5C 1014.77,793.23 1007.1,792.564 999.5,792.5C 995.274,793.07 991.108,793.737 987,794.5C 985.605,793.185 984.605,793.519 984,795.5C 981,792.833 978,792.833 975,795.5C 971.884,795.465 968.718,795.132 965.5,794.5C 949.426,796.782 933.426,799.448 917.5,802.5C 916.833,802.167 916.167,801.833 915.5,801.5C 904.498,805.552 893.164,808.719 881.5,811C 866.299,816.847 850.966,822.513 835.5,828C 795.667,846.256 759.001,869.589 725.5,898C 718.323,906.843 710.156,914.677 701,921.5C 697.015,927.905 692.182,933.571 686.5,938.5C 674.442,953.395 662.942,968.728 652,984.5C 648.956,989.254 646.456,994.254 644.5,999.5C 641.833,999.5 639.167,999.5 636.5,999.5C 636.421,998.07 636.754,996.736 637.5,995.5C 709.591,878.573 813.924,809.907 950.5,789.5C 951.167,789.833 951.833,790.167 952.5,790.5C 957.421,789.18 962.254,788.18 967,787.5C 969.68,787.985 972.347,788.318 975,788.5C 990.842,785.795 1006.51,786.129 1022,789.5C 1023,788.5 1024,787.5 1025,786.5C 1029.25,787.382 1033.59,788.049 1038,788.5C 1043.68,786.981 1049.35,787.648 1055,790.5C 1055.77,790.355 1056.44,790.022 1057,789.5C 1196.49,810.466 1303.66,880.466 1378.5,999.5 Z"/></g>
<g><path style="opacity:0.008" fill="#ffffff" d="M 1982.5,800.5 C 1983.53,800.897 1983.69,801.563 1983,802.5C 1982.54,801.906 1982.37,801.239 1982.5,800.5 Z"/></g>
<g><path style="opacity:0.485" fill="#ffffff" d="M 1999.5,830.5 C 1999.5,835.833 1999.5,841.167 1999.5,846.5C 1994.3,836.447 1988.8,826.447 1983,816.5C 1982.17,812.129 1982.34,807.795 1983.5,803.5C 1988.65,809.701 1992.48,816.701 1995,824.5C 1996.59,826.526 1998.09,828.526 1999.5,830.5 Z"/></g>
<g><path style="opacity:0.004" fill="#ffffff" d="M 1487.5,804.5 C 1486.83,805.167 1486.83,805.167 1487.5,804.5 Z"/></g>
<g><path style="opacity:0.004" fill="#ffffff" d="M 256.5,815.5 C 255.833,814.167 255.833,814.167 256.5,815.5 Z"/></g>
<g><path style="opacity:0.526" fill="#ffffff" d="M -0.5,905.5 C -0.5,897.833 -0.5,890.167 -0.5,882.5C 3.14395,868.558 9.97728,856.225 20,845.5C 17.6346,854.259 14.6346,862.925 11,871.5C 7.20995,883.039 3.37661,894.373 -0.5,905.5 Z"/></g>
<g><path style="opacity:0.478" fill="#ffffff" d="M 1716.5,999.5 C 1713.5,999.5 1710.5,999.5 1707.5,999.5C 1698.16,980.361 1689.16,960.528 1680.5,940C 1668.33,918.604 1656.33,897.604 1644.5,877C 1644.78,874.708 1645.45,872.542 1646.5,870.5C 1652.94,877.324 1657.6,884.824 1660.5,893C 1669.27,908.076 1678.27,923.409 1687.5,939C 1689.09,944.063 1691.43,948.729 1694.5,953C 1694.17,953.333 1693.83,953.667 1693.5,954C 1695.84,957.745 1698.17,961.412 1700.5,965C 1700.17,966.503 1700.17,967.836 1700.5,969C 1702.83,972.667 1705.17,976.333 1707.5,980C 1707.5,981.333 1707.5,982.667 1707.5,984C 1710.6,989.133 1713.6,994.3 1716.5,999.5 Z"/></g>
<g><path style="opacity:0.51" fill="#ffffff" d="M 1248.5,999.5 C 1244.83,999.5 1241.17,999.5 1237.5,999.5C 1237.63,998.761 1237.46,998.094 1237,997.5C 1183.84,944.084 1119.5,911.75 1044,900.5C 951.69,891.831 869.523,917.331 797.5,977C 795.088,980.084 792.755,982.417 790.5,984C 785.248,989.083 780.248,994.249 775.5,999.5C 772.5,999.5 769.5,999.5 766.5,999.5C 793.809,968.451 826.476,943.618 864.5,925C 892.03,912.155 920.364,902.822 949.5,897C 1043.84,881.843 1129.84,903.509 1207.5,962C 1215.06,968.275 1222.4,974.775 1229.5,981.5C 1230.69,982.429 1232.02,982.762 1233.5,982.5C 1233.35,983.552 1233.52,984.552 1234,985.5C 1238.96,990.059 1243.8,994.725 1248.5,999.5 Z"/></g>
<g><path style="opacity:0.377" fill="#ffffff" d="M 1038.5,999.5 C 1016.5,999.5 994.5,999.5 972.5,999.5C 978.396,998.741 984.396,997.741 990.5,996.5C 1001.15,996.794 1011.65,996.794 1022,996.5C 1024.65,998.012 1027.32,998.345 1030,997.5C 1033.03,997.912 1035.86,998.579 1038.5,999.5 Z"/></g>
<g><path style="opacity:0.004" fill="#ffffff" d="M 1040.5,999.5 C 1039.83,998.167 1039.83,998.167 1040.5,999.5 Z"/></g>
</svg>
